G04 #@! TF.FileFunction,Soldermask,Bot*
%FSLAX46Y46*%
G04 Gerber Fmt 4.6, Leading zero omitted, Abs format (unit mm)*
G04 Created by KiCad (PCBNEW 4.0.5) date 03/05/17 22:01:09*
%MOMM*%
%LPD*%
G01*
G04 APERTURE LIST*
%ADD10C,0.100000*%
%ADD11C,1.727200*%
%ADD12O,1.727200X1.727200*%
%ADD13O,1.727200X2.032000*%
%ADD14C,4.064000*%
%ADD15R,1.700000X1.700000*%
%ADD16O,1.700000X1.700000*%
%ADD17C,1.400000*%
%ADD18O,1.400000X1.400000*%
G04 APERTURE END LIST*
D10*
D11*
X197358000Y-114046000D03*
D12*
X199898000Y-114046000D03*
X197358000Y-111506000D03*
X199898000Y-111506000D03*
X197358000Y-108966000D03*
X199898000Y-108966000D03*
X197358000Y-106426000D03*
X199898000Y-106426000D03*
X197358000Y-103886000D03*
X199898000Y-103886000D03*
X197358000Y-101346000D03*
X199898000Y-101346000D03*
X197358000Y-98806000D03*
X199898000Y-98806000D03*
X197358000Y-96266000D03*
X199898000Y-96266000D03*
X197358000Y-93726000D03*
X199898000Y-93726000D03*
X197358000Y-91186000D03*
X199898000Y-91186000D03*
X197358000Y-88646000D03*
X199898000Y-88646000D03*
X197358000Y-86106000D03*
X199898000Y-86106000D03*
X197358000Y-83566000D03*
X199898000Y-83566000D03*
X197358000Y-81026000D03*
X199898000Y-81026000D03*
X197358000Y-78486000D03*
X199898000Y-78486000D03*
X197358000Y-75946000D03*
X199898000Y-75946000D03*
X197358000Y-73406000D03*
X199898000Y-73406000D03*
X197358000Y-70866000D03*
X199898000Y-70866000D03*
D13*
X131318000Y-119126000D03*
X133858000Y-119126000D03*
X136398000Y-119126000D03*
X138938000Y-119126000D03*
X141478000Y-119126000D03*
X144018000Y-119126000D03*
X146558000Y-119126000D03*
X149098000Y-119126000D03*
X154178000Y-119126000D03*
X156718000Y-119126000D03*
X159258000Y-119126000D03*
X161798000Y-119126000D03*
X164338000Y-119126000D03*
X166878000Y-119126000D03*
X169418000Y-119126000D03*
X171958000Y-119126000D03*
X177038000Y-119126000D03*
X179578000Y-119126000D03*
X182118000Y-119126000D03*
X184658000Y-119126000D03*
X187198000Y-119126000D03*
X189738000Y-119126000D03*
X192278000Y-119126000D03*
X194818000Y-119126000D03*
X122174000Y-70866000D03*
X124714000Y-70866000D03*
X127254000Y-70866000D03*
X129794000Y-70866000D03*
X132334000Y-70866000D03*
X134874000Y-70866000D03*
X137414000Y-70866000D03*
X139954000Y-70866000D03*
X142494000Y-70866000D03*
X145034000Y-70866000D03*
X149098000Y-70866000D03*
X151638000Y-70866000D03*
X154178000Y-70866000D03*
X156718000Y-70866000D03*
X159258000Y-70866000D03*
X161798000Y-70866000D03*
X164338000Y-70866000D03*
X166878000Y-70866000D03*
X171958000Y-70866000D03*
X174498000Y-70866000D03*
X177038000Y-70866000D03*
X179578000Y-70866000D03*
X182118000Y-70866000D03*
X184658000Y-70866000D03*
X187198000Y-70866000D03*
X189738000Y-70866000D03*
D14*
X117348000Y-119126000D03*
X199898000Y-119126000D03*
X118618000Y-70866000D03*
X193548000Y-70866000D03*
D15*
X176530000Y-102870000D03*
D16*
X173990000Y-102870000D03*
X171450000Y-102870000D03*
X168910000Y-102870000D03*
X166370000Y-102870000D03*
X163830000Y-102870000D03*
X161290000Y-102870000D03*
X158750000Y-102870000D03*
D15*
X135890000Y-102870000D03*
D16*
X133350000Y-102870000D03*
X130810000Y-102870000D03*
X128270000Y-102870000D03*
X125730000Y-102870000D03*
X123190000Y-102870000D03*
X120650000Y-102870000D03*
X118110000Y-102870000D03*
D15*
X191770000Y-95250000D03*
D16*
X189230000Y-95250000D03*
X186690000Y-95250000D03*
X184150000Y-95250000D03*
X181610000Y-95250000D03*
X179070000Y-95250000D03*
X176530000Y-95250000D03*
X173990000Y-95250000D03*
X171450000Y-95250000D03*
X168910000Y-95250000D03*
X166370000Y-95250000D03*
X163830000Y-95250000D03*
X161290000Y-95250000D03*
X158750000Y-95250000D03*
D15*
X151130000Y-95250000D03*
D16*
X148590000Y-95250000D03*
X146050000Y-95250000D03*
X143510000Y-95250000D03*
X140970000Y-95250000D03*
X138430000Y-95250000D03*
X135890000Y-95250000D03*
X133350000Y-95250000D03*
X130810000Y-95250000D03*
X128270000Y-95250000D03*
X125730000Y-95250000D03*
X123190000Y-95250000D03*
X120650000Y-95250000D03*
X118110000Y-95250000D03*
X115570000Y-95250000D03*
D15*
X179070000Y-77724000D03*
D16*
X176530000Y-77724000D03*
X173990000Y-77724000D03*
X171450000Y-77724000D03*
X168910000Y-77724000D03*
X166370000Y-77724000D03*
X163830000Y-77724000D03*
X161290000Y-77724000D03*
X158750000Y-77724000D03*
X156210000Y-77724000D03*
X153670000Y-77724000D03*
X151130000Y-77724000D03*
X148590000Y-77724000D03*
X146050000Y-77724000D03*
X143510000Y-77724000D03*
D15*
X179070000Y-85090000D03*
D16*
X176530000Y-85090000D03*
X173990000Y-85090000D03*
X171450000Y-85090000D03*
D15*
X186690000Y-77470000D03*
D16*
X189230000Y-77470000D03*
X186690000Y-80010000D03*
X189230000Y-80010000D03*
X186690000Y-82550000D03*
X189230000Y-82550000D03*
D15*
X191770000Y-110490000D03*
D16*
X191770000Y-113030000D03*
X189230000Y-110490000D03*
X189230000Y-113030000D03*
X186690000Y-110490000D03*
X186690000Y-113030000D03*
X184150000Y-110490000D03*
X184150000Y-113030000D03*
X181610000Y-110490000D03*
X181610000Y-113030000D03*
X179070000Y-110490000D03*
X179070000Y-113030000D03*
X176530000Y-110490000D03*
X176530000Y-113030000D03*
X173990000Y-110490000D03*
X173990000Y-113030000D03*
X171450000Y-110490000D03*
X171450000Y-113030000D03*
X168910000Y-110490000D03*
X168910000Y-113030000D03*
X166370000Y-110490000D03*
X166370000Y-113030000D03*
X163830000Y-110490000D03*
X163830000Y-113030000D03*
X161290000Y-110490000D03*
X161290000Y-113030000D03*
X158750000Y-110490000D03*
X158750000Y-113030000D03*
X156210000Y-110490000D03*
X156210000Y-113030000D03*
X153670000Y-110490000D03*
X153670000Y-113030000D03*
X151130000Y-110490000D03*
X151130000Y-113030000D03*
X148590000Y-110490000D03*
X148590000Y-113030000D03*
X146050000Y-110490000D03*
X146050000Y-113030000D03*
X143510000Y-110490000D03*
X143510000Y-113030000D03*
X140970000Y-110490000D03*
X140970000Y-113030000D03*
X138430000Y-110490000D03*
X138430000Y-113030000D03*
X135890000Y-110490000D03*
X135890000Y-113030000D03*
X133350000Y-110490000D03*
X133350000Y-113030000D03*
X130810000Y-110490000D03*
X130810000Y-113030000D03*
X128270000Y-110490000D03*
X128270000Y-113030000D03*
X125730000Y-110490000D03*
X125730000Y-113030000D03*
X123190000Y-110490000D03*
X123190000Y-113030000D03*
X120650000Y-110490000D03*
X120650000Y-113030000D03*
X118110000Y-110490000D03*
X118110000Y-113030000D03*
D15*
X158750000Y-85090000D03*
D16*
X156210000Y-85090000D03*
X153670000Y-85090000D03*
X151130000Y-85090000D03*
X148590000Y-85090000D03*
X146050000Y-85090000D03*
X143510000Y-85090000D03*
D15*
X135890000Y-85090000D03*
D16*
X133350000Y-85090000D03*
X130810000Y-85090000D03*
X128270000Y-85090000D03*
D17*
X118110000Y-80010000D03*
D18*
X123190000Y-80010000D03*
M02*
