G04 #@! TF.FileFunction,Legend,Top*
%FSLAX46Y46*%
G04 Gerber Fmt 4.6, Leading zero omitted, Abs format (unit mm)*
G04 Created by KiCad (PCBNEW 4.0.5) date 03/05/17 22:01:09*
%MOMM*%
%LPD*%
G01*
G04 APERTURE LIST*
%ADD10C,0.100000*%
%ADD11C,0.150000*%
%ADD12C,0.300000*%
%ADD13C,0.120000*%
G04 APERTURE END LIST*
D10*
D11*
X113419381Y-81859238D02*
X112752714Y-81859238D01*
X112943190Y-81859238D02*
X112847952Y-81811619D01*
X112800333Y-81764000D01*
X112752714Y-81668762D01*
X112752714Y-81573523D01*
X113371762Y-80859237D02*
X113419381Y-80954475D01*
X113419381Y-81144952D01*
X113371762Y-81240190D01*
X113276524Y-81287809D01*
X112895571Y-81287809D01*
X112800333Y-81240190D01*
X112752714Y-81144952D01*
X112752714Y-80954475D01*
X112800333Y-80859237D01*
X112895571Y-80811618D01*
X112990810Y-80811618D01*
X113086048Y-81287809D01*
X112752714Y-80478285D02*
X113419381Y-80240190D01*
X112752714Y-80002094D01*
X113324143Y-79621142D02*
X113371762Y-79573523D01*
X113419381Y-79621142D01*
X113371762Y-79668761D01*
X113324143Y-79621142D01*
X113419381Y-79621142D01*
X113419381Y-78621142D02*
X113419381Y-79192571D01*
X113419381Y-78906857D02*
X112419381Y-78906857D01*
X112562238Y-79002095D01*
X112657476Y-79097333D01*
X112705095Y-79192571D01*
X114164619Y-91049716D02*
X114117000Y-91002097D01*
X114069381Y-90906859D01*
X114069381Y-90668763D01*
X114117000Y-90573525D01*
X114164619Y-90525906D01*
X114259857Y-90478287D01*
X114355095Y-90478287D01*
X114497952Y-90525906D01*
X115069381Y-91097335D01*
X115069381Y-90478287D01*
X114069381Y-89859240D02*
X114069381Y-89764001D01*
X114117000Y-89668763D01*
X114164619Y-89621144D01*
X114259857Y-89573525D01*
X114450333Y-89525906D01*
X114688429Y-89525906D01*
X114878905Y-89573525D01*
X114974143Y-89621144D01*
X115021762Y-89668763D01*
X115069381Y-89764001D01*
X115069381Y-89859240D01*
X115021762Y-89954478D01*
X114974143Y-90002097D01*
X114878905Y-90049716D01*
X114688429Y-90097335D01*
X114450333Y-90097335D01*
X114259857Y-90049716D01*
X114164619Y-90002097D01*
X114117000Y-89954478D01*
X114069381Y-89859240D01*
X115069381Y-88573525D02*
X115069381Y-89144954D01*
X115069381Y-88859240D02*
X114069381Y-88859240D01*
X114212238Y-88954478D01*
X114307476Y-89049716D01*
X114355095Y-89144954D01*
X114069381Y-88240192D02*
X114069381Y-87573525D01*
X115069381Y-88002097D01*
X115069381Y-86430668D02*
X114069381Y-86430668D01*
X115069381Y-85859239D01*
X114069381Y-85859239D01*
X115021762Y-85002096D02*
X115069381Y-85097334D01*
X115069381Y-85287811D01*
X115021762Y-85383049D01*
X114926524Y-85430668D01*
X114545571Y-85430668D01*
X114450333Y-85383049D01*
X114402714Y-85287811D01*
X114402714Y-85097334D01*
X114450333Y-85002096D01*
X114545571Y-84954477D01*
X114640810Y-84954477D01*
X114736048Y-85430668D01*
X114402714Y-84668763D02*
X114402714Y-84287811D01*
X115069381Y-84525906D02*
X114212238Y-84525906D01*
X114117000Y-84478287D01*
X114069381Y-84383049D01*
X114069381Y-84287811D01*
X115069381Y-83954477D02*
X114402714Y-83954477D01*
X114593190Y-83954477D02*
X114497952Y-83906858D01*
X114450333Y-83859239D01*
X114402714Y-83764001D01*
X114402714Y-83668762D01*
X115069381Y-83192572D02*
X115021762Y-83287810D01*
X114974143Y-83335429D01*
X114878905Y-83383048D01*
X114593190Y-83383048D01*
X114497952Y-83335429D01*
X114450333Y-83287810D01*
X114402714Y-83192572D01*
X114402714Y-83049714D01*
X114450333Y-82954476D01*
X114497952Y-82906857D01*
X114593190Y-82859238D01*
X114878905Y-82859238D01*
X114974143Y-82906857D01*
X115021762Y-82954476D01*
X115069381Y-83049714D01*
X115069381Y-83192572D01*
X115021762Y-82002095D02*
X115069381Y-82097333D01*
X115069381Y-82287810D01*
X115021762Y-82383048D01*
X114974143Y-82430667D01*
X114878905Y-82478286D01*
X114593190Y-82478286D01*
X114497952Y-82430667D01*
X114450333Y-82383048D01*
X114402714Y-82287810D01*
X114402714Y-82097333D01*
X114450333Y-82002095D01*
X115069381Y-81573524D02*
X114069381Y-81573524D01*
X114688429Y-81478286D02*
X115069381Y-81192571D01*
X114402714Y-81192571D02*
X114783667Y-81573524D01*
X115069381Y-79525904D02*
X115069381Y-80002095D01*
X114069381Y-80002095D01*
X115069381Y-78763999D02*
X114545571Y-78763999D01*
X114450333Y-78811618D01*
X114402714Y-78906856D01*
X114402714Y-79097333D01*
X114450333Y-79192571D01*
X115021762Y-78763999D02*
X115069381Y-78859237D01*
X115069381Y-79097333D01*
X115021762Y-79192571D01*
X114926524Y-79240190D01*
X114831286Y-79240190D01*
X114736048Y-79192571D01*
X114688429Y-79097333D01*
X114688429Y-78859237D01*
X114640810Y-78763999D01*
X115069381Y-78287809D02*
X114069381Y-78287809D01*
X114450333Y-78287809D02*
X114402714Y-78192571D01*
X114402714Y-78002094D01*
X114450333Y-77906856D01*
X114497952Y-77859237D01*
X114593190Y-77811618D01*
X114878905Y-77811618D01*
X114974143Y-77859237D01*
X115021762Y-77906856D01*
X115069381Y-78002094D01*
X115069381Y-78192571D01*
X115021762Y-78287809D01*
X114069381Y-76430666D02*
X114069381Y-76240189D01*
X114117000Y-76144951D01*
X114212238Y-76049713D01*
X114402714Y-76002094D01*
X114736048Y-76002094D01*
X114926524Y-76049713D01*
X115021762Y-76144951D01*
X115069381Y-76240189D01*
X115069381Y-76430666D01*
X115021762Y-76525904D01*
X114926524Y-76621142D01*
X114736048Y-76668761D01*
X114402714Y-76668761D01*
X114212238Y-76621142D01*
X114117000Y-76525904D01*
X114069381Y-76430666D01*
X115069381Y-75430666D02*
X115021762Y-75525904D01*
X114974143Y-75573523D01*
X114878905Y-75621142D01*
X114593190Y-75621142D01*
X114497952Y-75573523D01*
X114450333Y-75525904D01*
X114402714Y-75430666D01*
X114402714Y-75287808D01*
X114450333Y-75192570D01*
X114497952Y-75144951D01*
X114593190Y-75097332D01*
X114878905Y-75097332D01*
X114974143Y-75144951D01*
X115021762Y-75192570D01*
X115069381Y-75287808D01*
X115069381Y-75430666D01*
X115069381Y-74668761D02*
X114069381Y-74668761D01*
X114688429Y-74573523D02*
X115069381Y-74287808D01*
X114402714Y-74287808D02*
X114783667Y-74668761D01*
X115069381Y-73430665D02*
X114545571Y-73430665D01*
X114450333Y-73478284D01*
X114402714Y-73573522D01*
X114402714Y-73763999D01*
X114450333Y-73859237D01*
X115021762Y-73430665D02*
X115069381Y-73525903D01*
X115069381Y-73763999D01*
X115021762Y-73859237D01*
X114926524Y-73906856D01*
X114831286Y-73906856D01*
X114736048Y-73859237D01*
X114688429Y-73763999D01*
X114688429Y-73525903D01*
X114640810Y-73430665D01*
X114402714Y-73049713D02*
X115069381Y-72811618D01*
X114402714Y-72573522D02*
X115069381Y-72811618D01*
X115307476Y-72906856D01*
X115355095Y-72954475D01*
X115402714Y-73049713D01*
X115069381Y-71763998D02*
X114545571Y-71763998D01*
X114450333Y-71811617D01*
X114402714Y-71906855D01*
X114402714Y-72097332D01*
X114450333Y-72192570D01*
X115021762Y-71763998D02*
X115069381Y-71859236D01*
X115069381Y-72097332D01*
X115021762Y-72192570D01*
X114926524Y-72240189D01*
X114831286Y-72240189D01*
X114736048Y-72192570D01*
X114688429Y-72097332D01*
X114688429Y-71859236D01*
X114640810Y-71763998D01*
X115069381Y-71287808D02*
X114402714Y-71287808D01*
X114497952Y-71287808D02*
X114450333Y-71240189D01*
X114402714Y-71144951D01*
X114402714Y-71002093D01*
X114450333Y-70906855D01*
X114545571Y-70859236D01*
X115069381Y-70859236D01*
X114545571Y-70859236D02*
X114450333Y-70811617D01*
X114402714Y-70716379D01*
X114402714Y-70573522D01*
X114450333Y-70478284D01*
X114545571Y-70430665D01*
X115069381Y-70430665D01*
X115069381Y-69525903D02*
X114545571Y-69525903D01*
X114450333Y-69573522D01*
X114402714Y-69668760D01*
X114402714Y-69859237D01*
X114450333Y-69954475D01*
X115021762Y-69525903D02*
X115069381Y-69621141D01*
X115069381Y-69859237D01*
X115021762Y-69954475D01*
X114926524Y-70002094D01*
X114831286Y-70002094D01*
X114736048Y-69954475D01*
X114688429Y-69859237D01*
X114688429Y-69621141D01*
X114640810Y-69525903D01*
D12*
X123754571Y-74667000D02*
X124468857Y-74667000D01*
X123611714Y-75095571D02*
X124111714Y-73595571D01*
X124611714Y-75095571D01*
X125968857Y-75095571D02*
X125468857Y-74381286D01*
X125111714Y-75095571D02*
X125111714Y-73595571D01*
X125683142Y-73595571D01*
X125826000Y-73667000D01*
X125897428Y-73738429D01*
X125968857Y-73881286D01*
X125968857Y-74095571D01*
X125897428Y-74238429D01*
X125826000Y-74309857D01*
X125683142Y-74381286D01*
X125111714Y-74381286D01*
X126611714Y-75095571D02*
X126611714Y-73595571D01*
X126968857Y-73595571D01*
X127183142Y-73667000D01*
X127326000Y-73809857D01*
X127397428Y-73952714D01*
X127468857Y-74238429D01*
X127468857Y-74452714D01*
X127397428Y-74738429D01*
X127326000Y-74881286D01*
X127183142Y-75024143D01*
X126968857Y-75095571D01*
X126611714Y-75095571D01*
X128111714Y-73595571D02*
X128111714Y-74809857D01*
X128183142Y-74952714D01*
X128254571Y-75024143D01*
X128397428Y-75095571D01*
X128683142Y-75095571D01*
X128826000Y-75024143D01*
X128897428Y-74952714D01*
X128968857Y-74809857D01*
X128968857Y-73595571D01*
X129683143Y-75095571D02*
X129683143Y-73595571D01*
X130397429Y-75095571D02*
X130397429Y-73595571D01*
X131254572Y-75095571D01*
X131254572Y-73595571D01*
X132254572Y-73595571D02*
X132540286Y-73595571D01*
X132683144Y-73667000D01*
X132826001Y-73809857D01*
X132897429Y-74095571D01*
X132897429Y-74595571D01*
X132826001Y-74881286D01*
X132683144Y-75024143D01*
X132540286Y-75095571D01*
X132254572Y-75095571D01*
X132111715Y-75024143D01*
X131968858Y-74881286D01*
X131897429Y-74595571D01*
X131897429Y-74095571D01*
X131968858Y-73809857D01*
X132111715Y-73667000D01*
X132254572Y-73595571D01*
X134683144Y-75095571D02*
X134683144Y-73595571D01*
X135183144Y-74667000D01*
X135683144Y-73595571D01*
X135683144Y-75095571D01*
X136397430Y-74309857D02*
X136897430Y-74309857D01*
X137111716Y-75095571D02*
X136397430Y-75095571D01*
X136397430Y-73595571D01*
X137111716Y-73595571D01*
X138540287Y-73667000D02*
X138397430Y-73595571D01*
X138183144Y-73595571D01*
X137968859Y-73667000D01*
X137826001Y-73809857D01*
X137754573Y-73952714D01*
X137683144Y-74238429D01*
X137683144Y-74452714D01*
X137754573Y-74738429D01*
X137826001Y-74881286D01*
X137968859Y-75024143D01*
X138183144Y-75095571D01*
X138326001Y-75095571D01*
X138540287Y-75024143D01*
X138611716Y-74952714D01*
X138611716Y-74452714D01*
X138326001Y-74452714D01*
X139183144Y-74667000D02*
X139897430Y-74667000D01*
X139040287Y-75095571D02*
X139540287Y-73595571D01*
X140040287Y-75095571D01*
X123326000Y-76859857D02*
X122826000Y-76859857D01*
X122826000Y-77645571D02*
X122826000Y-76145571D01*
X123540286Y-76145571D01*
X124040285Y-77217000D02*
X124754571Y-77217000D01*
X123897428Y-77645571D02*
X124397428Y-76145571D01*
X124897428Y-77645571D01*
X125397428Y-77645571D02*
X125397428Y-76145571D01*
X125897428Y-77217000D01*
X126397428Y-76145571D01*
X126397428Y-77645571D01*
X127111714Y-77645571D02*
X127111714Y-76145571D01*
X128683143Y-77502714D02*
X128611714Y-77574143D01*
X128397428Y-77645571D01*
X128254571Y-77645571D01*
X128040286Y-77574143D01*
X127897428Y-77431286D01*
X127826000Y-77288429D01*
X127754571Y-77002714D01*
X127754571Y-76788429D01*
X127826000Y-76502714D01*
X127897428Y-76359857D01*
X128040286Y-76217000D01*
X128254571Y-76145571D01*
X128397428Y-76145571D01*
X128611714Y-76217000D01*
X128683143Y-76288429D01*
X129611714Y-76145571D02*
X129897428Y-76145571D01*
X130040286Y-76217000D01*
X130183143Y-76359857D01*
X130254571Y-76645571D01*
X130254571Y-77145571D01*
X130183143Y-77431286D01*
X130040286Y-77574143D01*
X129897428Y-77645571D01*
X129611714Y-77645571D01*
X129468857Y-77574143D01*
X129326000Y-77431286D01*
X129254571Y-77145571D01*
X129254571Y-76645571D01*
X129326000Y-76359857D01*
X129468857Y-76217000D01*
X129611714Y-76145571D01*
X130897429Y-77645571D02*
X130897429Y-76145571D01*
X131397429Y-77217000D01*
X131897429Y-76145571D01*
X131897429Y-77645571D01*
X133683143Y-77574143D02*
X133897429Y-77645571D01*
X134254572Y-77645571D01*
X134397429Y-77574143D01*
X134468858Y-77502714D01*
X134540286Y-77359857D01*
X134540286Y-77217000D01*
X134468858Y-77074143D01*
X134397429Y-77002714D01*
X134254572Y-76931286D01*
X133968858Y-76859857D01*
X133826000Y-76788429D01*
X133754572Y-76717000D01*
X133683143Y-76574143D01*
X133683143Y-76431286D01*
X133754572Y-76288429D01*
X133826000Y-76217000D01*
X133968858Y-76145571D01*
X134326000Y-76145571D01*
X134540286Y-76217000D01*
X135183143Y-77645571D02*
X135183143Y-76145571D01*
X135183143Y-76859857D02*
X136040286Y-76859857D01*
X136040286Y-77645571D02*
X136040286Y-76145571D01*
X136754572Y-77645571D02*
X136754572Y-76145571D01*
X137468858Y-76859857D02*
X137968858Y-76859857D01*
X138183144Y-77645571D02*
X137468858Y-77645571D01*
X137468858Y-76145571D01*
X138183144Y-76145571D01*
X139540287Y-77645571D02*
X138826001Y-77645571D01*
X138826001Y-76145571D01*
X140040287Y-77645571D02*
X140040287Y-76145571D01*
X140397430Y-76145571D01*
X140611715Y-76217000D01*
X140754573Y-76359857D01*
X140826001Y-76502714D01*
X140897430Y-76788429D01*
X140897430Y-77002714D01*
X140826001Y-77288429D01*
X140754573Y-77431286D01*
X140611715Y-77574143D01*
X140397430Y-77645571D01*
X140040287Y-77645571D01*
D10*
X179431905Y-99053524D02*
X178631905Y-99053524D01*
X178631905Y-98748762D01*
X178670000Y-98672571D01*
X178708095Y-98634476D01*
X178784286Y-98596381D01*
X178898571Y-98596381D01*
X178974762Y-98634476D01*
X179012857Y-98672571D01*
X179050952Y-98748762D01*
X179050952Y-99053524D01*
X179431905Y-98253524D02*
X178631905Y-98253524D01*
X179012857Y-98253524D02*
X179012857Y-97796381D01*
X179431905Y-97796381D02*
X178631905Y-97796381D01*
X178631905Y-97072572D02*
X178631905Y-97224953D01*
X178670000Y-97301143D01*
X178708095Y-97339238D01*
X178822381Y-97415429D01*
X178974762Y-97453524D01*
X179279524Y-97453524D01*
X179355714Y-97415429D01*
X179393810Y-97377334D01*
X179431905Y-97301143D01*
X179431905Y-97148762D01*
X179393810Y-97072572D01*
X179355714Y-97034476D01*
X179279524Y-96996381D01*
X179089048Y-96996381D01*
X179012857Y-97034476D01*
X178974762Y-97072572D01*
X178936667Y-97148762D01*
X178936667Y-97301143D01*
X178974762Y-97377334D01*
X179012857Y-97415429D01*
X179089048Y-97453524D01*
X181971905Y-99053524D02*
X181171905Y-99053524D01*
X181171905Y-98748762D01*
X181210000Y-98672571D01*
X181248095Y-98634476D01*
X181324286Y-98596381D01*
X181438571Y-98596381D01*
X181514762Y-98634476D01*
X181552857Y-98672571D01*
X181590952Y-98748762D01*
X181590952Y-99053524D01*
X181971905Y-98253524D02*
X181171905Y-98253524D01*
X181552857Y-98253524D02*
X181552857Y-97796381D01*
X181971905Y-97796381D02*
X181171905Y-97796381D01*
X181171905Y-97034476D02*
X181171905Y-97415429D01*
X181552857Y-97453524D01*
X181514762Y-97415429D01*
X181476667Y-97339238D01*
X181476667Y-97148762D01*
X181514762Y-97072572D01*
X181552857Y-97034476D01*
X181629048Y-96996381D01*
X181819524Y-96996381D01*
X181895714Y-97034476D01*
X181933810Y-97072572D01*
X181971905Y-97148762D01*
X181971905Y-97339238D01*
X181933810Y-97415429D01*
X181895714Y-97453524D01*
X184511905Y-99053524D02*
X183711905Y-99053524D01*
X183711905Y-98748762D01*
X183750000Y-98672571D01*
X183788095Y-98634476D01*
X183864286Y-98596381D01*
X183978571Y-98596381D01*
X184054762Y-98634476D01*
X184092857Y-98672571D01*
X184130952Y-98748762D01*
X184130952Y-99053524D01*
X184511905Y-98253524D02*
X183711905Y-98253524D01*
X184092857Y-98253524D02*
X184092857Y-97796381D01*
X184511905Y-97796381D02*
X183711905Y-97796381D01*
X183978571Y-97072572D02*
X184511905Y-97072572D01*
X183673810Y-97263048D02*
X184245238Y-97453524D01*
X184245238Y-96958286D01*
X187051905Y-99053524D02*
X186251905Y-99053524D01*
X186251905Y-98748762D01*
X186290000Y-98672571D01*
X186328095Y-98634476D01*
X186404286Y-98596381D01*
X186518571Y-98596381D01*
X186594762Y-98634476D01*
X186632857Y-98672571D01*
X186670952Y-98748762D01*
X186670952Y-99053524D01*
X187051905Y-98253524D02*
X186251905Y-98253524D01*
X186632857Y-98253524D02*
X186632857Y-97796381D01*
X187051905Y-97796381D02*
X186251905Y-97796381D01*
X186251905Y-97491619D02*
X186251905Y-96996381D01*
X186556667Y-97263048D01*
X186556667Y-97148762D01*
X186594762Y-97072572D01*
X186632857Y-97034476D01*
X186709048Y-96996381D01*
X186899524Y-96996381D01*
X186975714Y-97034476D01*
X187013810Y-97072572D01*
X187051905Y-97148762D01*
X187051905Y-97377334D01*
X187013810Y-97453524D01*
X186975714Y-97491619D01*
X189591905Y-99053524D02*
X188791905Y-99053524D01*
X188791905Y-98748762D01*
X188830000Y-98672571D01*
X188868095Y-98634476D01*
X188944286Y-98596381D01*
X189058571Y-98596381D01*
X189134762Y-98634476D01*
X189172857Y-98672571D01*
X189210952Y-98748762D01*
X189210952Y-99053524D01*
X189591905Y-98253524D02*
X188791905Y-98253524D01*
X189172857Y-98253524D02*
X189172857Y-97796381D01*
X189591905Y-97796381D02*
X188791905Y-97796381D01*
X189591905Y-96996381D02*
X189591905Y-97453524D01*
X189591905Y-97224953D02*
X188791905Y-97224953D01*
X188906190Y-97301143D01*
X188982381Y-97377334D01*
X189020476Y-97453524D01*
X192131905Y-99053524D02*
X191331905Y-99053524D01*
X191331905Y-98748762D01*
X191370000Y-98672571D01*
X191408095Y-98634476D01*
X191484286Y-98596381D01*
X191598571Y-98596381D01*
X191674762Y-98634476D01*
X191712857Y-98672571D01*
X191750952Y-98748762D01*
X191750952Y-99053524D01*
X192131905Y-98253524D02*
X191331905Y-98253524D01*
X191712857Y-98253524D02*
X191712857Y-97796381D01*
X192131905Y-97796381D02*
X191331905Y-97796381D01*
X191331905Y-97263048D02*
X191331905Y-97186857D01*
X191370000Y-97110667D01*
X191408095Y-97072572D01*
X191484286Y-97034476D01*
X191636667Y-96996381D01*
X191827143Y-96996381D01*
X191979524Y-97034476D01*
X192055714Y-97072572D01*
X192093810Y-97110667D01*
X192131905Y-97186857D01*
X192131905Y-97263048D01*
X192093810Y-97339238D01*
X192055714Y-97377334D01*
X191979524Y-97415429D01*
X191827143Y-97453524D01*
X191636667Y-97453524D01*
X191484286Y-97415429D01*
X191408095Y-97377334D01*
X191370000Y-97339238D01*
X191331905Y-97263048D01*
X176891905Y-98958286D02*
X176091905Y-98958286D01*
X176091905Y-98653524D01*
X176130000Y-98577333D01*
X176168095Y-98539238D01*
X176244286Y-98501143D01*
X176358571Y-98501143D01*
X176434762Y-98539238D01*
X176472857Y-98577333D01*
X176510952Y-98653524D01*
X176510952Y-98958286D01*
X176891905Y-97777333D02*
X176891905Y-98158286D01*
X176091905Y-98158286D01*
X176091905Y-97358286D02*
X176091905Y-97282095D01*
X176130000Y-97205905D01*
X176168095Y-97167810D01*
X176244286Y-97129714D01*
X176396667Y-97091619D01*
X176587143Y-97091619D01*
X176739524Y-97129714D01*
X176815714Y-97167810D01*
X176853810Y-97205905D01*
X176891905Y-97282095D01*
X176891905Y-97358286D01*
X176853810Y-97434476D01*
X176815714Y-97472572D01*
X176739524Y-97510667D01*
X176587143Y-97548762D01*
X176396667Y-97548762D01*
X176244286Y-97510667D01*
X176168095Y-97472572D01*
X176130000Y-97434476D01*
X176091905Y-97358286D01*
X159111905Y-98958286D02*
X158311905Y-98958286D01*
X158311905Y-98653524D01*
X158350000Y-98577333D01*
X158388095Y-98539238D01*
X158464286Y-98501143D01*
X158578571Y-98501143D01*
X158654762Y-98539238D01*
X158692857Y-98577333D01*
X158730952Y-98653524D01*
X158730952Y-98958286D01*
X159111905Y-97777333D02*
X159111905Y-98158286D01*
X158311905Y-98158286D01*
X158311905Y-97586857D02*
X158311905Y-97053524D01*
X159111905Y-97396381D01*
X159111905Y-106654476D02*
X158311905Y-106654476D01*
X158311905Y-106349714D01*
X158350000Y-106273523D01*
X158388095Y-106235428D01*
X158464286Y-106197333D01*
X158578571Y-106197333D01*
X158654762Y-106235428D01*
X158692857Y-106273523D01*
X158730952Y-106349714D01*
X158730952Y-106654476D01*
X159111905Y-105854476D02*
X158311905Y-105854476D01*
X159111905Y-105397333D02*
X158654762Y-105740190D01*
X158311905Y-105397333D02*
X158769048Y-105854476D01*
X158311905Y-105130666D02*
X158311905Y-104597333D01*
X159111905Y-104940190D01*
X176891905Y-106654476D02*
X176091905Y-106654476D01*
X176091905Y-106349714D01*
X176130000Y-106273523D01*
X176168095Y-106235428D01*
X176244286Y-106197333D01*
X176358571Y-106197333D01*
X176434762Y-106235428D01*
X176472857Y-106273523D01*
X176510952Y-106349714D01*
X176510952Y-106654476D01*
X176891905Y-105854476D02*
X176091905Y-105854476D01*
X176891905Y-105397333D02*
X176434762Y-105740190D01*
X176091905Y-105397333D02*
X176549048Y-105854476D01*
X176091905Y-104902095D02*
X176091905Y-104825904D01*
X176130000Y-104749714D01*
X176168095Y-104711619D01*
X176244286Y-104673523D01*
X176396667Y-104635428D01*
X176587143Y-104635428D01*
X176739524Y-104673523D01*
X176815714Y-104711619D01*
X176853810Y-104749714D01*
X176891905Y-104825904D01*
X176891905Y-104902095D01*
X176853810Y-104978285D01*
X176815714Y-105016381D01*
X176739524Y-105054476D01*
X176587143Y-105092571D01*
X176396667Y-105092571D01*
X176244286Y-105054476D01*
X176168095Y-105016381D01*
X176130000Y-104978285D01*
X176091905Y-104902095D01*
X118471905Y-106597333D02*
X117671905Y-106597333D01*
X117671905Y-106292571D01*
X117710000Y-106216380D01*
X117748095Y-106178285D01*
X117824286Y-106140190D01*
X117938571Y-106140190D01*
X118014762Y-106178285D01*
X118052857Y-106216380D01*
X118090952Y-106292571D01*
X118090952Y-106597333D01*
X118052857Y-105530666D02*
X118052857Y-105797333D01*
X118471905Y-105797333D02*
X117671905Y-105797333D01*
X117671905Y-105416380D01*
X117671905Y-105187809D02*
X117671905Y-104654476D01*
X118471905Y-104997333D01*
X136251905Y-106597333D02*
X135451905Y-106597333D01*
X135451905Y-106292571D01*
X135490000Y-106216380D01*
X135528095Y-106178285D01*
X135604286Y-106140190D01*
X135718571Y-106140190D01*
X135794762Y-106178285D01*
X135832857Y-106216380D01*
X135870952Y-106292571D01*
X135870952Y-106597333D01*
X135832857Y-105530666D02*
X135832857Y-105797333D01*
X136251905Y-105797333D02*
X135451905Y-105797333D01*
X135451905Y-105416380D01*
X135451905Y-104959238D02*
X135451905Y-104883047D01*
X135490000Y-104806857D01*
X135528095Y-104768762D01*
X135604286Y-104730666D01*
X135756667Y-104692571D01*
X135947143Y-104692571D01*
X136099524Y-104730666D01*
X136175714Y-104768762D01*
X136213810Y-104806857D01*
X136251905Y-104883047D01*
X136251905Y-104959238D01*
X136213810Y-105035428D01*
X136175714Y-105073524D01*
X136099524Y-105111619D01*
X135947143Y-105149714D01*
X135756667Y-105149714D01*
X135604286Y-105111619D01*
X135528095Y-105073524D01*
X135490000Y-105035428D01*
X135451905Y-104959238D01*
X115931905Y-99034476D02*
X115131905Y-99034476D01*
X115131905Y-98729714D01*
X115170000Y-98653523D01*
X115208095Y-98615428D01*
X115284286Y-98577333D01*
X115398571Y-98577333D01*
X115474762Y-98615428D01*
X115512857Y-98653523D01*
X115550952Y-98729714D01*
X115550952Y-99034476D01*
X115855714Y-97777333D02*
X115893810Y-97815428D01*
X115931905Y-97929714D01*
X115931905Y-98005904D01*
X115893810Y-98120190D01*
X115817619Y-98196381D01*
X115741429Y-98234476D01*
X115589048Y-98272571D01*
X115474762Y-98272571D01*
X115322381Y-98234476D01*
X115246190Y-98196381D01*
X115170000Y-98120190D01*
X115131905Y-98005904D01*
X115131905Y-97929714D01*
X115170000Y-97815428D01*
X115208095Y-97777333D01*
X115131905Y-97091619D02*
X115131905Y-97244000D01*
X115170000Y-97320190D01*
X115208095Y-97358285D01*
X115322381Y-97434476D01*
X115474762Y-97472571D01*
X115779524Y-97472571D01*
X115855714Y-97434476D01*
X115893810Y-97396381D01*
X115931905Y-97320190D01*
X115931905Y-97167809D01*
X115893810Y-97091619D01*
X115855714Y-97053523D01*
X115779524Y-97015428D01*
X115589048Y-97015428D01*
X115512857Y-97053523D01*
X115474762Y-97091619D01*
X115436667Y-97167809D01*
X115436667Y-97320190D01*
X115474762Y-97396381D01*
X115512857Y-97434476D01*
X115589048Y-97472571D01*
X131171905Y-99034476D02*
X130371905Y-99034476D01*
X130371905Y-98729714D01*
X130410000Y-98653523D01*
X130448095Y-98615428D01*
X130524286Y-98577333D01*
X130638571Y-98577333D01*
X130714762Y-98615428D01*
X130752857Y-98653523D01*
X130790952Y-98729714D01*
X130790952Y-99034476D01*
X131095714Y-97777333D02*
X131133810Y-97815428D01*
X131171905Y-97929714D01*
X131171905Y-98005904D01*
X131133810Y-98120190D01*
X131057619Y-98196381D01*
X130981429Y-98234476D01*
X130829048Y-98272571D01*
X130714762Y-98272571D01*
X130562381Y-98234476D01*
X130486190Y-98196381D01*
X130410000Y-98120190D01*
X130371905Y-98005904D01*
X130371905Y-97929714D01*
X130410000Y-97815428D01*
X130448095Y-97777333D01*
X130371905Y-97282095D02*
X130371905Y-97205904D01*
X130410000Y-97129714D01*
X130448095Y-97091619D01*
X130524286Y-97053523D01*
X130676667Y-97015428D01*
X130867143Y-97015428D01*
X131019524Y-97053523D01*
X131095714Y-97091619D01*
X131133810Y-97129714D01*
X131171905Y-97205904D01*
X131171905Y-97282095D01*
X131133810Y-97358285D01*
X131095714Y-97396381D01*
X131019524Y-97434476D01*
X130867143Y-97472571D01*
X130676667Y-97472571D01*
X130524286Y-97434476D01*
X130448095Y-97396381D01*
X130410000Y-97358285D01*
X130371905Y-97282095D01*
X133711905Y-98977333D02*
X132911905Y-98977333D01*
X132911905Y-98672571D01*
X132950000Y-98596380D01*
X132988095Y-98558285D01*
X133064286Y-98520190D01*
X133178571Y-98520190D01*
X133254762Y-98558285D01*
X133292857Y-98596380D01*
X133330952Y-98672571D01*
X133330952Y-98977333D01*
X133483333Y-98215428D02*
X133483333Y-97834476D01*
X133711905Y-98291619D02*
X132911905Y-98024952D01*
X133711905Y-97758285D01*
X132911905Y-97567809D02*
X132911905Y-97034476D01*
X133711905Y-97377333D01*
X151491905Y-98977333D02*
X150691905Y-98977333D01*
X150691905Y-98672571D01*
X150730000Y-98596380D01*
X150768095Y-98558285D01*
X150844286Y-98520190D01*
X150958571Y-98520190D01*
X151034762Y-98558285D01*
X151072857Y-98596380D01*
X151110952Y-98672571D01*
X151110952Y-98977333D01*
X151263333Y-98215428D02*
X151263333Y-97834476D01*
X151491905Y-98291619D02*
X150691905Y-98024952D01*
X151491905Y-97758285D01*
X150691905Y-97339238D02*
X150691905Y-97263047D01*
X150730000Y-97186857D01*
X150768095Y-97148762D01*
X150844286Y-97110666D01*
X150996667Y-97072571D01*
X151187143Y-97072571D01*
X151339524Y-97110666D01*
X151415714Y-97148762D01*
X151453810Y-97186857D01*
X151491905Y-97263047D01*
X151491905Y-97339238D01*
X151453810Y-97415428D01*
X151415714Y-97453524D01*
X151339524Y-97491619D01*
X151187143Y-97529714D01*
X150996667Y-97529714D01*
X150844286Y-97491619D01*
X150768095Y-97453524D01*
X150730000Y-97415428D01*
X150691905Y-97339238D01*
X179431905Y-81508476D02*
X178631905Y-81508476D01*
X178631905Y-81203714D01*
X178670000Y-81127523D01*
X178708095Y-81089428D01*
X178784286Y-81051333D01*
X178898571Y-81051333D01*
X178974762Y-81089428D01*
X179012857Y-81127523D01*
X179050952Y-81203714D01*
X179050952Y-81508476D01*
X179012857Y-80441809D02*
X179050952Y-80327523D01*
X179089048Y-80289428D01*
X179165238Y-80251333D01*
X179279524Y-80251333D01*
X179355714Y-80289428D01*
X179393810Y-80327523D01*
X179431905Y-80403714D01*
X179431905Y-80708476D01*
X178631905Y-80708476D01*
X178631905Y-80441809D01*
X178670000Y-80365619D01*
X178708095Y-80327523D01*
X178784286Y-80289428D01*
X178860476Y-80289428D01*
X178936667Y-80327523D01*
X178974762Y-80365619D01*
X179012857Y-80441809D01*
X179012857Y-80708476D01*
X178898571Y-79565619D02*
X179431905Y-79565619D01*
X178593810Y-79756095D02*
X179165238Y-79946571D01*
X179165238Y-79451333D01*
X176891905Y-81508476D02*
X176091905Y-81508476D01*
X176091905Y-81203714D01*
X176130000Y-81127523D01*
X176168095Y-81089428D01*
X176244286Y-81051333D01*
X176358571Y-81051333D01*
X176434762Y-81089428D01*
X176472857Y-81127523D01*
X176510952Y-81203714D01*
X176510952Y-81508476D01*
X176472857Y-80441809D02*
X176510952Y-80327523D01*
X176549048Y-80289428D01*
X176625238Y-80251333D01*
X176739524Y-80251333D01*
X176815714Y-80289428D01*
X176853810Y-80327523D01*
X176891905Y-80403714D01*
X176891905Y-80708476D01*
X176091905Y-80708476D01*
X176091905Y-80441809D01*
X176130000Y-80365619D01*
X176168095Y-80327523D01*
X176244286Y-80289428D01*
X176320476Y-80289428D01*
X176396667Y-80327523D01*
X176434762Y-80365619D01*
X176472857Y-80441809D01*
X176472857Y-80708476D01*
X176091905Y-79527523D02*
X176091905Y-79908476D01*
X176472857Y-79946571D01*
X176434762Y-79908476D01*
X176396667Y-79832285D01*
X176396667Y-79641809D01*
X176434762Y-79565619D01*
X176472857Y-79527523D01*
X176549048Y-79489428D01*
X176739524Y-79489428D01*
X176815714Y-79527523D01*
X176853810Y-79565619D01*
X176891905Y-79641809D01*
X176891905Y-79832285D01*
X176853810Y-79908476D01*
X176815714Y-79946571D01*
X174351905Y-81508476D02*
X173551905Y-81508476D01*
X173551905Y-81203714D01*
X173590000Y-81127523D01*
X173628095Y-81089428D01*
X173704286Y-81051333D01*
X173818571Y-81051333D01*
X173894762Y-81089428D01*
X173932857Y-81127523D01*
X173970952Y-81203714D01*
X173970952Y-81508476D01*
X173932857Y-80441809D02*
X173970952Y-80327523D01*
X174009048Y-80289428D01*
X174085238Y-80251333D01*
X174199524Y-80251333D01*
X174275714Y-80289428D01*
X174313810Y-80327523D01*
X174351905Y-80403714D01*
X174351905Y-80708476D01*
X173551905Y-80708476D01*
X173551905Y-80441809D01*
X173590000Y-80365619D01*
X173628095Y-80327523D01*
X173704286Y-80289428D01*
X173780476Y-80289428D01*
X173856667Y-80327523D01*
X173894762Y-80365619D01*
X173932857Y-80441809D01*
X173932857Y-80708476D01*
X173551905Y-79565619D02*
X173551905Y-79718000D01*
X173590000Y-79794190D01*
X173628095Y-79832285D01*
X173742381Y-79908476D01*
X173894762Y-79946571D01*
X174199524Y-79946571D01*
X174275714Y-79908476D01*
X174313810Y-79870381D01*
X174351905Y-79794190D01*
X174351905Y-79641809D01*
X174313810Y-79565619D01*
X174275714Y-79527523D01*
X174199524Y-79489428D01*
X174009048Y-79489428D01*
X173932857Y-79527523D01*
X173894762Y-79565619D01*
X173856667Y-79641809D01*
X173856667Y-79794190D01*
X173894762Y-79870381D01*
X173932857Y-79908476D01*
X174009048Y-79946571D01*
X171811905Y-81508476D02*
X171011905Y-81508476D01*
X171011905Y-81203714D01*
X171050000Y-81127523D01*
X171088095Y-81089428D01*
X171164286Y-81051333D01*
X171278571Y-81051333D01*
X171354762Y-81089428D01*
X171392857Y-81127523D01*
X171430952Y-81203714D01*
X171430952Y-81508476D01*
X171392857Y-80441809D02*
X171430952Y-80327523D01*
X171469048Y-80289428D01*
X171545238Y-80251333D01*
X171659524Y-80251333D01*
X171735714Y-80289428D01*
X171773810Y-80327523D01*
X171811905Y-80403714D01*
X171811905Y-80708476D01*
X171011905Y-80708476D01*
X171011905Y-80441809D01*
X171050000Y-80365619D01*
X171088095Y-80327523D01*
X171164286Y-80289428D01*
X171240476Y-80289428D01*
X171316667Y-80327523D01*
X171354762Y-80365619D01*
X171392857Y-80441809D01*
X171392857Y-80708476D01*
X171011905Y-79984666D02*
X171011905Y-79451333D01*
X171811905Y-79794190D01*
X169271905Y-81508476D02*
X168471905Y-81508476D01*
X168471905Y-81203714D01*
X168510000Y-81127523D01*
X168548095Y-81089428D01*
X168624286Y-81051333D01*
X168738571Y-81051333D01*
X168814762Y-81089428D01*
X168852857Y-81127523D01*
X168890952Y-81203714D01*
X168890952Y-81508476D01*
X169271905Y-80708476D02*
X168471905Y-80708476D01*
X168471905Y-80518000D01*
X168510000Y-80403714D01*
X168586190Y-80327523D01*
X168662381Y-80289428D01*
X168814762Y-80251333D01*
X168929048Y-80251333D01*
X169081429Y-80289428D01*
X169157619Y-80327523D01*
X169233810Y-80403714D01*
X169271905Y-80518000D01*
X169271905Y-80708476D01*
X168471905Y-79756095D02*
X168471905Y-79679904D01*
X168510000Y-79603714D01*
X168548095Y-79565619D01*
X168624286Y-79527523D01*
X168776667Y-79489428D01*
X168967143Y-79489428D01*
X169119524Y-79527523D01*
X169195714Y-79565619D01*
X169233810Y-79603714D01*
X169271905Y-79679904D01*
X169271905Y-79756095D01*
X169233810Y-79832285D01*
X169195714Y-79870381D01*
X169119524Y-79908476D01*
X168967143Y-79946571D01*
X168776667Y-79946571D01*
X168624286Y-79908476D01*
X168548095Y-79870381D01*
X168510000Y-79832285D01*
X168471905Y-79756095D01*
X166731905Y-81508476D02*
X165931905Y-81508476D01*
X165931905Y-81203714D01*
X165970000Y-81127523D01*
X166008095Y-81089428D01*
X166084286Y-81051333D01*
X166198571Y-81051333D01*
X166274762Y-81089428D01*
X166312857Y-81127523D01*
X166350952Y-81203714D01*
X166350952Y-81508476D01*
X166731905Y-80708476D02*
X165931905Y-80708476D01*
X165931905Y-80518000D01*
X165970000Y-80403714D01*
X166046190Y-80327523D01*
X166122381Y-80289428D01*
X166274762Y-80251333D01*
X166389048Y-80251333D01*
X166541429Y-80289428D01*
X166617619Y-80327523D01*
X166693810Y-80403714D01*
X166731905Y-80518000D01*
X166731905Y-80708476D01*
X166731905Y-79489428D02*
X166731905Y-79946571D01*
X166731905Y-79718000D02*
X165931905Y-79718000D01*
X166046190Y-79794190D01*
X166122381Y-79870381D01*
X166160476Y-79946571D01*
X164191905Y-81508476D02*
X163391905Y-81508476D01*
X163391905Y-81203714D01*
X163430000Y-81127523D01*
X163468095Y-81089428D01*
X163544286Y-81051333D01*
X163658571Y-81051333D01*
X163734762Y-81089428D01*
X163772857Y-81127523D01*
X163810952Y-81203714D01*
X163810952Y-81508476D01*
X164191905Y-80708476D02*
X163391905Y-80708476D01*
X163391905Y-80518000D01*
X163430000Y-80403714D01*
X163506190Y-80327523D01*
X163582381Y-80289428D01*
X163734762Y-80251333D01*
X163849048Y-80251333D01*
X164001429Y-80289428D01*
X164077619Y-80327523D01*
X164153810Y-80403714D01*
X164191905Y-80518000D01*
X164191905Y-80708476D01*
X163468095Y-79946571D02*
X163430000Y-79908476D01*
X163391905Y-79832285D01*
X163391905Y-79641809D01*
X163430000Y-79565619D01*
X163468095Y-79527523D01*
X163544286Y-79489428D01*
X163620476Y-79489428D01*
X163734762Y-79527523D01*
X164191905Y-79984666D01*
X164191905Y-79489428D01*
X161651905Y-81508476D02*
X160851905Y-81508476D01*
X160851905Y-81203714D01*
X160890000Y-81127523D01*
X160928095Y-81089428D01*
X161004286Y-81051333D01*
X161118571Y-81051333D01*
X161194762Y-81089428D01*
X161232857Y-81127523D01*
X161270952Y-81203714D01*
X161270952Y-81508476D01*
X161651905Y-80708476D02*
X160851905Y-80708476D01*
X160851905Y-80518000D01*
X160890000Y-80403714D01*
X160966190Y-80327523D01*
X161042381Y-80289428D01*
X161194762Y-80251333D01*
X161309048Y-80251333D01*
X161461429Y-80289428D01*
X161537619Y-80327523D01*
X161613810Y-80403714D01*
X161651905Y-80518000D01*
X161651905Y-80708476D01*
X160851905Y-79984666D02*
X160851905Y-79489428D01*
X161156667Y-79756095D01*
X161156667Y-79641809D01*
X161194762Y-79565619D01*
X161232857Y-79527523D01*
X161309048Y-79489428D01*
X161499524Y-79489428D01*
X161575714Y-79527523D01*
X161613810Y-79565619D01*
X161651905Y-79641809D01*
X161651905Y-79870381D01*
X161613810Y-79946571D01*
X161575714Y-79984666D01*
X159111905Y-81508476D02*
X158311905Y-81508476D01*
X158311905Y-81203714D01*
X158350000Y-81127523D01*
X158388095Y-81089428D01*
X158464286Y-81051333D01*
X158578571Y-81051333D01*
X158654762Y-81089428D01*
X158692857Y-81127523D01*
X158730952Y-81203714D01*
X158730952Y-81508476D01*
X159111905Y-80708476D02*
X158311905Y-80708476D01*
X158311905Y-80518000D01*
X158350000Y-80403714D01*
X158426190Y-80327523D01*
X158502381Y-80289428D01*
X158654762Y-80251333D01*
X158769048Y-80251333D01*
X158921429Y-80289428D01*
X158997619Y-80327523D01*
X159073810Y-80403714D01*
X159111905Y-80518000D01*
X159111905Y-80708476D01*
X158311905Y-79984666D02*
X158311905Y-79451333D01*
X159111905Y-79794190D01*
X156571905Y-81508476D02*
X155771905Y-81508476D01*
X155771905Y-81203714D01*
X155810000Y-81127523D01*
X155848095Y-81089428D01*
X155924286Y-81051333D01*
X156038571Y-81051333D01*
X156114762Y-81089428D01*
X156152857Y-81127523D01*
X156190952Y-81203714D01*
X156190952Y-81508476D01*
X155810000Y-80289428D02*
X155771905Y-80365619D01*
X155771905Y-80479904D01*
X155810000Y-80594190D01*
X155886190Y-80670381D01*
X155962381Y-80708476D01*
X156114762Y-80746571D01*
X156229048Y-80746571D01*
X156381429Y-80708476D01*
X156457619Y-80670381D01*
X156533810Y-80594190D01*
X156571905Y-80479904D01*
X156571905Y-80403714D01*
X156533810Y-80289428D01*
X156495714Y-80251333D01*
X156229048Y-80251333D01*
X156229048Y-80403714D01*
X155771905Y-79756095D02*
X155771905Y-79679904D01*
X155810000Y-79603714D01*
X155848095Y-79565619D01*
X155924286Y-79527523D01*
X156076667Y-79489428D01*
X156267143Y-79489428D01*
X156419524Y-79527523D01*
X156495714Y-79565619D01*
X156533810Y-79603714D01*
X156571905Y-79679904D01*
X156571905Y-79756095D01*
X156533810Y-79832285D01*
X156495714Y-79870381D01*
X156419524Y-79908476D01*
X156267143Y-79946571D01*
X156076667Y-79946571D01*
X155924286Y-79908476D01*
X155848095Y-79870381D01*
X155810000Y-79832285D01*
X155771905Y-79756095D01*
X154031905Y-81508476D02*
X153231905Y-81508476D01*
X153231905Y-81203714D01*
X153270000Y-81127523D01*
X153308095Y-81089428D01*
X153384286Y-81051333D01*
X153498571Y-81051333D01*
X153574762Y-81089428D01*
X153612857Y-81127523D01*
X153650952Y-81203714D01*
X153650952Y-81508476D01*
X153270000Y-80289428D02*
X153231905Y-80365619D01*
X153231905Y-80479904D01*
X153270000Y-80594190D01*
X153346190Y-80670381D01*
X153422381Y-80708476D01*
X153574762Y-80746571D01*
X153689048Y-80746571D01*
X153841429Y-80708476D01*
X153917619Y-80670381D01*
X153993810Y-80594190D01*
X154031905Y-80479904D01*
X154031905Y-80403714D01*
X153993810Y-80289428D01*
X153955714Y-80251333D01*
X153689048Y-80251333D01*
X153689048Y-80403714D01*
X154031905Y-79489428D02*
X154031905Y-79946571D01*
X154031905Y-79718000D02*
X153231905Y-79718000D01*
X153346190Y-79794190D01*
X153422381Y-79870381D01*
X153460476Y-79946571D01*
X151491905Y-81508476D02*
X150691905Y-81508476D01*
X150691905Y-81203714D01*
X150730000Y-81127523D01*
X150768095Y-81089428D01*
X150844286Y-81051333D01*
X150958571Y-81051333D01*
X151034762Y-81089428D01*
X151072857Y-81127523D01*
X151110952Y-81203714D01*
X151110952Y-81508476D01*
X150730000Y-80289428D02*
X150691905Y-80365619D01*
X150691905Y-80479904D01*
X150730000Y-80594190D01*
X150806190Y-80670381D01*
X150882381Y-80708476D01*
X151034762Y-80746571D01*
X151149048Y-80746571D01*
X151301429Y-80708476D01*
X151377619Y-80670381D01*
X151453810Y-80594190D01*
X151491905Y-80479904D01*
X151491905Y-80403714D01*
X151453810Y-80289428D01*
X151415714Y-80251333D01*
X151149048Y-80251333D01*
X151149048Y-80403714D01*
X150768095Y-79946571D02*
X150730000Y-79908476D01*
X150691905Y-79832285D01*
X150691905Y-79641809D01*
X150730000Y-79565619D01*
X150768095Y-79527523D01*
X150844286Y-79489428D01*
X150920476Y-79489428D01*
X151034762Y-79527523D01*
X151491905Y-79984666D01*
X151491905Y-79489428D01*
X148951905Y-81508476D02*
X148151905Y-81508476D01*
X148151905Y-81203714D01*
X148190000Y-81127523D01*
X148228095Y-81089428D01*
X148304286Y-81051333D01*
X148418571Y-81051333D01*
X148494762Y-81089428D01*
X148532857Y-81127523D01*
X148570952Y-81203714D01*
X148570952Y-81508476D01*
X148190000Y-80289428D02*
X148151905Y-80365619D01*
X148151905Y-80479904D01*
X148190000Y-80594190D01*
X148266190Y-80670381D01*
X148342381Y-80708476D01*
X148494762Y-80746571D01*
X148609048Y-80746571D01*
X148761429Y-80708476D01*
X148837619Y-80670381D01*
X148913810Y-80594190D01*
X148951905Y-80479904D01*
X148951905Y-80403714D01*
X148913810Y-80289428D01*
X148875714Y-80251333D01*
X148609048Y-80251333D01*
X148609048Y-80403714D01*
X148151905Y-79527523D02*
X148151905Y-79908476D01*
X148532857Y-79946571D01*
X148494762Y-79908476D01*
X148456667Y-79832285D01*
X148456667Y-79641809D01*
X148494762Y-79565619D01*
X148532857Y-79527523D01*
X148609048Y-79489428D01*
X148799524Y-79489428D01*
X148875714Y-79527523D01*
X148913810Y-79565619D01*
X148951905Y-79641809D01*
X148951905Y-79832285D01*
X148913810Y-79908476D01*
X148875714Y-79946571D01*
X146411905Y-81413238D02*
X145611905Y-81413238D01*
X145611905Y-81108476D01*
X145650000Y-81032285D01*
X145688095Y-80994190D01*
X145764286Y-80956095D01*
X145878571Y-80956095D01*
X145954762Y-80994190D01*
X145992857Y-81032285D01*
X146030952Y-81108476D01*
X146030952Y-81413238D01*
X145611905Y-80384666D02*
X146183333Y-80384666D01*
X146297619Y-80422762D01*
X146373810Y-80498952D01*
X146411905Y-80613238D01*
X146411905Y-80689428D01*
X145611905Y-79851333D02*
X145611905Y-79775142D01*
X145650000Y-79698952D01*
X145688095Y-79660857D01*
X145764286Y-79622761D01*
X145916667Y-79584666D01*
X146107143Y-79584666D01*
X146259524Y-79622761D01*
X146335714Y-79660857D01*
X146373810Y-79698952D01*
X146411905Y-79775142D01*
X146411905Y-79851333D01*
X146373810Y-79927523D01*
X146335714Y-79965619D01*
X146259524Y-80003714D01*
X146107143Y-80041809D01*
X145916667Y-80041809D01*
X145764286Y-80003714D01*
X145688095Y-79965619D01*
X145650000Y-79927523D01*
X145611905Y-79851333D01*
X143871905Y-81413238D02*
X143071905Y-81413238D01*
X143071905Y-81108476D01*
X143110000Y-81032285D01*
X143148095Y-80994190D01*
X143224286Y-80956095D01*
X143338571Y-80956095D01*
X143414762Y-80994190D01*
X143452857Y-81032285D01*
X143490952Y-81108476D01*
X143490952Y-81413238D01*
X143071905Y-80384666D02*
X143643333Y-80384666D01*
X143757619Y-80422762D01*
X143833810Y-80498952D01*
X143871905Y-80613238D01*
X143871905Y-80689428D01*
X143871905Y-79584666D02*
X143871905Y-80041809D01*
X143871905Y-79813238D02*
X143071905Y-79813238D01*
X143186190Y-79889428D01*
X143262381Y-79965619D01*
X143300476Y-80041809D01*
X171811905Y-88836381D02*
X171011905Y-88836381D01*
X171011905Y-88531619D01*
X171050000Y-88455428D01*
X171088095Y-88417333D01*
X171164286Y-88379238D01*
X171278571Y-88379238D01*
X171354762Y-88417333D01*
X171392857Y-88455428D01*
X171430952Y-88531619D01*
X171430952Y-88836381D01*
X171392857Y-88036381D02*
X171392857Y-87769714D01*
X171811905Y-87655428D02*
X171811905Y-88036381D01*
X171011905Y-88036381D01*
X171011905Y-87655428D01*
X171011905Y-86931618D02*
X171011905Y-87312571D01*
X171392857Y-87350666D01*
X171354762Y-87312571D01*
X171316667Y-87236380D01*
X171316667Y-87045904D01*
X171354762Y-86969714D01*
X171392857Y-86931618D01*
X171469048Y-86893523D01*
X171659524Y-86893523D01*
X171735714Y-86931618D01*
X171773810Y-86969714D01*
X171811905Y-87045904D01*
X171811905Y-87236380D01*
X171773810Y-87312571D01*
X171735714Y-87350666D01*
X174351905Y-88836381D02*
X173551905Y-88836381D01*
X173551905Y-88531619D01*
X173590000Y-88455428D01*
X173628095Y-88417333D01*
X173704286Y-88379238D01*
X173818571Y-88379238D01*
X173894762Y-88417333D01*
X173932857Y-88455428D01*
X173970952Y-88531619D01*
X173970952Y-88836381D01*
X173932857Y-88036381D02*
X173932857Y-87769714D01*
X174351905Y-87655428D02*
X174351905Y-88036381D01*
X173551905Y-88036381D01*
X173551905Y-87655428D01*
X173818571Y-86969714D02*
X174351905Y-86969714D01*
X173513810Y-87160190D02*
X174085238Y-87350666D01*
X174085238Y-86855428D01*
X176891905Y-88836381D02*
X176091905Y-88836381D01*
X176091905Y-88531619D01*
X176130000Y-88455428D01*
X176168095Y-88417333D01*
X176244286Y-88379238D01*
X176358571Y-88379238D01*
X176434762Y-88417333D01*
X176472857Y-88455428D01*
X176510952Y-88531619D01*
X176510952Y-88836381D01*
X176472857Y-88036381D02*
X176472857Y-87769714D01*
X176891905Y-87655428D02*
X176891905Y-88036381D01*
X176091905Y-88036381D01*
X176091905Y-87655428D01*
X176091905Y-87388761D02*
X176091905Y-86893523D01*
X176396667Y-87160190D01*
X176396667Y-87045904D01*
X176434762Y-86969714D01*
X176472857Y-86931618D01*
X176549048Y-86893523D01*
X176739524Y-86893523D01*
X176815714Y-86931618D01*
X176853810Y-86969714D01*
X176891905Y-87045904D01*
X176891905Y-87274476D01*
X176853810Y-87350666D01*
X176815714Y-87388761D01*
X179431905Y-88874476D02*
X178631905Y-88874476D01*
X178631905Y-88569714D01*
X178670000Y-88493523D01*
X178708095Y-88455428D01*
X178784286Y-88417333D01*
X178898571Y-88417333D01*
X178974762Y-88455428D01*
X179012857Y-88493523D01*
X179050952Y-88569714D01*
X179050952Y-88874476D01*
X179355714Y-87617333D02*
X179393810Y-87655428D01*
X179431905Y-87769714D01*
X179431905Y-87845904D01*
X179393810Y-87960190D01*
X179317619Y-88036381D01*
X179241429Y-88074476D01*
X179089048Y-88112571D01*
X178974762Y-88112571D01*
X178822381Y-88074476D01*
X178746190Y-88036381D01*
X178670000Y-87960190D01*
X178631905Y-87845904D01*
X178631905Y-87769714D01*
X178670000Y-87655428D01*
X178708095Y-87617333D01*
X178631905Y-87350666D02*
X178631905Y-86817333D01*
X179431905Y-87160190D01*
D11*
X158154762Y-90606381D02*
X159440476Y-91463524D01*
X159202381Y-90273048D02*
X158202381Y-90273048D01*
X158202381Y-89892095D01*
X158250000Y-89796857D01*
X158297619Y-89749238D01*
X158392857Y-89701619D01*
X158535714Y-89701619D01*
X158630952Y-89749238D01*
X158678571Y-89796857D01*
X158726190Y-89892095D01*
X158726190Y-90273048D01*
X158916667Y-89320667D02*
X158916667Y-88844476D01*
X159202381Y-89415905D02*
X158202381Y-89082572D01*
X159202381Y-88749238D01*
X159202381Y-87892095D02*
X159202381Y-88463524D01*
X159202381Y-88177810D02*
X158202381Y-88177810D01*
X158345238Y-88273048D01*
X158440476Y-88368286D01*
X158488095Y-88463524D01*
X158202381Y-87558762D02*
X158202381Y-86939714D01*
X158583333Y-87273048D01*
X158583333Y-87130190D01*
X158630952Y-87034952D01*
X158678571Y-86987333D01*
X158773810Y-86939714D01*
X159011905Y-86939714D01*
X159107143Y-86987333D01*
X159154762Y-87034952D01*
X159202381Y-87130190D01*
X159202381Y-87415905D01*
X159154762Y-87511143D01*
X159107143Y-87558762D01*
X155662381Y-90336476D02*
X156662381Y-90003143D01*
X155662381Y-89669809D01*
X156757619Y-89574571D02*
X156757619Y-88812666D01*
X156567143Y-88003142D02*
X156614762Y-88050761D01*
X156662381Y-88193618D01*
X156662381Y-88288856D01*
X156614762Y-88431714D01*
X156519524Y-88526952D01*
X156424286Y-88574571D01*
X156233810Y-88622190D01*
X156090952Y-88622190D01*
X155900476Y-88574571D01*
X155805238Y-88526952D01*
X155710000Y-88431714D01*
X155662381Y-88288856D01*
X155662381Y-88193618D01*
X155710000Y-88050761D01*
X155757619Y-88003142D01*
X156614762Y-87622190D02*
X156662381Y-87479333D01*
X156662381Y-87241237D01*
X156614762Y-87145999D01*
X156567143Y-87098380D01*
X156471905Y-87050761D01*
X156376667Y-87050761D01*
X156281429Y-87098380D01*
X156233810Y-87145999D01*
X156186190Y-87241237D01*
X156138571Y-87431714D01*
X156090952Y-87526952D01*
X156043333Y-87574571D01*
X155948095Y-87622190D01*
X155852857Y-87622190D01*
X155757619Y-87574571D01*
X155710000Y-87526952D01*
X155662381Y-87431714D01*
X155662381Y-87193618D01*
X155710000Y-87050761D01*
X153376381Y-88764952D02*
X154376381Y-88526857D01*
X153662095Y-88336380D01*
X154376381Y-88145904D01*
X153376381Y-87907809D01*
X153852571Y-87526857D02*
X153852571Y-87193523D01*
X154376381Y-87050666D02*
X154376381Y-87526857D01*
X153376381Y-87526857D01*
X153376381Y-87050666D01*
X151534762Y-91249238D02*
X151582381Y-91106381D01*
X151582381Y-90868285D01*
X151534762Y-90773047D01*
X151487143Y-90725428D01*
X151391905Y-90677809D01*
X151296667Y-90677809D01*
X151201429Y-90725428D01*
X151153810Y-90773047D01*
X151106190Y-90868285D01*
X151058571Y-91058762D01*
X151010952Y-91154000D01*
X150963333Y-91201619D01*
X150868095Y-91249238D01*
X150772857Y-91249238D01*
X150677619Y-91201619D01*
X150630000Y-91154000D01*
X150582381Y-91058762D01*
X150582381Y-90820666D01*
X150630000Y-90677809D01*
X151677619Y-90487333D02*
X151677619Y-89725428D01*
X150582381Y-89296857D02*
X150582381Y-89106380D01*
X150630000Y-89011142D01*
X150725238Y-88915904D01*
X150915714Y-88868285D01*
X151249048Y-88868285D01*
X151439524Y-88915904D01*
X151534762Y-89011142D01*
X151582381Y-89106380D01*
X151582381Y-89296857D01*
X151534762Y-89392095D01*
X151439524Y-89487333D01*
X151249048Y-89534952D01*
X150915714Y-89534952D01*
X150725238Y-89487333D01*
X150630000Y-89392095D01*
X150582381Y-89296857D01*
X150582381Y-88439714D02*
X151391905Y-88439714D01*
X151487143Y-88392095D01*
X151534762Y-88344476D01*
X151582381Y-88249238D01*
X151582381Y-88058761D01*
X151534762Y-87963523D01*
X151487143Y-87915904D01*
X151391905Y-87868285D01*
X150582381Y-87868285D01*
X150582381Y-87534952D02*
X150582381Y-86963523D01*
X151582381Y-87249238D02*
X150582381Y-87249238D01*
X148994762Y-89820571D02*
X149042381Y-89677714D01*
X149042381Y-89439618D01*
X148994762Y-89344380D01*
X148947143Y-89296761D01*
X148851905Y-89249142D01*
X148756667Y-89249142D01*
X148661429Y-89296761D01*
X148613810Y-89344380D01*
X148566190Y-89439618D01*
X148518571Y-89630095D01*
X148470952Y-89725333D01*
X148423333Y-89772952D01*
X148328095Y-89820571D01*
X148232857Y-89820571D01*
X148137619Y-89772952D01*
X148090000Y-89725333D01*
X148042381Y-89630095D01*
X148042381Y-89391999D01*
X148090000Y-89249142D01*
X149137619Y-89058666D02*
X149137619Y-88296761D01*
X149042381Y-88058666D02*
X148042381Y-88058666D01*
X149042381Y-87582476D02*
X148042381Y-87582476D01*
X149042381Y-87011047D01*
X148042381Y-87011047D01*
X146502381Y-91781047D02*
X146026190Y-92114381D01*
X146502381Y-92352476D02*
X145502381Y-92352476D01*
X145502381Y-91971523D01*
X145550000Y-91876285D01*
X145597619Y-91828666D01*
X145692857Y-91781047D01*
X145835714Y-91781047D01*
X145930952Y-91828666D01*
X145978571Y-91876285D01*
X146026190Y-91971523D01*
X146026190Y-92352476D01*
X145502381Y-91162000D02*
X145502381Y-90971523D01*
X145550000Y-90876285D01*
X145645238Y-90781047D01*
X145835714Y-90733428D01*
X146169048Y-90733428D01*
X146359524Y-90781047D01*
X146454762Y-90876285D01*
X146502381Y-90971523D01*
X146502381Y-91162000D01*
X146454762Y-91257238D01*
X146359524Y-91352476D01*
X146169048Y-91400095D01*
X145835714Y-91400095D01*
X145645238Y-91352476D01*
X145550000Y-91257238D01*
X145502381Y-91162000D01*
X146502381Y-90304857D02*
X145502381Y-90304857D01*
X146216667Y-89971523D01*
X145502381Y-89638190D01*
X146502381Y-89638190D01*
X146454762Y-89209619D02*
X146502381Y-89066762D01*
X146502381Y-88828666D01*
X146454762Y-88733428D01*
X146407143Y-88685809D01*
X146311905Y-88638190D01*
X146216667Y-88638190D01*
X146121429Y-88685809D01*
X146073810Y-88733428D01*
X146026190Y-88828666D01*
X145978571Y-89019143D01*
X145930952Y-89114381D01*
X145883333Y-89162000D01*
X145788095Y-89209619D01*
X145692857Y-89209619D01*
X145597619Y-89162000D01*
X145550000Y-89114381D01*
X145502381Y-89019143D01*
X145502381Y-88781047D01*
X145550000Y-88638190D01*
X145978571Y-88209619D02*
X145978571Y-87876285D01*
X146502381Y-87733428D02*
X146502381Y-88209619D01*
X145502381Y-88209619D01*
X145502381Y-87733428D01*
X146502381Y-86828666D02*
X146502381Y-87304857D01*
X145502381Y-87304857D01*
X143962381Y-89820571D02*
X142962381Y-89820571D01*
X142962381Y-89439618D01*
X143010000Y-89344380D01*
X143057619Y-89296761D01*
X143152857Y-89249142D01*
X143295714Y-89249142D01*
X143390952Y-89296761D01*
X143438571Y-89344380D01*
X143486190Y-89439618D01*
X143486190Y-89820571D01*
X143962381Y-88820571D02*
X142962381Y-88820571D01*
X143962381Y-88391999D02*
X143438571Y-88391999D01*
X143343333Y-88439618D01*
X143295714Y-88534856D01*
X143295714Y-88677714D01*
X143343333Y-88772952D01*
X143390952Y-88820571D01*
X143962381Y-87915809D02*
X143295714Y-87915809D01*
X142962381Y-87915809D02*
X143010000Y-87963428D01*
X143057619Y-87915809D01*
X143010000Y-87868190D01*
X142962381Y-87915809D01*
X143057619Y-87915809D01*
X143057619Y-87487238D02*
X143010000Y-87439619D01*
X142962381Y-87344381D01*
X142962381Y-87106285D01*
X143010000Y-87011047D01*
X143057619Y-86963428D01*
X143152857Y-86915809D01*
X143248095Y-86915809D01*
X143390952Y-86963428D01*
X143962381Y-87534857D01*
X143962381Y-86915809D01*
X135342381Y-90614286D02*
X136342381Y-90280953D01*
X135342381Y-89947619D01*
X136056667Y-89661905D02*
X136056667Y-89185714D01*
X136342381Y-89757143D02*
X135342381Y-89423810D01*
X136342381Y-89090476D01*
X136342381Y-88233333D02*
X136342381Y-88804762D01*
X136342381Y-88519048D02*
X135342381Y-88519048D01*
X135485238Y-88614286D01*
X135580476Y-88709524D01*
X135628095Y-88804762D01*
X135342381Y-87614286D02*
X135342381Y-87519047D01*
X135390000Y-87423809D01*
X135437619Y-87376190D01*
X135532857Y-87328571D01*
X135723333Y-87280952D01*
X135961429Y-87280952D01*
X136151905Y-87328571D01*
X136247143Y-87376190D01*
X136294762Y-87423809D01*
X136342381Y-87519047D01*
X136342381Y-87614286D01*
X136294762Y-87709524D01*
X136247143Y-87757143D01*
X136151905Y-87804762D01*
X135961429Y-87852381D01*
X135723333Y-87852381D01*
X135532857Y-87804762D01*
X135437619Y-87757143D01*
X135390000Y-87709524D01*
X135342381Y-87614286D01*
X133802381Y-88328476D02*
X133326190Y-88661810D01*
X133802381Y-88899905D02*
X132802381Y-88899905D01*
X132802381Y-88518952D01*
X132850000Y-88423714D01*
X132897619Y-88376095D01*
X132992857Y-88328476D01*
X133135714Y-88328476D01*
X133230952Y-88376095D01*
X133278571Y-88423714D01*
X133326190Y-88518952D01*
X133326190Y-88899905D01*
X133802381Y-87899905D02*
X132802381Y-87899905D01*
X132802381Y-87661810D01*
X132850000Y-87518952D01*
X132945238Y-87423714D01*
X133040476Y-87376095D01*
X133230952Y-87328476D01*
X133373810Y-87328476D01*
X133564286Y-87376095D01*
X133659524Y-87423714D01*
X133754762Y-87518952D01*
X133802381Y-87661810D01*
X133802381Y-87899905D01*
X131262381Y-89415809D02*
X130262381Y-89415809D01*
X131262381Y-88368190D02*
X130786190Y-88701524D01*
X131262381Y-88939619D02*
X130262381Y-88939619D01*
X130262381Y-88558666D01*
X130310000Y-88463428D01*
X130357619Y-88415809D01*
X130452857Y-88368190D01*
X130595714Y-88368190D01*
X130690952Y-88415809D01*
X130738571Y-88463428D01*
X130786190Y-88558666D01*
X130786190Y-88939619D01*
X131357619Y-87272952D02*
X131310000Y-87368190D01*
X131214762Y-87463428D01*
X131071905Y-87606285D01*
X131024286Y-87701524D01*
X131024286Y-87796762D01*
X131262381Y-87749143D02*
X131214762Y-87844381D01*
X131119524Y-87939619D01*
X130929048Y-87987238D01*
X130595714Y-87987238D01*
X130405238Y-87939619D01*
X130310000Y-87844381D01*
X130262381Y-87749143D01*
X130262381Y-87558666D01*
X130310000Y-87463428D01*
X130405238Y-87368190D01*
X130595714Y-87320571D01*
X130929048Y-87320571D01*
X131119524Y-87368190D01*
X131214762Y-87463428D01*
X131262381Y-87558666D01*
X131262381Y-87749143D01*
X128722381Y-89431714D02*
X128246190Y-89765048D01*
X128722381Y-90003143D02*
X127722381Y-90003143D01*
X127722381Y-89622190D01*
X127770000Y-89526952D01*
X127817619Y-89479333D01*
X127912857Y-89431714D01*
X128055714Y-89431714D01*
X128150952Y-89479333D01*
X128198571Y-89526952D01*
X128246190Y-89622190D01*
X128246190Y-90003143D01*
X127674762Y-88288857D02*
X128960476Y-89146000D01*
X127722381Y-88050762D02*
X128722381Y-87812667D01*
X128008095Y-87622190D01*
X128722381Y-87431714D01*
X127722381Y-87193619D01*
X183134095Y-82954762D02*
X183276952Y-83002381D01*
X183515048Y-83002381D01*
X183610286Y-82954762D01*
X183657905Y-82907143D01*
X183705524Y-82811905D01*
X183705524Y-82716667D01*
X183657905Y-82621429D01*
X183610286Y-82573810D01*
X183515048Y-82526190D01*
X183324571Y-82478571D01*
X183229333Y-82430952D01*
X183181714Y-82383333D01*
X183134095Y-82288095D01*
X183134095Y-82192857D01*
X183181714Y-82097619D01*
X183229333Y-82050000D01*
X183324571Y-82002381D01*
X183562667Y-82002381D01*
X183705524Y-82050000D01*
X184086476Y-82954762D02*
X184229333Y-83002381D01*
X184467429Y-83002381D01*
X184562667Y-82954762D01*
X184610286Y-82907143D01*
X184657905Y-82811905D01*
X184657905Y-82716667D01*
X184610286Y-82621429D01*
X184562667Y-82573810D01*
X184467429Y-82526190D01*
X184276952Y-82478571D01*
X184181714Y-82430952D01*
X184134095Y-82383333D01*
X184086476Y-82288095D01*
X184086476Y-82192857D01*
X184134095Y-82097619D01*
X184181714Y-82050000D01*
X184276952Y-82002381D01*
X184515048Y-82002381D01*
X184657905Y-82050000D01*
X182102286Y-80414762D02*
X182245143Y-80462381D01*
X182483239Y-80462381D01*
X182578477Y-80414762D01*
X182626096Y-80367143D01*
X182673715Y-80271905D01*
X182673715Y-80176667D01*
X182626096Y-80081429D01*
X182578477Y-80033810D01*
X182483239Y-79986190D01*
X182292762Y-79938571D01*
X182197524Y-79890952D01*
X182149905Y-79843333D01*
X182102286Y-79748095D01*
X182102286Y-79652857D01*
X182149905Y-79557619D01*
X182197524Y-79510000D01*
X182292762Y-79462381D01*
X182530858Y-79462381D01*
X182673715Y-79510000D01*
X183673715Y-80367143D02*
X183626096Y-80414762D01*
X183483239Y-80462381D01*
X183388001Y-80462381D01*
X183245143Y-80414762D01*
X183149905Y-80319524D01*
X183102286Y-80224286D01*
X183054667Y-80033810D01*
X183054667Y-79890952D01*
X183102286Y-79700476D01*
X183149905Y-79605238D01*
X183245143Y-79510000D01*
X183388001Y-79462381D01*
X183483239Y-79462381D01*
X183626096Y-79510000D01*
X183673715Y-79557619D01*
X184102286Y-80462381D02*
X184102286Y-79462381D01*
X184673715Y-80462381D02*
X184245143Y-79890952D01*
X184673715Y-79462381D02*
X184102286Y-80033810D01*
X181562572Y-77922381D02*
X181562572Y-76922381D01*
X181895906Y-77636667D01*
X182229239Y-76922381D01*
X182229239Y-77922381D01*
X182705429Y-77922381D02*
X182705429Y-76922381D01*
X183134000Y-77874762D02*
X183276857Y-77922381D01*
X183514953Y-77922381D01*
X183610191Y-77874762D01*
X183657810Y-77827143D01*
X183705429Y-77731905D01*
X183705429Y-77636667D01*
X183657810Y-77541429D01*
X183610191Y-77493810D01*
X183514953Y-77446190D01*
X183324476Y-77398571D01*
X183229238Y-77350952D01*
X183181619Y-77303333D01*
X183134000Y-77208095D01*
X183134000Y-77112857D01*
X183181619Y-77017619D01*
X183229238Y-76970000D01*
X183324476Y-76922381D01*
X183562572Y-76922381D01*
X183705429Y-76970000D01*
X184324476Y-76922381D02*
X184514953Y-76922381D01*
X184610191Y-76970000D01*
X184705429Y-77065238D01*
X184753048Y-77255714D01*
X184753048Y-77589048D01*
X184705429Y-77779524D01*
X184610191Y-77874762D01*
X184514953Y-77922381D01*
X184324476Y-77922381D01*
X184229238Y-77874762D01*
X184134000Y-77779524D01*
X184086381Y-77589048D01*
X184086381Y-77255714D01*
X184134000Y-77065238D01*
X184229238Y-76970000D01*
X184324476Y-76922381D01*
X192024096Y-82050000D02*
X191928858Y-82002381D01*
X191786001Y-82002381D01*
X191643143Y-82050000D01*
X191547905Y-82145238D01*
X191500286Y-82240476D01*
X191452667Y-82430952D01*
X191452667Y-82573810D01*
X191500286Y-82764286D01*
X191547905Y-82859524D01*
X191643143Y-82954762D01*
X191786001Y-83002381D01*
X191881239Y-83002381D01*
X192024096Y-82954762D01*
X192071715Y-82907143D01*
X192071715Y-82573810D01*
X191881239Y-82573810D01*
X192500286Y-83002381D02*
X192500286Y-82002381D01*
X193071715Y-83002381D01*
X193071715Y-82002381D01*
X193547905Y-83002381D02*
X193547905Y-82002381D01*
X193786000Y-82002381D01*
X193928858Y-82050000D01*
X194024096Y-82145238D01*
X194071715Y-82240476D01*
X194119334Y-82430952D01*
X194119334Y-82573810D01*
X194071715Y-82764286D01*
X194024096Y-82859524D01*
X193928858Y-82954762D01*
X193786000Y-83002381D01*
X193547905Y-83002381D01*
X191468572Y-80462381D02*
X191468572Y-79462381D01*
X191801906Y-80176667D01*
X192135239Y-79462381D01*
X192135239Y-80462381D01*
X192801905Y-79462381D02*
X192992382Y-79462381D01*
X193087620Y-79510000D01*
X193182858Y-79605238D01*
X193230477Y-79795714D01*
X193230477Y-80129048D01*
X193182858Y-80319524D01*
X193087620Y-80414762D01*
X192992382Y-80462381D01*
X192801905Y-80462381D01*
X192706667Y-80414762D01*
X192611429Y-80319524D01*
X192563810Y-80129048D01*
X192563810Y-79795714D01*
X192611429Y-79605238D01*
X192706667Y-79510000D01*
X192801905Y-79462381D01*
X193611429Y-80414762D02*
X193754286Y-80462381D01*
X193992382Y-80462381D01*
X194087620Y-80414762D01*
X194135239Y-80367143D01*
X194182858Y-80271905D01*
X194182858Y-80176667D01*
X194135239Y-80081429D01*
X194087620Y-80033810D01*
X193992382Y-79986190D01*
X193801905Y-79938571D01*
X193706667Y-79890952D01*
X193659048Y-79843333D01*
X193611429Y-79748095D01*
X193611429Y-79652857D01*
X193659048Y-79557619D01*
X193706667Y-79510000D01*
X193801905Y-79462381D01*
X194040001Y-79462381D01*
X194182858Y-79510000D01*
X194611429Y-80462381D02*
X194611429Y-79462381D01*
X191833524Y-76922381D02*
X191357333Y-76922381D01*
X191309714Y-77398571D01*
X191357333Y-77350952D01*
X191452571Y-77303333D01*
X191690667Y-77303333D01*
X191785905Y-77350952D01*
X191833524Y-77398571D01*
X191881143Y-77493810D01*
X191881143Y-77731905D01*
X191833524Y-77827143D01*
X191785905Y-77874762D01*
X191690667Y-77922381D01*
X191452571Y-77922381D01*
X191357333Y-77874762D01*
X191309714Y-77827143D01*
X192166857Y-76922381D02*
X192500190Y-77922381D01*
X192833524Y-76922381D01*
X149190000Y-115970857D02*
X148690000Y-115970857D01*
X148690000Y-116756571D02*
X148690000Y-115256571D01*
X149404286Y-115256571D01*
X150832857Y-116756571D02*
X150332857Y-116042286D01*
X149975714Y-116756571D02*
X149975714Y-115256571D01*
X150547142Y-115256571D01*
X150690000Y-115328000D01*
X150761428Y-115399429D01*
X150832857Y-115542286D01*
X150832857Y-115756571D01*
X150761428Y-115899429D01*
X150690000Y-115970857D01*
X150547142Y-116042286D01*
X149975714Y-116042286D01*
X151761428Y-115256571D02*
X152047142Y-115256571D01*
X152190000Y-115328000D01*
X152332857Y-115470857D01*
X152404285Y-115756571D01*
X152404285Y-116256571D01*
X152332857Y-116542286D01*
X152190000Y-116685143D01*
X152047142Y-116756571D01*
X151761428Y-116756571D01*
X151618571Y-116685143D01*
X151475714Y-116542286D01*
X151404285Y-116256571D01*
X151404285Y-115756571D01*
X151475714Y-115470857D01*
X151618571Y-115328000D01*
X151761428Y-115256571D01*
X153047143Y-116756571D02*
X153047143Y-115256571D01*
X153904286Y-116756571D01*
X153904286Y-115256571D01*
X154404286Y-115256571D02*
X155261429Y-115256571D01*
X154832858Y-116756571D02*
X154832858Y-115256571D01*
X156832857Y-116685143D02*
X157047143Y-116756571D01*
X157404286Y-116756571D01*
X157547143Y-116685143D01*
X157618572Y-116613714D01*
X157690000Y-116470857D01*
X157690000Y-116328000D01*
X157618572Y-116185143D01*
X157547143Y-116113714D01*
X157404286Y-116042286D01*
X157118572Y-115970857D01*
X156975714Y-115899429D01*
X156904286Y-115828000D01*
X156832857Y-115685143D01*
X156832857Y-115542286D01*
X156904286Y-115399429D01*
X156975714Y-115328000D01*
X157118572Y-115256571D01*
X157475714Y-115256571D01*
X157690000Y-115328000D01*
X158332857Y-116756571D02*
X158332857Y-115256571D01*
X159047143Y-116756571D02*
X159047143Y-115256571D01*
X159404286Y-115256571D01*
X159618571Y-115328000D01*
X159761429Y-115470857D01*
X159832857Y-115613714D01*
X159904286Y-115899429D01*
X159904286Y-116113714D01*
X159832857Y-116399429D01*
X159761429Y-116542286D01*
X159618571Y-116685143D01*
X159404286Y-116756571D01*
X159047143Y-116756571D01*
X160547143Y-115970857D02*
X161047143Y-115970857D01*
X161261429Y-116756571D02*
X160547143Y-116756571D01*
X160547143Y-115256571D01*
X161261429Y-115256571D01*
X131770381Y-116300285D02*
X131770381Y-116871714D01*
X131770381Y-116586000D02*
X130770381Y-116586000D01*
X130913238Y-116681238D01*
X131008476Y-116776476D01*
X131056095Y-116871714D01*
X201168000Y-115316000D02*
X201168000Y-69596000D01*
X196088000Y-69596000D02*
X196088000Y-112776000D01*
X201168000Y-69596000D02*
X196088000Y-69596000D01*
X201168000Y-115316000D02*
X198628000Y-115316000D01*
X195808000Y-114046000D02*
X195808000Y-115596000D01*
X198628000Y-115316000D02*
X198628000Y-112776000D01*
X198628000Y-112776000D02*
X196088000Y-112776000D01*
X195808000Y-115596000D02*
X197358000Y-115596000D01*
X132588000Y-120396000D02*
X150368000Y-120396000D01*
X150368000Y-120396000D02*
X150368000Y-117856000D01*
X150368000Y-117856000D02*
X132588000Y-117856000D01*
X129768000Y-120676000D02*
X131318000Y-120676000D01*
X132588000Y-120396000D02*
X132588000Y-117856000D01*
X131318000Y-117576000D02*
X129768000Y-117576000D01*
X129768000Y-117576000D02*
X129768000Y-120676000D01*
X155448000Y-120396000D02*
X173228000Y-120396000D01*
X173228000Y-120396000D02*
X173228000Y-117856000D01*
X173228000Y-117856000D02*
X155448000Y-117856000D01*
X152628000Y-120676000D02*
X154178000Y-120676000D01*
X155448000Y-120396000D02*
X155448000Y-117856000D01*
X154178000Y-117576000D02*
X152628000Y-117576000D01*
X152628000Y-117576000D02*
X152628000Y-120676000D01*
X178308000Y-120396000D02*
X196088000Y-120396000D01*
X196088000Y-120396000D02*
X196088000Y-117856000D01*
X196088000Y-117856000D02*
X178308000Y-117856000D01*
X175488000Y-120676000D02*
X177038000Y-120676000D01*
X178308000Y-120396000D02*
X178308000Y-117856000D01*
X177038000Y-117576000D02*
X175488000Y-117576000D01*
X175488000Y-117576000D02*
X175488000Y-120676000D01*
X123444000Y-72136000D02*
X146304000Y-72136000D01*
X146304000Y-72136000D02*
X146304000Y-69596000D01*
X146304000Y-69596000D02*
X123444000Y-69596000D01*
X120624000Y-72416000D02*
X122174000Y-72416000D01*
X123444000Y-72136000D02*
X123444000Y-69596000D01*
X122174000Y-69316000D02*
X120624000Y-69316000D01*
X120624000Y-69316000D02*
X120624000Y-72416000D01*
X150368000Y-72136000D02*
X168148000Y-72136000D01*
X168148000Y-72136000D02*
X168148000Y-69596000D01*
X168148000Y-69596000D02*
X150368000Y-69596000D01*
X147548000Y-72416000D02*
X149098000Y-72416000D01*
X150368000Y-72136000D02*
X150368000Y-69596000D01*
X149098000Y-69316000D02*
X147548000Y-69316000D01*
X147548000Y-69316000D02*
X147548000Y-72416000D01*
X173228000Y-72136000D02*
X191008000Y-72136000D01*
X191008000Y-72136000D02*
X191008000Y-69596000D01*
X191008000Y-69596000D02*
X173228000Y-69596000D01*
X170408000Y-72416000D02*
X171958000Y-72416000D01*
X173228000Y-72136000D02*
X173228000Y-69596000D01*
X171958000Y-69316000D02*
X170408000Y-69316000D01*
X170408000Y-69316000D02*
X170408000Y-72416000D01*
X119634000Y-119126000D02*
G75*
G03X119634000Y-119126000I-2286000J0D01*
G01*
X202184000Y-119126000D02*
G75*
G03X202184000Y-119126000I-2286000J0D01*
G01*
X120904000Y-70866000D02*
G75*
G03X120904000Y-70866000I-2286000J0D01*
G01*
X195834000Y-70866000D02*
G75*
G03X195834000Y-70866000I-2286000J0D01*
G01*
D13*
X175260000Y-101480000D02*
X157360000Y-101480000D01*
X157360000Y-101480000D02*
X157360000Y-104260000D01*
X157360000Y-104260000D02*
X175260000Y-104260000D01*
X175260000Y-104260000D02*
X175260000Y-101480000D01*
X176530000Y-101480000D02*
X177920000Y-101480000D01*
X177920000Y-101480000D02*
X177920000Y-102870000D01*
X134620000Y-101480000D02*
X116720000Y-101480000D01*
X116720000Y-101480000D02*
X116720000Y-104260000D01*
X116720000Y-104260000D02*
X134620000Y-104260000D01*
X134620000Y-104260000D02*
X134620000Y-101480000D01*
X135890000Y-101480000D02*
X137280000Y-101480000D01*
X137280000Y-101480000D02*
X137280000Y-102870000D01*
X190500000Y-93860000D02*
X157360000Y-93860000D01*
X157360000Y-93860000D02*
X157360000Y-96640000D01*
X157360000Y-96640000D02*
X190500000Y-96640000D01*
X190500000Y-96640000D02*
X190500000Y-93860000D01*
X191770000Y-93860000D02*
X193160000Y-93860000D01*
X193160000Y-93860000D02*
X193160000Y-95250000D01*
X149860000Y-93860000D02*
X114180000Y-93860000D01*
X114180000Y-93860000D02*
X114180000Y-96640000D01*
X114180000Y-96640000D02*
X149860000Y-96640000D01*
X149860000Y-96640000D02*
X149860000Y-93860000D01*
X151130000Y-93860000D02*
X152520000Y-93860000D01*
X152520000Y-93860000D02*
X152520000Y-95250000D01*
X177800000Y-76334000D02*
X142120000Y-76334000D01*
X142120000Y-76334000D02*
X142120000Y-79114000D01*
X142120000Y-79114000D02*
X177800000Y-79114000D01*
X177800000Y-79114000D02*
X177800000Y-76334000D01*
X179070000Y-76334000D02*
X180460000Y-76334000D01*
X180460000Y-76334000D02*
X180460000Y-77724000D01*
X177800000Y-83700000D02*
X170060000Y-83700000D01*
X170060000Y-83700000D02*
X170060000Y-86480000D01*
X170060000Y-86480000D02*
X177800000Y-86480000D01*
X177800000Y-86480000D02*
X177800000Y-83700000D01*
X179070000Y-83700000D02*
X180460000Y-83700000D01*
X180460000Y-83700000D02*
X180460000Y-85090000D01*
X185300000Y-78740000D02*
X185300000Y-83940000D01*
X185300000Y-83940000D02*
X190620000Y-83940000D01*
X190620000Y-83940000D02*
X190620000Y-76080000D01*
X190620000Y-76080000D02*
X187960000Y-76080000D01*
X187960000Y-76080000D02*
X187960000Y-78740000D01*
X187960000Y-78740000D02*
X185300000Y-78740000D01*
X185300000Y-77470000D02*
X185300000Y-76080000D01*
X185300000Y-76080000D02*
X186690000Y-76080000D01*
X190500000Y-109100000D02*
X116720000Y-109100000D01*
X116720000Y-109100000D02*
X116720000Y-114420000D01*
X116720000Y-114420000D02*
X193160000Y-114420000D01*
X193160000Y-114420000D02*
X193160000Y-111760000D01*
X193160000Y-111760000D02*
X190500000Y-111760000D01*
X190500000Y-111760000D02*
X190500000Y-109100000D01*
X191770000Y-109100000D02*
X193160000Y-109100000D01*
X193160000Y-109100000D02*
X193160000Y-110490000D01*
X157480000Y-83700000D02*
X142120000Y-83700000D01*
X142120000Y-83700000D02*
X142120000Y-86480000D01*
X142120000Y-86480000D02*
X157480000Y-86480000D01*
X157480000Y-86480000D02*
X157480000Y-83700000D01*
X158750000Y-83700000D02*
X160140000Y-83700000D01*
X160140000Y-83700000D02*
X160140000Y-85090000D01*
X134620000Y-83700000D02*
X126880000Y-83700000D01*
X126880000Y-83700000D02*
X126880000Y-86480000D01*
X126880000Y-86480000D02*
X134620000Y-86480000D01*
X134620000Y-86480000D02*
X134620000Y-83700000D01*
X135890000Y-83700000D02*
X137280000Y-83700000D01*
X137280000Y-83700000D02*
X137280000Y-85090000D01*
X118790000Y-79150000D02*
X122510000Y-79150000D01*
X118790000Y-80870000D02*
X122510000Y-80870000D01*
D11*
X164806667Y-100687143D02*
X164759048Y-100734762D01*
X164616191Y-100782381D01*
X164520953Y-100782381D01*
X164378095Y-100734762D01*
X164282857Y-100639524D01*
X164235238Y-100544286D01*
X164187619Y-100353810D01*
X164187619Y-100210952D01*
X164235238Y-100020476D01*
X164282857Y-99925238D01*
X164378095Y-99830000D01*
X164520953Y-99782381D01*
X164616191Y-99782381D01*
X164759048Y-99830000D01*
X164806667Y-99877619D01*
X165235238Y-100782381D02*
X165235238Y-99782381D01*
X165235238Y-100258571D02*
X165806667Y-100258571D01*
X165806667Y-100782381D02*
X165806667Y-99782381D01*
X166854286Y-100782381D02*
X166520952Y-100306190D01*
X166282857Y-100782381D02*
X166282857Y-99782381D01*
X166663810Y-99782381D01*
X166759048Y-99830000D01*
X166806667Y-99877619D01*
X166854286Y-99972857D01*
X166854286Y-100115714D01*
X166806667Y-100210952D01*
X166759048Y-100258571D01*
X166663810Y-100306190D01*
X166282857Y-100306190D01*
X168044762Y-100782381D02*
X168044762Y-99782381D01*
X168282857Y-99782381D01*
X168425715Y-99830000D01*
X168520953Y-99925238D01*
X168568572Y-100020476D01*
X168616191Y-100210952D01*
X168616191Y-100353810D01*
X168568572Y-100544286D01*
X168520953Y-100639524D01*
X168425715Y-100734762D01*
X168282857Y-100782381D01*
X168044762Y-100782381D01*
X168997143Y-100496667D02*
X169473334Y-100496667D01*
X168901905Y-100782381D02*
X169235238Y-99782381D01*
X169568572Y-100782381D01*
X169759048Y-99782381D02*
X170330477Y-99782381D01*
X170044762Y-100782381D02*
X170044762Y-99782381D01*
X170616191Y-100496667D02*
X171092382Y-100496667D01*
X170520953Y-100782381D02*
X170854286Y-99782381D01*
X171187620Y-100782381D01*
X116761047Y-100782381D02*
X116761047Y-99782381D01*
X117142000Y-99782381D01*
X117237238Y-99830000D01*
X117284857Y-99877619D01*
X117332476Y-99972857D01*
X117332476Y-100115714D01*
X117284857Y-100210952D01*
X117237238Y-100258571D01*
X117142000Y-100306190D01*
X116761047Y-100306190D01*
X118332476Y-100782381D02*
X117999142Y-100306190D01*
X117761047Y-100782381D02*
X117761047Y-99782381D01*
X118142000Y-99782381D01*
X118237238Y-99830000D01*
X118284857Y-99877619D01*
X118332476Y-99972857D01*
X118332476Y-100115714D01*
X118284857Y-100210952D01*
X118237238Y-100258571D01*
X118142000Y-100306190D01*
X117761047Y-100306190D01*
X119284857Y-99830000D02*
X119189619Y-99782381D01*
X119046762Y-99782381D01*
X118903904Y-99830000D01*
X118808666Y-99925238D01*
X118761047Y-100020476D01*
X118713428Y-100210952D01*
X118713428Y-100353810D01*
X118761047Y-100544286D01*
X118808666Y-100639524D01*
X118903904Y-100734762D01*
X119046762Y-100782381D01*
X119142000Y-100782381D01*
X119284857Y-100734762D01*
X119332476Y-100687143D01*
X119332476Y-100353810D01*
X119142000Y-100353810D01*
X120522952Y-100782381D02*
X120522952Y-99782381D01*
X120761047Y-99782381D01*
X120903905Y-99830000D01*
X120999143Y-99925238D01*
X121046762Y-100020476D01*
X121094381Y-100210952D01*
X121094381Y-100353810D01*
X121046762Y-100544286D01*
X120999143Y-100639524D01*
X120903905Y-100734762D01*
X120761047Y-100782381D01*
X120522952Y-100782381D01*
X121475333Y-100496667D02*
X121951524Y-100496667D01*
X121380095Y-100782381D02*
X121713428Y-99782381D01*
X122046762Y-100782381D01*
X122237238Y-99782381D02*
X122808667Y-99782381D01*
X122522952Y-100782381D02*
X122522952Y-99782381D01*
X123094381Y-100496667D02*
X123570572Y-100496667D01*
X122999143Y-100782381D02*
X123332476Y-99782381D01*
X123665810Y-100782381D01*
X170902857Y-92813143D02*
X170855238Y-92860762D01*
X170712381Y-92908381D01*
X170617143Y-92908381D01*
X170474285Y-92860762D01*
X170379047Y-92765524D01*
X170331428Y-92670286D01*
X170283809Y-92479810D01*
X170283809Y-92336952D01*
X170331428Y-92146476D01*
X170379047Y-92051238D01*
X170474285Y-91956000D01*
X170617143Y-91908381D01*
X170712381Y-91908381D01*
X170855238Y-91956000D01*
X170902857Y-92003619D01*
X171331428Y-92908381D02*
X171331428Y-91908381D01*
X171331428Y-92384571D02*
X171902857Y-92384571D01*
X171902857Y-92908381D02*
X171902857Y-91908381D01*
X172950476Y-92908381D02*
X172617142Y-92432190D01*
X172379047Y-92908381D02*
X172379047Y-91908381D01*
X172760000Y-91908381D01*
X172855238Y-91956000D01*
X172902857Y-92003619D01*
X172950476Y-92098857D01*
X172950476Y-92241714D01*
X172902857Y-92336952D01*
X172855238Y-92384571D01*
X172760000Y-92432190D01*
X172379047Y-92432190D01*
X174093333Y-92622667D02*
X174569524Y-92622667D01*
X173998095Y-92908381D02*
X174331428Y-91908381D01*
X174664762Y-92908381D01*
X174998095Y-92908381D02*
X174998095Y-91908381D01*
X175236190Y-91908381D01*
X175379048Y-91956000D01*
X175474286Y-92051238D01*
X175521905Y-92146476D01*
X175569524Y-92336952D01*
X175569524Y-92479810D01*
X175521905Y-92670286D01*
X175474286Y-92765524D01*
X175379048Y-92860762D01*
X175236190Y-92908381D01*
X174998095Y-92908381D01*
X175998095Y-92908381D02*
X175998095Y-91908381D01*
X176236190Y-91908381D01*
X176379048Y-91956000D01*
X176474286Y-92051238D01*
X176521905Y-92146476D01*
X176569524Y-92336952D01*
X176569524Y-92479810D01*
X176521905Y-92670286D01*
X176474286Y-92765524D01*
X176379048Y-92860762D01*
X176236190Y-92908381D01*
X175998095Y-92908381D01*
X177569524Y-92908381D02*
X177236190Y-92432190D01*
X176998095Y-92908381D02*
X176998095Y-91908381D01*
X177379048Y-91908381D01*
X177474286Y-91956000D01*
X177521905Y-92003619D01*
X177569524Y-92098857D01*
X177569524Y-92241714D01*
X177521905Y-92336952D01*
X177474286Y-92384571D01*
X177379048Y-92432190D01*
X176998095Y-92432190D01*
X179283810Y-92908381D02*
X178712381Y-92908381D01*
X178998095Y-92908381D02*
X178998095Y-91908381D01*
X178902857Y-92051238D01*
X178807619Y-92146476D01*
X178712381Y-92194095D01*
X180140953Y-92241714D02*
X180140953Y-92908381D01*
X179902857Y-91860762D02*
X179664762Y-92575048D01*
X180283810Y-92575048D01*
X114475238Y-93162381D02*
X114475238Y-92162381D01*
X114856191Y-92162381D01*
X114951429Y-92210000D01*
X114999048Y-92257619D01*
X115046667Y-92352857D01*
X115046667Y-92495714D01*
X114999048Y-92590952D01*
X114951429Y-92638571D01*
X114856191Y-92686190D01*
X114475238Y-92686190D01*
X116046667Y-93162381D02*
X115713333Y-92686190D01*
X115475238Y-93162381D02*
X115475238Y-92162381D01*
X115856191Y-92162381D01*
X115951429Y-92210000D01*
X115999048Y-92257619D01*
X116046667Y-92352857D01*
X116046667Y-92495714D01*
X115999048Y-92590952D01*
X115951429Y-92638571D01*
X115856191Y-92686190D01*
X115475238Y-92686190D01*
X116999048Y-92210000D02*
X116903810Y-92162381D01*
X116760953Y-92162381D01*
X116618095Y-92210000D01*
X116522857Y-92305238D01*
X116475238Y-92400476D01*
X116427619Y-92590952D01*
X116427619Y-92733810D01*
X116475238Y-92924286D01*
X116522857Y-93019524D01*
X116618095Y-93114762D01*
X116760953Y-93162381D01*
X116856191Y-93162381D01*
X116999048Y-93114762D01*
X117046667Y-93067143D01*
X117046667Y-92733810D01*
X116856191Y-92733810D01*
X118189524Y-92876667D02*
X118665715Y-92876667D01*
X118094286Y-93162381D02*
X118427619Y-92162381D01*
X118760953Y-93162381D01*
X119094286Y-93162381D02*
X119094286Y-92162381D01*
X119332381Y-92162381D01*
X119475239Y-92210000D01*
X119570477Y-92305238D01*
X119618096Y-92400476D01*
X119665715Y-92590952D01*
X119665715Y-92733810D01*
X119618096Y-92924286D01*
X119570477Y-93019524D01*
X119475239Y-93114762D01*
X119332381Y-93162381D01*
X119094286Y-93162381D01*
X120094286Y-93162381D02*
X120094286Y-92162381D01*
X120332381Y-92162381D01*
X120475239Y-92210000D01*
X120570477Y-92305238D01*
X120618096Y-92400476D01*
X120665715Y-92590952D01*
X120665715Y-92733810D01*
X120618096Y-92924286D01*
X120570477Y-93019524D01*
X120475239Y-93114762D01*
X120332381Y-93162381D01*
X120094286Y-93162381D01*
X121665715Y-93162381D02*
X121332381Y-92686190D01*
X121094286Y-93162381D02*
X121094286Y-92162381D01*
X121475239Y-92162381D01*
X121570477Y-92210000D01*
X121618096Y-92257619D01*
X121665715Y-92352857D01*
X121665715Y-92495714D01*
X121618096Y-92590952D01*
X121570477Y-92638571D01*
X121475239Y-92686190D01*
X121094286Y-92686190D01*
X123380001Y-93162381D02*
X122808572Y-93162381D01*
X123094286Y-93162381D02*
X123094286Y-92162381D01*
X122999048Y-92305238D01*
X122903810Y-92400476D01*
X122808572Y-92448095D01*
X124284763Y-92162381D02*
X123808572Y-92162381D01*
X123760953Y-92638571D01*
X123808572Y-92590952D01*
X123903810Y-92543333D01*
X124141906Y-92543333D01*
X124237144Y-92590952D01*
X124284763Y-92638571D01*
X124332382Y-92733810D01*
X124332382Y-92971905D01*
X124284763Y-93067143D01*
X124237144Y-93114762D01*
X124141906Y-93162381D01*
X123903810Y-93162381D01*
X123808572Y-93114762D01*
X123760953Y-93067143D01*
X157218571Y-74382381D02*
X157409048Y-74382381D01*
X157504286Y-74430000D01*
X157599524Y-74525238D01*
X157647143Y-74715714D01*
X157647143Y-75049048D01*
X157599524Y-75239524D01*
X157504286Y-75334762D01*
X157409048Y-75382381D01*
X157218571Y-75382381D01*
X157123333Y-75334762D01*
X157028095Y-75239524D01*
X156980476Y-75049048D01*
X156980476Y-74715714D01*
X157028095Y-74525238D01*
X157123333Y-74430000D01*
X157218571Y-74382381D01*
X157932857Y-74382381D02*
X158504286Y-74382381D01*
X158218571Y-75382381D02*
X158218571Y-74382381D01*
X158837619Y-75382381D02*
X158837619Y-74382381D01*
X158837619Y-74858571D02*
X159409048Y-74858571D01*
X159409048Y-75382381D02*
X159409048Y-74382381D01*
X159885238Y-74858571D02*
X160218572Y-74858571D01*
X160361429Y-75382381D02*
X159885238Y-75382381D01*
X159885238Y-74382381D01*
X160361429Y-74382381D01*
X161361429Y-75382381D02*
X161028095Y-74906190D01*
X160790000Y-75382381D02*
X160790000Y-74382381D01*
X161170953Y-74382381D01*
X161266191Y-74430000D01*
X161313810Y-74477619D01*
X161361429Y-74572857D01*
X161361429Y-74715714D01*
X161313810Y-74810952D01*
X161266191Y-74858571D01*
X161170953Y-74906190D01*
X160790000Y-74906190D01*
X162551905Y-75382381D02*
X162551905Y-74382381D01*
X162932858Y-74382381D01*
X163028096Y-74430000D01*
X163075715Y-74477619D01*
X163123334Y-74572857D01*
X163123334Y-74715714D01*
X163075715Y-74810952D01*
X163028096Y-74858571D01*
X162932858Y-74906190D01*
X162551905Y-74906190D01*
X163551905Y-75382381D02*
X163551905Y-74382381D01*
X164028095Y-75382381D02*
X164028095Y-74382381D01*
X164599524Y-75382381D01*
X164599524Y-74382381D01*
X165028095Y-75334762D02*
X165170952Y-75382381D01*
X165409048Y-75382381D01*
X165504286Y-75334762D01*
X165551905Y-75287143D01*
X165599524Y-75191905D01*
X165599524Y-75096667D01*
X165551905Y-75001429D01*
X165504286Y-74953810D01*
X165409048Y-74906190D01*
X165218571Y-74858571D01*
X165123333Y-74810952D01*
X165075714Y-74763333D01*
X165028095Y-74668095D01*
X165028095Y-74572857D01*
X165075714Y-74477619D01*
X165123333Y-74430000D01*
X165218571Y-74382381D01*
X165456667Y-74382381D01*
X165599524Y-74430000D01*
X169226667Y-87066190D02*
X169226667Y-86589999D01*
X169512381Y-87161428D02*
X168512381Y-86828095D01*
X169512381Y-86494761D01*
X169512381Y-86161428D02*
X168512381Y-86161428D01*
X169226667Y-85828094D01*
X168512381Y-85494761D01*
X169512381Y-85494761D01*
X169226667Y-85066190D02*
X169226667Y-84589999D01*
X169512381Y-85161428D02*
X168512381Y-84828095D01*
X169512381Y-84494761D01*
X169512381Y-83589999D02*
X169036190Y-83923333D01*
X169512381Y-84161428D02*
X168512381Y-84161428D01*
X168512381Y-83780475D01*
X168560000Y-83685237D01*
X168607619Y-83637618D01*
X168702857Y-83589999D01*
X168845714Y-83589999D01*
X168940952Y-83637618D01*
X168988571Y-83685237D01*
X169036190Y-83780475D01*
X169036190Y-84161428D01*
X169512381Y-83161428D02*
X168512381Y-83161428D01*
X186936191Y-85344762D02*
X187079048Y-85392381D01*
X187317144Y-85392381D01*
X187412382Y-85344762D01*
X187460001Y-85297143D01*
X187507620Y-85201905D01*
X187507620Y-85106667D01*
X187460001Y-85011429D01*
X187412382Y-84963810D01*
X187317144Y-84916190D01*
X187126667Y-84868571D01*
X187031429Y-84820952D01*
X186983810Y-84773333D01*
X186936191Y-84678095D01*
X186936191Y-84582857D01*
X186983810Y-84487619D01*
X187031429Y-84440000D01*
X187126667Y-84392381D01*
X187364763Y-84392381D01*
X187507620Y-84440000D01*
X187936191Y-85392381D02*
X187936191Y-84392381D01*
X188317144Y-84392381D01*
X188412382Y-84440000D01*
X188460001Y-84487619D01*
X188507620Y-84582857D01*
X188507620Y-84725714D01*
X188460001Y-84820952D01*
X188412382Y-84868571D01*
X188317144Y-84916190D01*
X187936191Y-84916190D01*
X188936191Y-85392381D02*
X188936191Y-84392381D01*
X114978571Y-116367142D02*
X113478571Y-116367142D01*
X113478571Y-116009999D01*
X113550000Y-115795714D01*
X113692857Y-115652856D01*
X113835714Y-115581428D01*
X114121429Y-115509999D01*
X114335714Y-115509999D01*
X114621429Y-115581428D01*
X114764286Y-115652856D01*
X114907143Y-115795714D01*
X114978571Y-116009999D01*
X114978571Y-116367142D01*
X114192857Y-114867142D02*
X114192857Y-114367142D01*
X114978571Y-114152856D02*
X114978571Y-114867142D01*
X113478571Y-114867142D01*
X113478571Y-114152856D01*
X113478571Y-113724285D02*
X114978571Y-113224285D01*
X113478571Y-112724285D01*
X115121429Y-112581428D02*
X115121429Y-111438571D01*
X114192857Y-111081428D02*
X114192857Y-110581428D01*
X114978571Y-110367142D02*
X114978571Y-111081428D01*
X113478571Y-111081428D01*
X113478571Y-110367142D01*
X113478571Y-109867142D02*
X114978571Y-108867142D01*
X113478571Y-108867142D02*
X114978571Y-109867142D01*
X113478571Y-108510000D02*
X113478571Y-107652857D01*
X114978571Y-108081428D02*
X113478571Y-108081428D01*
X114835714Y-107152857D02*
X114907143Y-107081429D01*
X114978571Y-107152857D01*
X114907143Y-107224286D01*
X114835714Y-107152857D01*
X114978571Y-107152857D01*
X147653810Y-82732571D02*
X147796667Y-82780190D01*
X147844286Y-82827810D01*
X147891905Y-82923048D01*
X147891905Y-83065905D01*
X147844286Y-83161143D01*
X147796667Y-83208762D01*
X147701429Y-83256381D01*
X147320476Y-83256381D01*
X147320476Y-82256381D01*
X147653810Y-82256381D01*
X147749048Y-82304000D01*
X147796667Y-82351619D01*
X147844286Y-82446857D01*
X147844286Y-82542095D01*
X147796667Y-82637333D01*
X147749048Y-82684952D01*
X147653810Y-82732571D01*
X147320476Y-82732571D01*
X148272857Y-82970667D02*
X148749048Y-82970667D01*
X148177619Y-83256381D02*
X148510952Y-82256381D01*
X148844286Y-83256381D01*
X149749048Y-83161143D02*
X149701429Y-83208762D01*
X149558572Y-83256381D01*
X149463334Y-83256381D01*
X149320476Y-83208762D01*
X149225238Y-83113524D01*
X149177619Y-83018286D01*
X149130000Y-82827810D01*
X149130000Y-82684952D01*
X149177619Y-82494476D01*
X149225238Y-82399238D01*
X149320476Y-82304000D01*
X149463334Y-82256381D01*
X149558572Y-82256381D01*
X149701429Y-82304000D01*
X149749048Y-82351619D01*
X150177619Y-83256381D02*
X150177619Y-82256381D01*
X150749048Y-83256381D02*
X150320476Y-82684952D01*
X150749048Y-82256381D02*
X150177619Y-82827810D01*
X151939524Y-83256381D02*
X151939524Y-82256381D01*
X152320477Y-82256381D01*
X152415715Y-82304000D01*
X152463334Y-82351619D01*
X152510953Y-82446857D01*
X152510953Y-82589714D01*
X152463334Y-82684952D01*
X152415715Y-82732571D01*
X152320477Y-82780190D01*
X151939524Y-82780190D01*
X152939524Y-83256381D02*
X152939524Y-82256381D01*
X153415714Y-83256381D02*
X153415714Y-82256381D01*
X153987143Y-83256381D01*
X153987143Y-82256381D01*
X154415714Y-83208762D02*
X154558571Y-83256381D01*
X154796667Y-83256381D01*
X154891905Y-83208762D01*
X154939524Y-83161143D01*
X154987143Y-83065905D01*
X154987143Y-82970667D01*
X154939524Y-82875429D01*
X154891905Y-82827810D01*
X154796667Y-82780190D01*
X154606190Y-82732571D01*
X154510952Y-82684952D01*
X154463333Y-82637333D01*
X154415714Y-82542095D01*
X154415714Y-82446857D01*
X154463333Y-82351619D01*
X154510952Y-82304000D01*
X154606190Y-82256381D01*
X154844286Y-82256381D01*
X154987143Y-82304000D01*
X128175239Y-82732571D02*
X127841905Y-82732571D01*
X127841905Y-83256381D02*
X127841905Y-82256381D01*
X128318096Y-82256381D01*
X129270477Y-83256381D02*
X128937143Y-82780190D01*
X128699048Y-83256381D02*
X128699048Y-82256381D01*
X129080001Y-82256381D01*
X129175239Y-82304000D01*
X129222858Y-82351619D01*
X129270477Y-82446857D01*
X129270477Y-82589714D01*
X129222858Y-82684952D01*
X129175239Y-82732571D01*
X129080001Y-82780190D01*
X128699048Y-82780190D01*
X129889524Y-82256381D02*
X130080001Y-82256381D01*
X130175239Y-82304000D01*
X130270477Y-82399238D01*
X130318096Y-82589714D01*
X130318096Y-82923048D01*
X130270477Y-83113524D01*
X130175239Y-83208762D01*
X130080001Y-83256381D01*
X129889524Y-83256381D01*
X129794286Y-83208762D01*
X129699048Y-83113524D01*
X129651429Y-82923048D01*
X129651429Y-82589714D01*
X129699048Y-82399238D01*
X129794286Y-82304000D01*
X129889524Y-82256381D01*
X130746667Y-83256381D02*
X130746667Y-82256381D01*
X131318096Y-83256381D01*
X131318096Y-82256381D01*
X131651429Y-82256381D02*
X132222858Y-82256381D01*
X131937143Y-83256381D02*
X131937143Y-82256381D01*
X133318096Y-83256381D02*
X133318096Y-82256381D01*
X133699049Y-82256381D01*
X133794287Y-82304000D01*
X133841906Y-82351619D01*
X133889525Y-82446857D01*
X133889525Y-82589714D01*
X133841906Y-82684952D01*
X133794287Y-82732571D01*
X133699049Y-82780190D01*
X133318096Y-82780190D01*
X134318096Y-83256381D02*
X134318096Y-82256381D01*
X134794286Y-83256381D02*
X134794286Y-82256381D01*
X135365715Y-83256381D01*
X135365715Y-82256381D01*
X135794286Y-83208762D02*
X135937143Y-83256381D01*
X136175239Y-83256381D01*
X136270477Y-83208762D01*
X136318096Y-83161143D01*
X136365715Y-83065905D01*
X136365715Y-82970667D01*
X136318096Y-82875429D01*
X136270477Y-82827810D01*
X136175239Y-82780190D01*
X135984762Y-82732571D01*
X135889524Y-82684952D01*
X135841905Y-82637333D01*
X135794286Y-82542095D01*
X135794286Y-82446857D01*
X135841905Y-82351619D01*
X135889524Y-82304000D01*
X135984762Y-82256381D01*
X136222858Y-82256381D01*
X136365715Y-82304000D01*
X119316667Y-78554762D02*
X119459524Y-78602381D01*
X119697620Y-78602381D01*
X119792858Y-78554762D01*
X119840477Y-78507143D01*
X119888096Y-78411905D01*
X119888096Y-78316667D01*
X119840477Y-78221429D01*
X119792858Y-78173810D01*
X119697620Y-78126190D01*
X119507143Y-78078571D01*
X119411905Y-78030952D01*
X119364286Y-77983333D01*
X119316667Y-77888095D01*
X119316667Y-77792857D01*
X119364286Y-77697619D01*
X119411905Y-77650000D01*
X119507143Y-77602381D01*
X119745239Y-77602381D01*
X119888096Y-77650000D01*
X120221429Y-77602381D02*
X120459524Y-78602381D01*
X120650001Y-77888095D01*
X120840477Y-78602381D01*
X121078572Y-77602381D01*
X121983334Y-78602381D02*
X121411905Y-78602381D01*
X121697619Y-78602381D02*
X121697619Y-77602381D01*
X121602381Y-77745238D01*
X121507143Y-77840476D01*
X121411905Y-77888095D01*
X118150000Y-82274762D02*
X118292857Y-82322381D01*
X118530953Y-82322381D01*
X118626191Y-82274762D01*
X118673810Y-82227143D01*
X118721429Y-82131905D01*
X118721429Y-82036667D01*
X118673810Y-81941429D01*
X118626191Y-81893810D01*
X118530953Y-81846190D01*
X118340476Y-81798571D01*
X118245238Y-81750952D01*
X118197619Y-81703333D01*
X118150000Y-81608095D01*
X118150000Y-81512857D01*
X118197619Y-81417619D01*
X118245238Y-81370000D01*
X118340476Y-81322381D01*
X118578572Y-81322381D01*
X118721429Y-81370000D01*
X119054762Y-81322381D02*
X119292857Y-82322381D01*
X119483334Y-81608095D01*
X119673810Y-82322381D01*
X119911905Y-81322381D01*
X120292857Y-82322381D02*
X120292857Y-81322381D01*
X120626190Y-81322381D02*
X121197619Y-81322381D01*
X120911904Y-82322381D02*
X120911904Y-81322381D01*
X122102381Y-82227143D02*
X122054762Y-82274762D01*
X121911905Y-82322381D01*
X121816667Y-82322381D01*
X121673809Y-82274762D01*
X121578571Y-82179524D01*
X121530952Y-82084286D01*
X121483333Y-81893810D01*
X121483333Y-81750952D01*
X121530952Y-81560476D01*
X121578571Y-81465238D01*
X121673809Y-81370000D01*
X121816667Y-81322381D01*
X121911905Y-81322381D01*
X122054762Y-81370000D01*
X122102381Y-81417619D01*
X122530952Y-82322381D02*
X122530952Y-81322381D01*
X122530952Y-81798571D02*
X123102381Y-81798571D01*
X123102381Y-82322381D02*
X123102381Y-81322381D01*
M02*
