G04 #@! TF.FileFunction,Copper,L2,Bot,Signal*
%FSLAX46Y46*%
G04 Gerber Fmt 4.6, Leading zero omitted, Abs format (unit mm)*
G04 Created by KiCad (PCBNEW 4.0.5) date 03/05/17 22:01:09*
%MOMM*%
%LPD*%
G01*
G04 APERTURE LIST*
%ADD10C,0.100000*%
%ADD11C,1.727200*%
%ADD12O,1.727200X1.727200*%
%ADD13O,1.727200X2.032000*%
%ADD14C,4.064000*%
%ADD15R,1.700000X1.700000*%
%ADD16O,1.700000X1.700000*%
%ADD17C,1.400000*%
%ADD18O,1.400000X1.400000*%
%ADD19C,0.600000*%
%ADD20C,0.500000*%
%ADD21C,0.250000*%
%ADD22C,0.254000*%
G04 APERTURE END LIST*
D10*
D11*
X197358000Y-114046000D03*
D12*
X199898000Y-114046000D03*
X197358000Y-111506000D03*
X199898000Y-111506000D03*
X197358000Y-108966000D03*
X199898000Y-108966000D03*
X197358000Y-106426000D03*
X199898000Y-106426000D03*
X197358000Y-103886000D03*
X199898000Y-103886000D03*
X197358000Y-101346000D03*
X199898000Y-101346000D03*
X197358000Y-98806000D03*
X199898000Y-98806000D03*
X197358000Y-96266000D03*
X199898000Y-96266000D03*
X197358000Y-93726000D03*
X199898000Y-93726000D03*
X197358000Y-91186000D03*
X199898000Y-91186000D03*
X197358000Y-88646000D03*
X199898000Y-88646000D03*
X197358000Y-86106000D03*
X199898000Y-86106000D03*
X197358000Y-83566000D03*
X199898000Y-83566000D03*
X197358000Y-81026000D03*
X199898000Y-81026000D03*
X197358000Y-78486000D03*
X199898000Y-78486000D03*
X197358000Y-75946000D03*
X199898000Y-75946000D03*
X197358000Y-73406000D03*
X199898000Y-73406000D03*
X197358000Y-70866000D03*
X199898000Y-70866000D03*
D13*
X131318000Y-119126000D03*
X133858000Y-119126000D03*
X136398000Y-119126000D03*
X138938000Y-119126000D03*
X141478000Y-119126000D03*
X144018000Y-119126000D03*
X146558000Y-119126000D03*
X149098000Y-119126000D03*
X154178000Y-119126000D03*
X156718000Y-119126000D03*
X159258000Y-119126000D03*
X161798000Y-119126000D03*
X164338000Y-119126000D03*
X166878000Y-119126000D03*
X169418000Y-119126000D03*
X171958000Y-119126000D03*
X177038000Y-119126000D03*
X179578000Y-119126000D03*
X182118000Y-119126000D03*
X184658000Y-119126000D03*
X187198000Y-119126000D03*
X189738000Y-119126000D03*
X192278000Y-119126000D03*
X194818000Y-119126000D03*
X122174000Y-70866000D03*
X124714000Y-70866000D03*
X127254000Y-70866000D03*
X129794000Y-70866000D03*
X132334000Y-70866000D03*
X134874000Y-70866000D03*
X137414000Y-70866000D03*
X139954000Y-70866000D03*
X142494000Y-70866000D03*
X145034000Y-70866000D03*
X149098000Y-70866000D03*
X151638000Y-70866000D03*
X154178000Y-70866000D03*
X156718000Y-70866000D03*
X159258000Y-70866000D03*
X161798000Y-70866000D03*
X164338000Y-70866000D03*
X166878000Y-70866000D03*
X171958000Y-70866000D03*
X174498000Y-70866000D03*
X177038000Y-70866000D03*
X179578000Y-70866000D03*
X182118000Y-70866000D03*
X184658000Y-70866000D03*
X187198000Y-70866000D03*
X189738000Y-70866000D03*
D14*
X117348000Y-119126000D03*
X199898000Y-119126000D03*
X118618000Y-70866000D03*
X193548000Y-70866000D03*
D15*
X176530000Y-102870000D03*
D16*
X173990000Y-102870000D03*
X171450000Y-102870000D03*
X168910000Y-102870000D03*
X166370000Y-102870000D03*
X163830000Y-102870000D03*
X161290000Y-102870000D03*
X158750000Y-102870000D03*
D15*
X135890000Y-102870000D03*
D16*
X133350000Y-102870000D03*
X130810000Y-102870000D03*
X128270000Y-102870000D03*
X125730000Y-102870000D03*
X123190000Y-102870000D03*
X120650000Y-102870000D03*
X118110000Y-102870000D03*
D15*
X191770000Y-95250000D03*
D16*
X189230000Y-95250000D03*
X186690000Y-95250000D03*
X184150000Y-95250000D03*
X181610000Y-95250000D03*
X179070000Y-95250000D03*
X176530000Y-95250000D03*
X173990000Y-95250000D03*
X171450000Y-95250000D03*
X168910000Y-95250000D03*
X166370000Y-95250000D03*
X163830000Y-95250000D03*
X161290000Y-95250000D03*
X158750000Y-95250000D03*
D15*
X151130000Y-95250000D03*
D16*
X148590000Y-95250000D03*
X146050000Y-95250000D03*
X143510000Y-95250000D03*
X140970000Y-95250000D03*
X138430000Y-95250000D03*
X135890000Y-95250000D03*
X133350000Y-95250000D03*
X130810000Y-95250000D03*
X128270000Y-95250000D03*
X125730000Y-95250000D03*
X123190000Y-95250000D03*
X120650000Y-95250000D03*
X118110000Y-95250000D03*
X115570000Y-95250000D03*
D15*
X179070000Y-77724000D03*
D16*
X176530000Y-77724000D03*
X173990000Y-77724000D03*
X171450000Y-77724000D03*
X168910000Y-77724000D03*
X166370000Y-77724000D03*
X163830000Y-77724000D03*
X161290000Y-77724000D03*
X158750000Y-77724000D03*
X156210000Y-77724000D03*
X153670000Y-77724000D03*
X151130000Y-77724000D03*
X148590000Y-77724000D03*
X146050000Y-77724000D03*
X143510000Y-77724000D03*
D15*
X179070000Y-85090000D03*
D16*
X176530000Y-85090000D03*
X173990000Y-85090000D03*
X171450000Y-85090000D03*
D15*
X186690000Y-77470000D03*
D16*
X189230000Y-77470000D03*
X186690000Y-80010000D03*
X189230000Y-80010000D03*
X186690000Y-82550000D03*
X189230000Y-82550000D03*
D15*
X191770000Y-110490000D03*
D16*
X191770000Y-113030000D03*
X189230000Y-110490000D03*
X189230000Y-113030000D03*
X186690000Y-110490000D03*
X186690000Y-113030000D03*
X184150000Y-110490000D03*
X184150000Y-113030000D03*
X181610000Y-110490000D03*
X181610000Y-113030000D03*
X179070000Y-110490000D03*
X179070000Y-113030000D03*
X176530000Y-110490000D03*
X176530000Y-113030000D03*
X173990000Y-110490000D03*
X173990000Y-113030000D03*
X171450000Y-110490000D03*
X171450000Y-113030000D03*
X168910000Y-110490000D03*
X168910000Y-113030000D03*
X166370000Y-110490000D03*
X166370000Y-113030000D03*
X163830000Y-110490000D03*
X163830000Y-113030000D03*
X161290000Y-110490000D03*
X161290000Y-113030000D03*
X158750000Y-110490000D03*
X158750000Y-113030000D03*
X156210000Y-110490000D03*
X156210000Y-113030000D03*
X153670000Y-110490000D03*
X153670000Y-113030000D03*
X151130000Y-110490000D03*
X151130000Y-113030000D03*
X148590000Y-110490000D03*
X148590000Y-113030000D03*
X146050000Y-110490000D03*
X146050000Y-113030000D03*
X143510000Y-110490000D03*
X143510000Y-113030000D03*
X140970000Y-110490000D03*
X140970000Y-113030000D03*
X138430000Y-110490000D03*
X138430000Y-113030000D03*
X135890000Y-110490000D03*
X135890000Y-113030000D03*
X133350000Y-110490000D03*
X133350000Y-113030000D03*
X130810000Y-110490000D03*
X130810000Y-113030000D03*
X128270000Y-110490000D03*
X128270000Y-113030000D03*
X125730000Y-110490000D03*
X125730000Y-113030000D03*
X123190000Y-110490000D03*
X123190000Y-113030000D03*
X120650000Y-110490000D03*
X120650000Y-113030000D03*
X118110000Y-110490000D03*
X118110000Y-113030000D03*
D15*
X158750000Y-85090000D03*
D16*
X156210000Y-85090000D03*
X153670000Y-85090000D03*
X151130000Y-85090000D03*
X148590000Y-85090000D03*
X146050000Y-85090000D03*
X143510000Y-85090000D03*
D15*
X135890000Y-85090000D03*
D16*
X133350000Y-85090000D03*
X130810000Y-85090000D03*
X128270000Y-85090000D03*
D17*
X118110000Y-80010000D03*
D18*
X123190000Y-80010000D03*
D19*
X150291200Y-116421300D03*
X175235800Y-100575400D03*
X170477600Y-101254200D03*
X168889100Y-99410700D03*
X174270800Y-99998000D03*
X182575600Y-101046200D03*
X165737300Y-98178700D03*
X166396700Y-98804000D03*
X165462200Y-105657000D03*
X186951700Y-99619400D03*
X186146600Y-98378700D03*
X177894100Y-93994800D03*
X179091300Y-92757600D03*
X185605000Y-92327800D03*
X168613600Y-91332600D03*
X193682600Y-91768100D03*
X146399900Y-88527300D03*
X194690700Y-90692200D03*
X142097900Y-89824500D03*
X147419200Y-87322400D03*
X155713200Y-117193100D03*
X183174400Y-108020100D03*
X181282300Y-106764800D03*
X181964800Y-107447500D03*
X166753200Y-74100900D03*
X168413400Y-73359400D03*
X167899800Y-72733600D03*
X175675600Y-108489900D03*
X147574500Y-72096700D03*
X145162200Y-87927700D03*
X144529400Y-89234800D03*
X138932200Y-90475800D03*
X193204400Y-107560000D03*
X147938100Y-107718400D03*
D20*
X123190000Y-80585100D02*
X123190000Y-81160300D01*
X123190000Y-80585100D02*
X123190000Y-80010000D01*
X129717400Y-72332300D02*
X129794000Y-72332300D01*
X123190000Y-78859700D02*
X129717400Y-72332300D01*
X123190000Y-80010000D02*
X123190000Y-78859700D01*
X129794000Y-70866000D02*
X129794000Y-72332300D01*
X152068400Y-117171600D02*
X156210000Y-113030000D01*
X148512400Y-117171600D02*
X152068400Y-117171600D01*
X146558000Y-119126000D02*
X148512400Y-117171600D01*
X189230000Y-82550000D02*
X189230000Y-83850300D01*
X114266500Y-90083800D02*
X123190000Y-81160300D01*
X114266500Y-109186500D02*
X114266500Y-90083800D01*
X118110000Y-113030000D02*
X114266500Y-109186500D01*
X120422500Y-115342500D02*
X118110000Y-113030000D01*
X140234500Y-115342500D02*
X120422500Y-115342500D01*
X144018000Y-119126000D02*
X140234500Y-115342500D01*
X193971000Y-110659000D02*
X197358000Y-114046000D01*
X193971000Y-94391400D02*
X193971000Y-110659000D01*
X192031700Y-92452100D02*
X193971000Y-94391400D01*
X192031700Y-86652000D02*
X192031700Y-92452100D01*
X189230000Y-83850300D02*
X192031700Y-86652000D01*
D21*
X178030600Y-117784700D02*
X177038000Y-117784700D01*
X181610000Y-114205300D02*
X178030600Y-117784700D01*
X181610000Y-113030000D02*
X181610000Y-114205300D01*
X177038000Y-119126000D02*
X177038000Y-117784700D01*
X176530000Y-102870000D02*
X176530000Y-104045300D01*
X175339400Y-116086100D02*
X177038000Y-117784700D01*
X175339400Y-109038000D02*
X175339400Y-116086100D01*
X175050300Y-108748900D02*
X175339400Y-109038000D01*
X175050300Y-105525000D02*
X175050300Y-108748900D01*
X176530000Y-104045300D02*
X175050300Y-105525000D01*
X147414400Y-113544500D02*
X150291200Y-116421300D01*
X147414400Y-111665600D02*
X147414400Y-113544500D01*
X148590000Y-110490000D02*
X147414400Y-111665600D01*
X171817400Y-111854700D02*
X171450000Y-111854700D01*
X172625300Y-111046800D02*
X171817400Y-111854700D01*
X172625300Y-106672400D02*
X172625300Y-111046800D01*
X175354600Y-103943100D02*
X172625300Y-106672400D01*
X175354600Y-101875700D02*
X175354600Y-103943100D01*
X175579200Y-101651100D02*
X175354600Y-101875700D01*
X176940900Y-101651100D02*
X175579200Y-101651100D01*
X182974700Y-95617300D02*
X176940900Y-101651100D01*
X182974700Y-95250000D02*
X182974700Y-95617300D01*
X184150000Y-95250000D02*
X182974700Y-95250000D01*
X171450000Y-113030000D02*
X171450000Y-111854700D01*
X182974700Y-94854800D02*
X182974700Y-95250000D01*
X177321800Y-89201900D02*
X182974700Y-94854800D01*
X170082800Y-89201900D02*
X177321800Y-89201900D01*
X160747500Y-79866600D02*
X170082800Y-89201900D01*
X159118900Y-79866600D02*
X160747500Y-79866600D01*
X157480000Y-78227700D02*
X159118900Y-79866600D01*
X157480000Y-77321800D02*
X157480000Y-78227700D01*
X152905300Y-72747100D02*
X157480000Y-77321800D01*
X151647900Y-72747100D02*
X152905300Y-72747100D01*
X150286900Y-71386100D02*
X151647900Y-72747100D01*
X150286900Y-70866000D02*
X150286900Y-71386100D01*
X149098000Y-70866000D02*
X150286900Y-70866000D01*
X186690000Y-80010000D02*
X187865300Y-80010000D01*
X197358000Y-111506000D02*
X197358000Y-110317100D01*
X196986400Y-110317100D02*
X197358000Y-110317100D01*
X196169100Y-109499800D02*
X196986400Y-110317100D01*
X196169100Y-95775800D02*
X196169100Y-109499800D01*
X192607000Y-92213700D02*
X196169100Y-95775800D01*
X192607000Y-84247800D02*
X192607000Y-92213700D01*
X189544500Y-81185300D02*
X192607000Y-84247800D01*
X188673200Y-81185300D02*
X189544500Y-81185300D01*
X187865300Y-80377400D02*
X188673200Y-81185300D01*
X187865300Y-80010000D02*
X187865300Y-80377400D01*
X199898000Y-108966000D02*
X199898000Y-107777100D01*
X199526400Y-107777100D02*
X199898000Y-107777100D01*
X198709100Y-106959800D02*
X199526400Y-107777100D01*
X198709100Y-95894100D02*
X198709100Y-106959800D01*
X197892000Y-95077000D02*
X198709100Y-95894100D01*
X196107200Y-95077000D02*
X197892000Y-95077000D01*
X193057300Y-92027100D02*
X196107200Y-95077000D01*
X193057300Y-83837300D02*
X193057300Y-92027100D01*
X189230000Y-80010000D02*
X193057300Y-83837300D01*
X173990000Y-95250000D02*
X173990000Y-96425300D01*
X175235800Y-97671100D02*
X175235800Y-100575400D01*
X173990000Y-96425300D02*
X175235800Y-97671100D01*
X163830000Y-113030000D02*
X163830000Y-111854700D01*
X176530000Y-95250000D02*
X175354700Y-95250000D01*
X175354700Y-94889500D02*
X175354700Y-95250000D01*
X174498700Y-94033500D02*
X175354700Y-94889500D01*
X170998200Y-94033500D02*
X174498700Y-94033500D01*
X170241100Y-94790600D02*
X170998200Y-94033500D01*
X170241100Y-100215100D02*
X170241100Y-94790600D01*
X169839800Y-100616400D02*
X170241100Y-100215100D01*
X169494100Y-100616400D02*
X169839800Y-100616400D01*
X167545300Y-102565200D02*
X169494100Y-100616400D01*
X167545300Y-104525400D02*
X167545300Y-102565200D01*
X165064600Y-107006100D02*
X167545300Y-104525400D01*
X165064600Y-110987500D02*
X165064600Y-107006100D01*
X164197400Y-111854700D02*
X165064600Y-110987500D01*
X163830000Y-111854700D02*
X164197400Y-111854700D01*
X169839800Y-100616400D02*
X170477600Y-101254200D01*
X168910000Y-99389800D02*
X168889100Y-99410700D01*
X168910000Y-95250000D02*
X168910000Y-99389800D01*
X171450000Y-95250000D02*
X171450000Y-96312700D01*
X172382400Y-100265400D02*
X172382400Y-99998000D01*
X170274700Y-102373100D02*
X172382400Y-100265400D01*
X170274700Y-106401400D02*
X170274700Y-102373100D01*
X168910000Y-107766100D02*
X170274700Y-106401400D01*
X168910000Y-110490000D02*
X168910000Y-107766100D01*
X172382400Y-97245100D02*
X171450000Y-96312700D01*
X172382400Y-99998000D02*
X172382400Y-97245100D01*
X172382400Y-99998000D02*
X174270800Y-99998000D01*
X176530000Y-110490000D02*
X176530000Y-109314700D01*
X163983900Y-96425300D02*
X165737300Y-98178700D01*
X163830000Y-96425300D02*
X163983900Y-96425300D01*
X163830000Y-95250000D02*
X163830000Y-96425300D01*
X176530000Y-107091800D02*
X182575600Y-101046200D01*
X176530000Y-109314700D02*
X176530000Y-107091800D01*
X166370000Y-98777300D02*
X166370000Y-95250000D01*
X166396700Y-98804000D02*
X166370000Y-98777300D01*
X165157000Y-105351800D02*
X165462200Y-105657000D01*
X165157000Y-100043700D02*
X165157000Y-105351800D01*
X166396700Y-98804000D02*
X165157000Y-100043700D01*
X181610000Y-110490000D02*
X181610000Y-109314700D01*
X181610000Y-107977000D02*
X181610000Y-109314700D01*
X180656900Y-107023900D02*
X181610000Y-107977000D01*
X180656900Y-105914200D02*
X180656900Y-107023900D01*
X186951700Y-99619400D02*
X180656900Y-105914200D01*
X179070000Y-110490000D02*
X179070000Y-109314700D01*
X183651200Y-100874100D02*
X186146600Y-98378700D01*
X183651200Y-101491900D02*
X183651200Y-100874100D01*
X179070000Y-106073100D02*
X183651200Y-101491900D01*
X179070000Y-109314700D02*
X179070000Y-106073100D01*
X177032200Y-93132900D02*
X177894100Y-93994800D01*
X171684500Y-93132900D02*
X177032200Y-93132900D01*
X161505400Y-82953800D02*
X171684500Y-93132900D01*
X158899800Y-82953800D02*
X161505400Y-82953800D01*
X153670000Y-77724000D02*
X158899800Y-82953800D01*
X175986000Y-89652300D02*
X179091300Y-92757600D01*
X169896300Y-89652300D02*
X175986000Y-89652300D01*
X162072100Y-81828100D02*
X169896300Y-89652300D01*
X160314100Y-81828100D02*
X162072100Y-81828100D01*
X156210000Y-77724000D02*
X160314100Y-81828100D01*
X181817900Y-88540700D02*
X185605000Y-92327800D01*
X170374600Y-88540700D02*
X181817900Y-88540700D01*
X159925300Y-78091400D02*
X170374600Y-88540700D01*
X159925300Y-77724000D02*
X159925300Y-78091400D01*
X158750000Y-77724000D02*
X159925300Y-77724000D01*
X151130000Y-77724000D02*
X152305300Y-77724000D01*
X160685100Y-83404100D02*
X168613600Y-91332600D01*
X157618100Y-83404100D02*
X160685100Y-83404100D01*
X152305300Y-78091300D02*
X157618100Y-83404100D01*
X152305300Y-77724000D02*
X152305300Y-78091300D01*
X127094700Y-97600600D02*
X128270000Y-96425300D01*
X127094700Y-110857400D02*
X127094700Y-97600600D01*
X126097400Y-111854700D02*
X127094700Y-110857400D01*
X125730000Y-111854700D02*
X126097400Y-111854700D01*
X125730000Y-113030000D02*
X125730000Y-111854700D01*
X128270000Y-95250000D02*
X128270000Y-96425300D01*
X149954700Y-97600600D02*
X151130000Y-96425300D01*
X149954700Y-110857400D02*
X149954700Y-97600600D01*
X148957400Y-111854700D02*
X149954700Y-110857400D01*
X148590000Y-111854700D02*
X148957400Y-111854700D01*
X148590000Y-113030000D02*
X148590000Y-111854700D01*
X151130000Y-95250000D02*
X151130000Y-96425300D01*
X197358000Y-73406000D02*
X197358000Y-74594900D01*
X193682600Y-77898800D02*
X193682600Y-91768100D01*
X196986500Y-74594900D02*
X193682600Y-77898800D01*
X197358000Y-74594900D02*
X196986500Y-74594900D01*
X122014700Y-94882600D02*
X122014700Y-95250000D01*
X121206800Y-94074700D02*
X122014700Y-94882600D01*
X120134500Y-94074700D02*
X121206800Y-94074700D01*
X119469900Y-94739300D02*
X120134500Y-94074700D01*
X119469900Y-111041900D02*
X119469900Y-94739300D01*
X120282700Y-111854700D02*
X119469900Y-111041900D01*
X120650000Y-111854700D02*
X120282700Y-111854700D01*
X120650000Y-113030000D02*
X120650000Y-111854700D01*
X123190000Y-95250000D02*
X122014700Y-95250000D01*
X146050000Y-95250000D02*
X146050000Y-94074700D01*
X146399900Y-93724800D02*
X146399900Y-88527300D01*
X146050000Y-94074700D02*
X146399900Y-93724800D01*
X144874700Y-97600600D02*
X146050000Y-96425300D01*
X144874700Y-110857400D02*
X144874700Y-97600600D01*
X143877400Y-111854700D02*
X144874700Y-110857400D01*
X143510000Y-111854700D02*
X143877400Y-111854700D01*
X143510000Y-113030000D02*
X143510000Y-111854700D01*
X146050000Y-95250000D02*
X146050000Y-96425300D01*
X139794700Y-97600600D02*
X140970000Y-96425300D01*
X139794700Y-110857400D02*
X139794700Y-97600600D01*
X138797400Y-111854700D02*
X139794700Y-110857400D01*
X138430000Y-111854700D02*
X138797400Y-111854700D01*
X138430000Y-113030000D02*
X138430000Y-111854700D01*
X140970000Y-95250000D02*
X140970000Y-96425300D01*
X197358000Y-78486000D02*
X197358000Y-79674900D01*
X194690700Y-81970700D02*
X194690700Y-90692200D01*
X196986500Y-79674900D02*
X194690700Y-81970700D01*
X197358000Y-79674900D02*
X196986500Y-79674900D01*
X135890000Y-95250000D02*
X137065300Y-95250000D01*
X137065300Y-94857100D02*
X142097900Y-89824500D01*
X137065300Y-95250000D02*
X137065300Y-94857100D01*
X134714700Y-97600600D02*
X135890000Y-96425300D01*
X134714700Y-110857400D02*
X134714700Y-97600600D01*
X133717400Y-111854700D02*
X134714700Y-110857400D01*
X133350000Y-111854700D02*
X133717400Y-111854700D01*
X133350000Y-113030000D02*
X133350000Y-111854700D01*
X135890000Y-95250000D02*
X135890000Y-96425300D01*
X146050000Y-113030000D02*
X146050000Y-111854700D01*
X148590000Y-108534300D02*
X148590000Y-95250000D01*
X147225300Y-109899000D02*
X148590000Y-108534300D01*
X147225300Y-111046800D02*
X147225300Y-109899000D01*
X146417400Y-111854700D02*
X147225300Y-111046800D01*
X146050000Y-111854700D02*
X146417400Y-111854700D01*
X148590000Y-88493200D02*
X148590000Y-94074700D01*
X147419200Y-87322400D02*
X148590000Y-88493200D01*
X148590000Y-95250000D02*
X148590000Y-94074700D01*
X156304800Y-117784700D02*
X156718000Y-117784700D01*
X155713200Y-117193100D02*
X156304800Y-117784700D01*
X156718000Y-119126000D02*
X156718000Y-117784700D01*
X165689100Y-119646100D02*
X165689100Y-119126000D01*
X164835000Y-120500200D02*
X165689100Y-119646100D01*
X146051400Y-120500200D02*
X164835000Y-120500200D01*
X145288000Y-119736800D02*
X146051400Y-120500200D01*
X145288000Y-118519000D02*
X145288000Y-119736800D01*
X140974400Y-114205400D02*
X145288000Y-118519000D01*
X135384100Y-114205400D02*
X140974400Y-114205400D01*
X134685300Y-113506600D02*
X135384100Y-114205400D01*
X134685300Y-111694700D02*
X134685300Y-113506600D01*
X135890000Y-110490000D02*
X134685300Y-111694700D01*
X166878000Y-119126000D02*
X165689100Y-119126000D01*
X180766900Y-117588400D02*
X180766900Y-119126000D01*
X184150000Y-114205300D02*
X180766900Y-117588400D01*
X179578000Y-119126000D02*
X180766900Y-119126000D01*
X184150000Y-113030000D02*
X184150000Y-114205300D01*
X186690000Y-113030000D02*
X186690000Y-111854700D01*
X183413400Y-108020100D02*
X183174400Y-108020100D01*
X185514700Y-110121400D02*
X183413400Y-108020100D01*
X185514700Y-111046800D02*
X185514700Y-110121400D01*
X186322600Y-111854700D02*
X185514700Y-111046800D01*
X186690000Y-111854700D02*
X186322600Y-111854700D01*
X184658000Y-119126000D02*
X183469100Y-119126000D01*
X168910000Y-102870000D02*
X168910000Y-104045300D01*
X167731600Y-105223700D02*
X168910000Y-104045300D01*
X167731600Y-113563800D02*
X167731600Y-105223700D01*
X169884600Y-115716800D02*
X167731600Y-113563800D01*
X171225500Y-115716800D02*
X169884600Y-115716800D01*
X175982700Y-120474000D02*
X171225500Y-115716800D01*
X182641200Y-120474000D02*
X175982700Y-120474000D01*
X183469100Y-119646100D02*
X182641200Y-120474000D01*
X183469100Y-119126000D02*
X183469100Y-119646100D01*
X191770000Y-110490000D02*
X190594700Y-110490000D01*
X187236800Y-106764800D02*
X181282300Y-106764800D01*
X190594700Y-110122700D02*
X187236800Y-106764800D01*
X190594700Y-110490000D02*
X190594700Y-110122700D01*
X189230000Y-110490000D02*
X188054700Y-110490000D01*
X189597400Y-111665300D02*
X189230000Y-111665300D01*
X190405300Y-112473200D02*
X189597400Y-111665300D01*
X190405300Y-117117400D02*
X190405300Y-112473200D01*
X189738000Y-117784700D02*
X190405300Y-117117400D01*
X189738000Y-119126000D02*
X189738000Y-117784700D01*
X189230000Y-110490000D02*
X189230000Y-111665300D01*
X182065200Y-107347100D02*
X181964800Y-107447500D01*
X185270300Y-107347100D02*
X182065200Y-107347100D01*
X188054700Y-110131500D02*
X185270300Y-107347100D01*
X188054700Y-110490000D02*
X188054700Y-110131500D01*
X193629100Y-119646100D02*
X193629100Y-119126000D01*
X192775000Y-120500200D02*
X193629100Y-119646100D01*
X189218200Y-120500200D02*
X192775000Y-120500200D01*
X188468000Y-119750000D02*
X189218200Y-120500200D01*
X188468000Y-117164200D02*
X188468000Y-119750000D01*
X185325300Y-114021500D02*
X188468000Y-117164200D01*
X185325300Y-112473200D02*
X185325300Y-114021500D01*
X184517400Y-111665300D02*
X185325300Y-112473200D01*
X184150000Y-111665300D02*
X184517400Y-111665300D01*
X184150000Y-110490000D02*
X184150000Y-111665300D01*
X194818000Y-119126000D02*
X193629100Y-119126000D01*
X171450000Y-77724000D02*
X170274700Y-77724000D01*
X167018900Y-74100900D02*
X166753200Y-74100900D01*
X170274700Y-77356700D02*
X167018900Y-74100900D01*
X170274700Y-77724000D02*
X170274700Y-77356700D01*
X169625400Y-73359400D02*
X168413400Y-73359400D01*
X173990000Y-77724000D02*
X169625400Y-73359400D01*
X170710400Y-72733600D02*
X167899800Y-72733600D01*
X175354700Y-77377900D02*
X170710400Y-72733600D01*
X175354700Y-77724000D02*
X175354700Y-77377900D01*
X176530000Y-77724000D02*
X175354700Y-77724000D01*
X179070000Y-77724000D02*
X177894700Y-77724000D01*
X139954000Y-70866000D02*
X141142900Y-70866000D01*
X141142900Y-70345900D02*
X141142900Y-70866000D01*
X142464800Y-69024000D02*
X141142900Y-70345900D01*
X168261000Y-69024000D02*
X142464800Y-69024000D01*
X175335300Y-76098300D02*
X168261000Y-69024000D01*
X176636400Y-76098300D02*
X175335300Y-76098300D01*
X177894700Y-77356600D02*
X176636400Y-76098300D01*
X177894700Y-77724000D02*
X177894700Y-77356600D01*
X179070000Y-95250000D02*
X177894700Y-95250000D01*
X157574600Y-86096800D02*
X157574600Y-83864600D01*
X160020000Y-88542200D02*
X157574600Y-86096800D01*
X160020000Y-107407800D02*
X160020000Y-88542200D01*
X162542000Y-109929800D02*
X160020000Y-107407800D01*
X162542000Y-113441700D02*
X162542000Y-109929800D01*
X163333000Y-114232700D02*
X162542000Y-113441700D01*
X164359300Y-114232700D02*
X163333000Y-114232700D01*
X165194700Y-113397300D02*
X164359300Y-114232700D01*
X165194700Y-113030000D02*
X165194700Y-113397300D01*
X142494000Y-72456900D02*
X142494000Y-70866000D01*
X147320000Y-77282900D02*
X142494000Y-72456900D01*
X147320000Y-78116300D02*
X147320000Y-77282900D01*
X153068300Y-83864600D02*
X147320000Y-78116300D01*
X157574600Y-83864600D02*
X153068300Y-83864600D01*
X166370000Y-113030000D02*
X165194700Y-113030000D01*
X177894700Y-94952400D02*
X177894700Y-95250000D01*
X176525500Y-93583200D02*
X177894700Y-94952400D01*
X169433100Y-93583200D02*
X176525500Y-93583200D01*
X159714500Y-83864600D02*
X169433100Y-93583200D01*
X157574600Y-83864600D02*
X159714500Y-83864600D01*
X181610000Y-95250000D02*
X180434700Y-95250000D01*
X168910000Y-113030000D02*
X168910000Y-111854700D01*
X169277400Y-111854700D02*
X168910000Y-111854700D01*
X170085300Y-111046800D02*
X169277400Y-111854700D01*
X170085300Y-108498700D02*
X170085300Y-111046800D01*
X172696200Y-105887800D02*
X170085300Y-108498700D01*
X172696200Y-102475300D02*
X172696200Y-105887800D01*
X173970800Y-101200700D02*
X172696200Y-102475300D01*
X175494900Y-101200700D02*
X173970800Y-101200700D01*
X180434700Y-96260900D02*
X175494900Y-101200700D01*
X180434700Y-95250000D02*
X180434700Y-96260900D01*
X180434700Y-94915700D02*
X180434700Y-95250000D01*
X178904000Y-93385000D02*
X180434700Y-94915700D01*
X178201600Y-93385000D02*
X178904000Y-93385000D01*
X177365800Y-92549200D02*
X178201600Y-93385000D01*
X172156300Y-92549200D02*
X177365800Y-92549200D01*
X162110600Y-82503500D02*
X172156300Y-92549200D01*
X159323100Y-82503500D02*
X162110600Y-82503500D01*
X154940000Y-78120400D02*
X159323100Y-82503500D01*
X154940000Y-77308000D02*
X154940000Y-78120400D01*
X152169300Y-74537300D02*
X154940000Y-77308000D01*
X150899500Y-74537300D02*
X152169300Y-74537300D01*
X147228200Y-70866000D02*
X150899500Y-74537300D01*
X145034000Y-70866000D02*
X147228200Y-70866000D01*
X186690000Y-95250000D02*
X186690000Y-94074700D01*
X151638000Y-70866000D02*
X152826900Y-70866000D01*
X186690000Y-90545400D02*
X186690000Y-94074700D01*
X175948100Y-79803500D02*
X186690000Y-90545400D01*
X174365200Y-79803500D02*
X175948100Y-79803500D01*
X172720000Y-78158300D02*
X174365200Y-79803500D01*
X172720000Y-77323200D02*
X172720000Y-78158300D01*
X169434300Y-74037500D02*
X172720000Y-77323200D01*
X168192100Y-74037500D02*
X169434300Y-74037500D01*
X165608000Y-71453400D02*
X168192100Y-74037500D01*
X165608000Y-70242600D02*
X165608000Y-71453400D01*
X164845600Y-69480200D02*
X165608000Y-70242600D01*
X153692600Y-69480200D02*
X164845600Y-69480200D01*
X152826900Y-70345900D02*
X153692600Y-69480200D01*
X152826900Y-70866000D02*
X152826900Y-70345900D01*
X175675600Y-106264400D02*
X186690000Y-95250000D01*
X175675600Y-108489900D02*
X175675600Y-106264400D01*
X155366900Y-71386100D02*
X155366900Y-70866000D01*
X156277500Y-72296700D02*
X155366900Y-71386100D01*
X157616500Y-72296700D02*
X156277500Y-72296700D01*
X162560000Y-77240200D02*
X157616500Y-72296700D01*
X162560000Y-78129500D02*
X162560000Y-77240200D01*
X170698500Y-86268000D02*
X162560000Y-78129500D01*
X174544000Y-86268000D02*
X170698500Y-86268000D01*
X175354700Y-85457300D02*
X174544000Y-86268000D01*
X175354700Y-85090000D02*
X175354700Y-85457300D01*
X176530000Y-85090000D02*
X175354700Y-85090000D01*
X154178000Y-70866000D02*
X155366900Y-70866000D01*
X148590000Y-77724000D02*
X148590000Y-76548700D01*
X147574500Y-75533200D02*
X147574500Y-72096700D01*
X148590000Y-76548700D02*
X147574500Y-75533200D01*
X160446900Y-72054900D02*
X160446900Y-70866000D01*
X165100000Y-76708000D02*
X160446900Y-72054900D01*
X165100000Y-78152300D02*
X165100000Y-76708000D01*
X170862400Y-83914700D02*
X165100000Y-78152300D01*
X171450000Y-83914700D02*
X170862400Y-83914700D01*
X171450000Y-85090000D02*
X171450000Y-83914700D01*
X159258000Y-70866000D02*
X160446900Y-70866000D01*
X173990000Y-85090000D02*
X173990000Y-83914700D01*
X161798000Y-70866000D02*
X161798000Y-72207300D01*
X173402400Y-83914700D02*
X173990000Y-83914700D01*
X167640000Y-78152300D02*
X173402400Y-83914700D01*
X167640000Y-77306600D02*
X167640000Y-78152300D01*
X162540700Y-72207300D02*
X167640000Y-77306600D01*
X161798000Y-72207300D02*
X162540700Y-72207300D01*
X177038000Y-70866000D02*
X177038000Y-72207300D01*
X189230000Y-94662300D02*
X189230000Y-94074700D01*
X189230000Y-94662300D02*
X189230000Y-95250000D01*
X189230000Y-90065300D02*
X189230000Y-94074700D01*
X182611200Y-83446500D02*
X189230000Y-90065300D01*
X182611200Y-77780500D02*
X182611200Y-83446500D01*
X177038000Y-72207300D02*
X182611200Y-77780500D01*
X176530000Y-113030000D02*
X176530000Y-111854700D01*
X189230000Y-95250000D02*
X188054700Y-95250000D01*
X188054700Y-95655800D02*
X188054700Y-95250000D01*
X187285200Y-96425300D02*
X188054700Y-95655800D01*
X187175100Y-96425300D02*
X187285200Y-96425300D01*
X183200900Y-100399500D02*
X187175100Y-96425300D01*
X183200900Y-101305300D02*
X183200900Y-100399500D01*
X177705300Y-106800900D02*
X183200900Y-101305300D01*
X177705300Y-111046800D02*
X177705300Y-106800900D01*
X176897400Y-111854700D02*
X177705300Y-111046800D01*
X176530000Y-111854700D02*
X176897400Y-111854700D01*
X191770000Y-95250000D02*
X191770000Y-94074700D01*
X179578000Y-70866000D02*
X180766900Y-70866000D01*
X190658200Y-92962900D02*
X191770000Y-94074700D01*
X190658200Y-90779700D02*
X190658200Y-92962900D01*
X184418600Y-84540100D02*
X190658200Y-90779700D01*
X184418600Y-75706600D02*
X184418600Y-84540100D01*
X180766900Y-72054900D02*
X184418600Y-75706600D01*
X180766900Y-70866000D02*
X180766900Y-72054900D01*
X179070000Y-113030000D02*
X179070000Y-111854700D01*
X191770000Y-95250000D02*
X190594700Y-95250000D01*
X190594700Y-95617400D02*
X190594700Y-95250000D01*
X189786800Y-96425300D02*
X190594700Y-95617400D01*
X189261300Y-96425300D02*
X189786800Y-96425300D01*
X184101500Y-101585100D02*
X189261300Y-96425300D01*
X184101500Y-101678500D02*
X184101500Y-101585100D01*
X180206600Y-105573400D02*
X184101500Y-101678500D01*
X180206600Y-107210500D02*
X180206600Y-105573400D01*
X180245300Y-107249200D02*
X180206600Y-107210500D01*
X180245300Y-111046800D02*
X180245300Y-107249200D01*
X179437400Y-111854700D02*
X180245300Y-111046800D01*
X179070000Y-111854700D02*
X179437400Y-111854700D01*
X145162200Y-92422500D02*
X145162200Y-87927700D01*
X143510000Y-94074700D02*
X145162200Y-92422500D01*
X143510000Y-95250000D02*
X143510000Y-94074700D01*
X142334700Y-97600600D02*
X143510000Y-96425300D01*
X142334700Y-110857400D02*
X142334700Y-97600600D01*
X141337400Y-111854700D02*
X142334700Y-110857400D01*
X140970000Y-111854700D02*
X141337400Y-111854700D01*
X140970000Y-113030000D02*
X140970000Y-111854700D01*
X143510000Y-95250000D02*
X143510000Y-96425300D01*
X137065300Y-97119600D02*
X138430000Y-95754900D01*
X137065300Y-111046800D02*
X137065300Y-97119600D01*
X136257400Y-111854700D02*
X137065300Y-111046800D01*
X135890000Y-111854700D02*
X136257400Y-111854700D01*
X135890000Y-113030000D02*
X135890000Y-111854700D01*
X138430000Y-95250000D02*
X138430000Y-95502400D01*
X138430000Y-95502400D02*
X138430000Y-95754900D01*
X144529400Y-89403000D02*
X144529400Y-89234800D01*
X138430000Y-95502400D02*
X144529400Y-89403000D01*
X133350000Y-95250000D02*
X134525300Y-95250000D01*
X132174700Y-97600600D02*
X133350000Y-96425300D01*
X132174700Y-110857400D02*
X132174700Y-97600600D01*
X131177400Y-111854700D02*
X132174700Y-110857400D01*
X130810000Y-111854700D02*
X131177400Y-111854700D01*
X130810000Y-113030000D02*
X130810000Y-111854700D01*
X133350000Y-95250000D02*
X133350000Y-96425300D01*
X134525300Y-94882700D02*
X138932200Y-90475800D01*
X134525300Y-95250000D02*
X134525300Y-94882700D01*
X129634700Y-97600600D02*
X130810000Y-96425300D01*
X129634700Y-110857400D02*
X129634700Y-97600600D01*
X128637400Y-111854700D02*
X129634700Y-110857400D01*
X128270000Y-111854700D02*
X128637400Y-111854700D01*
X128270000Y-113030000D02*
X128270000Y-111854700D01*
X130810000Y-95250000D02*
X130810000Y-96425300D01*
X121825300Y-97600600D02*
X120650000Y-96425300D01*
X121825300Y-107950000D02*
X121825300Y-97600600D01*
X123190000Y-109314700D02*
X121825300Y-107950000D01*
X123190000Y-110490000D02*
X123190000Y-109314700D01*
X120650000Y-95250000D02*
X120650000Y-96425300D01*
D20*
X196044100Y-71956200D02*
X190530300Y-77470000D01*
X196044100Y-70866000D02*
X196044100Y-71956200D01*
X197358000Y-70866000D02*
X196044100Y-70866000D01*
X189230000Y-77470000D02*
X190530300Y-77470000D01*
X191770000Y-113030000D02*
X193070300Y-113030000D01*
X197358000Y-70866000D02*
X198671900Y-70866000D01*
X199898000Y-70866000D02*
X198671900Y-70866000D01*
X196168400Y-119820900D02*
X196168400Y-115365900D01*
X194913700Y-121075600D02*
X196168400Y-119820900D01*
X143427600Y-121075600D02*
X194913700Y-121075600D01*
X141478000Y-119126000D02*
X143427600Y-121075600D01*
X195406200Y-115365900D02*
X196168400Y-115365900D01*
X193070300Y-113030000D02*
X195406200Y-115365900D01*
X201240000Y-72208000D02*
X199898000Y-70866000D01*
X201240000Y-114567100D02*
X201240000Y-72208000D01*
X200441200Y-115365900D02*
X201240000Y-114567100D01*
X196168400Y-115365900D02*
X200441200Y-115365900D01*
D21*
X135209100Y-118605900D02*
X135209100Y-119126000D01*
X133736700Y-117133500D02*
X135209100Y-118605900D01*
X120512800Y-117133500D02*
X133736700Y-117133500D01*
X113686000Y-110306700D02*
X120512800Y-117133500D01*
X113686000Y-84434000D02*
X113686000Y-110306700D01*
X118110000Y-80010000D02*
X113686000Y-84434000D01*
X136398000Y-119126000D02*
X135209100Y-119126000D01*
X186690000Y-82550000D02*
X186690000Y-83725300D01*
X193204400Y-94438500D02*
X193204400Y-107560000D01*
X191456400Y-92690500D02*
X193204400Y-94438500D01*
X191456400Y-88491700D02*
X191456400Y-92690500D01*
X186690000Y-83725300D02*
X191456400Y-88491700D01*
X158750000Y-85090000D02*
X158750000Y-86265300D01*
X163830000Y-110490000D02*
X163830000Y-109314700D01*
X162645500Y-108130200D02*
X163830000Y-109314700D01*
X162645500Y-90160800D02*
X162645500Y-108130200D01*
X158750000Y-86265300D02*
X162645500Y-90160800D01*
X156210000Y-85090000D02*
X156210000Y-86265300D01*
X161290000Y-110490000D02*
X161290000Y-109314700D01*
X157253600Y-87308900D02*
X156210000Y-86265300D01*
X157253600Y-105278300D02*
X157253600Y-87308900D01*
X161290000Y-109314700D02*
X157253600Y-105278300D01*
X139147600Y-83007700D02*
X137065300Y-85090000D01*
X150739500Y-83007700D02*
X139147600Y-83007700D01*
X152481400Y-84749600D02*
X150739500Y-83007700D01*
X152481400Y-86497000D02*
X152481400Y-84749600D01*
X155998700Y-90014300D02*
X152481400Y-86497000D01*
X155998700Y-106881700D02*
X155998700Y-90014300D01*
X157395900Y-108278900D02*
X155998700Y-106881700D01*
X157395900Y-110820100D02*
X157395900Y-108278900D01*
X158430500Y-111854700D02*
X157395900Y-110820100D01*
X159306800Y-111854700D02*
X158430500Y-111854700D01*
X160114700Y-112662600D02*
X159306800Y-111854700D01*
X160114700Y-113030000D02*
X160114700Y-112662600D01*
X161290000Y-113030000D02*
X160114700Y-113030000D01*
X135890000Y-85090000D02*
X137065300Y-85090000D01*
X153670000Y-85090000D02*
X153670000Y-86265300D01*
X158750000Y-110490000D02*
X158750000Y-109314700D01*
X156449100Y-89044400D02*
X153670000Y-86265300D01*
X156449100Y-106377000D02*
X156449100Y-89044400D01*
X158750000Y-108677900D02*
X156449100Y-106377000D01*
X158750000Y-109314700D02*
X158750000Y-108677900D01*
X158750000Y-113030000D02*
X157574700Y-113030000D01*
X133350000Y-85090000D02*
X134525300Y-85090000D01*
X157574700Y-112662600D02*
X157574700Y-113030000D01*
X156766800Y-111854700D02*
X157574700Y-112662600D01*
X155873700Y-111854700D02*
X156766800Y-111854700D01*
X154872800Y-110853800D02*
X155873700Y-111854700D01*
X154872800Y-91428400D02*
X154872800Y-110853800D01*
X149860000Y-86415600D02*
X154872800Y-91428400D01*
X149860000Y-84630700D02*
X149860000Y-86415600D01*
X148687400Y-83458100D02*
X149860000Y-84630700D01*
X141442000Y-83458100D02*
X148687400Y-83458100D01*
X138634800Y-86265300D02*
X141442000Y-83458100D01*
X134892500Y-86265300D02*
X138634800Y-86265300D01*
X134525300Y-85898100D02*
X134892500Y-86265300D01*
X134525300Y-85090000D02*
X134525300Y-85898100D01*
X151130000Y-85090000D02*
X151130000Y-86265300D01*
X156210000Y-110490000D02*
X156210000Y-109314700D01*
X155323200Y-108427900D02*
X156210000Y-109314700D01*
X155323200Y-90458500D02*
X155323200Y-108427900D01*
X151130000Y-86265300D02*
X155323200Y-90458500D01*
X148590000Y-85090000D02*
X148590000Y-86265300D01*
X153670000Y-91345300D02*
X148590000Y-86265300D01*
X153670000Y-110490000D02*
X153670000Y-91345300D01*
X153670000Y-113030000D02*
X153670000Y-111854700D01*
X130810000Y-85090000D02*
X131985300Y-85090000D01*
X131985300Y-85457300D02*
X131985300Y-85090000D01*
X133251600Y-86723600D02*
X131985300Y-85457300D01*
X139450300Y-86723600D02*
X133251600Y-86723600D01*
X142265400Y-83908500D02*
X139450300Y-86723600D01*
X146569500Y-83908500D02*
X142265400Y-83908500D01*
X147320000Y-84659000D02*
X146569500Y-83908500D01*
X147320000Y-85646400D02*
X147320000Y-84659000D01*
X152769400Y-91095800D02*
X147320000Y-85646400D01*
X152769400Y-96562500D02*
X152769400Y-91095800D01*
X152494700Y-96837200D02*
X152769400Y-96562500D01*
X152494700Y-111046800D02*
X152494700Y-96837200D01*
X153302600Y-111854700D02*
X152494700Y-111046800D01*
X153670000Y-111854700D02*
X153302600Y-111854700D01*
X151130000Y-110490000D02*
X151130000Y-109314700D01*
X146050000Y-85090000D02*
X146050000Y-86265300D01*
X147246600Y-86265300D02*
X146050000Y-86265300D01*
X152319100Y-91337800D02*
X147246600Y-86265300D01*
X152319100Y-96339900D02*
X152319100Y-91337800D01*
X151130000Y-97529000D02*
X152319100Y-96339900D01*
X151130000Y-109314700D02*
X151130000Y-97529000D01*
X128270000Y-85090000D02*
X129445300Y-85090000D01*
X147396900Y-107177200D02*
X147938100Y-107718400D01*
X147396900Y-88621600D02*
X147396900Y-107177200D01*
X146067600Y-87292300D02*
X147396900Y-88621600D01*
X131280300Y-87292300D02*
X146067600Y-87292300D01*
X129445300Y-85457300D02*
X131280300Y-87292300D01*
X129445300Y-85090000D02*
X129445300Y-85457300D01*
X124554700Y-97600600D02*
X125730000Y-96425300D01*
X124554700Y-110857400D02*
X124554700Y-97600600D01*
X123557400Y-111854700D02*
X124554700Y-110857400D01*
X123190000Y-111854700D02*
X123557400Y-111854700D01*
X123190000Y-113030000D02*
X123190000Y-111854700D01*
X125730000Y-95250000D02*
X125730000Y-96425300D01*
D22*
G36*
X116358345Y-69353293D02*
X115951464Y-70333173D01*
X115950538Y-71394172D01*
X116355709Y-72374761D01*
X117105293Y-73125655D01*
X118085173Y-73532536D01*
X119146172Y-73533462D01*
X120126761Y-73128291D01*
X120877655Y-72378707D01*
X121037071Y-71994789D01*
X121114330Y-72110415D01*
X121600511Y-72435271D01*
X122174000Y-72549345D01*
X122747489Y-72435271D01*
X123233670Y-72110415D01*
X123444000Y-71795634D01*
X123654330Y-72110415D01*
X124140511Y-72435271D01*
X124714000Y-72549345D01*
X125287489Y-72435271D01*
X125773670Y-72110415D01*
X125984000Y-71795634D01*
X126194330Y-72110415D01*
X126680511Y-72435271D01*
X127254000Y-72549345D01*
X127827489Y-72435271D01*
X128313670Y-72110415D01*
X128520461Y-71800931D01*
X128891964Y-72216732D01*
X129419209Y-72470709D01*
X129434974Y-72473358D01*
X129667000Y-72352217D01*
X129667000Y-70993000D01*
X129647000Y-70993000D01*
X129647000Y-70739000D01*
X129667000Y-70739000D01*
X129667000Y-69379783D01*
X129434974Y-69258642D01*
X129419209Y-69261291D01*
X128891964Y-69515268D01*
X128520461Y-69931069D01*
X128313670Y-69621585D01*
X127827489Y-69296729D01*
X127254000Y-69182655D01*
X126680511Y-69296729D01*
X126194330Y-69621585D01*
X125984000Y-69936366D01*
X125773670Y-69621585D01*
X125287489Y-69296729D01*
X124714000Y-69182655D01*
X124140511Y-69296729D01*
X123654330Y-69621585D01*
X123444000Y-69936366D01*
X123233670Y-69621585D01*
X122747489Y-69296729D01*
X122174000Y-69182655D01*
X121600511Y-69296729D01*
X121114330Y-69621585D01*
X121037208Y-69737007D01*
X120880291Y-69357239D01*
X120559612Y-69036000D01*
X141377998Y-69036000D01*
X140881036Y-69532962D01*
X140527489Y-69296729D01*
X139954000Y-69182655D01*
X139380511Y-69296729D01*
X138894330Y-69621585D01*
X138684000Y-69936366D01*
X138473670Y-69621585D01*
X137987489Y-69296729D01*
X137414000Y-69182655D01*
X136840511Y-69296729D01*
X136354330Y-69621585D01*
X136144000Y-69936366D01*
X135933670Y-69621585D01*
X135447489Y-69296729D01*
X134874000Y-69182655D01*
X134300511Y-69296729D01*
X133814330Y-69621585D01*
X133604000Y-69936366D01*
X133393670Y-69621585D01*
X132907489Y-69296729D01*
X132334000Y-69182655D01*
X131760511Y-69296729D01*
X131274330Y-69621585D01*
X131067539Y-69931069D01*
X130696036Y-69515268D01*
X130168791Y-69261291D01*
X130153026Y-69258642D01*
X129921000Y-69379783D01*
X129921000Y-70739000D01*
X129941000Y-70739000D01*
X129941000Y-70993000D01*
X129921000Y-70993000D01*
X129921000Y-72352217D01*
X130153026Y-72473358D01*
X130168791Y-72470709D01*
X130696036Y-72216732D01*
X131067539Y-71800931D01*
X131274330Y-72110415D01*
X131760511Y-72435271D01*
X132334000Y-72549345D01*
X132907489Y-72435271D01*
X133393670Y-72110415D01*
X133604000Y-71795634D01*
X133814330Y-72110415D01*
X134300511Y-72435271D01*
X134874000Y-72549345D01*
X135447489Y-72435271D01*
X135933670Y-72110415D01*
X136144000Y-71795634D01*
X136354330Y-72110415D01*
X136840511Y-72435271D01*
X137414000Y-72549345D01*
X137987489Y-72435271D01*
X138473670Y-72110415D01*
X138684000Y-71795634D01*
X138894330Y-72110415D01*
X139380511Y-72435271D01*
X139954000Y-72549345D01*
X140527489Y-72435271D01*
X141013670Y-72110415D01*
X141224000Y-71795634D01*
X141434330Y-72110415D01*
X141734000Y-72310648D01*
X141734000Y-72456900D01*
X141791852Y-72747739D01*
X141956599Y-72994301D01*
X145363939Y-76401641D01*
X144999946Y-76644853D01*
X144780000Y-76974026D01*
X144560054Y-76644853D01*
X144078285Y-76322946D01*
X143510000Y-76209907D01*
X142941715Y-76322946D01*
X142459946Y-76644853D01*
X142138039Y-77126622D01*
X142025000Y-77694907D01*
X142025000Y-77753093D01*
X142138039Y-78321378D01*
X142459946Y-78803147D01*
X142941715Y-79125054D01*
X143510000Y-79238093D01*
X144078285Y-79125054D01*
X144560054Y-78803147D01*
X144780000Y-78473974D01*
X144999946Y-78803147D01*
X145481715Y-79125054D01*
X146050000Y-79238093D01*
X146618285Y-79125054D01*
X146999340Y-78870442D01*
X150376598Y-82247700D01*
X139147600Y-82247700D01*
X138856761Y-82305552D01*
X138610199Y-82470299D01*
X137238486Y-83842012D01*
X137204090Y-83788559D01*
X136991890Y-83643569D01*
X136740000Y-83592560D01*
X135040000Y-83592560D01*
X134804683Y-83636838D01*
X134588559Y-83775910D01*
X134443569Y-83988110D01*
X134429914Y-84055541D01*
X134400054Y-84010853D01*
X133918285Y-83688946D01*
X133350000Y-83575907D01*
X132781715Y-83688946D01*
X132299946Y-84010853D01*
X132080000Y-84340026D01*
X131860054Y-84010853D01*
X131378285Y-83688946D01*
X130810000Y-83575907D01*
X130241715Y-83688946D01*
X129759946Y-84010853D01*
X129540000Y-84340026D01*
X129320054Y-84010853D01*
X128838285Y-83688946D01*
X128270000Y-83575907D01*
X127701715Y-83688946D01*
X127219946Y-84010853D01*
X126898039Y-84492622D01*
X126785000Y-85060907D01*
X126785000Y-85119093D01*
X126898039Y-85687378D01*
X127219946Y-86169147D01*
X127701715Y-86491054D01*
X128270000Y-86604093D01*
X128838285Y-86491054D01*
X129177558Y-86264360D01*
X130742899Y-87829701D01*
X130989461Y-87994448D01*
X131280300Y-88052300D01*
X144227091Y-88052300D01*
X144227038Y-88112867D01*
X144310047Y-88313764D01*
X144000457Y-88441683D01*
X143737208Y-88704473D01*
X143594562Y-89048001D01*
X143594375Y-89263223D01*
X143032901Y-89824697D01*
X143033062Y-89639333D01*
X142891017Y-89295557D01*
X142628227Y-89032308D01*
X142284699Y-88889662D01*
X141912733Y-88889338D01*
X141568957Y-89031383D01*
X141305708Y-89294173D01*
X141163062Y-89637701D01*
X141163021Y-89684577D01*
X136782212Y-94065386D01*
X136563532Y-93919270D01*
X139071880Y-91410922D01*
X139117367Y-91410962D01*
X139461143Y-91268917D01*
X139724392Y-91006127D01*
X139867038Y-90662599D01*
X139867362Y-90290633D01*
X139725317Y-89946857D01*
X139462527Y-89683608D01*
X139118999Y-89540962D01*
X138747033Y-89540638D01*
X138403257Y-89682683D01*
X138140008Y-89945473D01*
X137997362Y-90289001D01*
X137997321Y-90335877D01*
X134257558Y-94075640D01*
X133918285Y-93848946D01*
X133350000Y-93735907D01*
X132781715Y-93848946D01*
X132299946Y-94170853D01*
X132080000Y-94500026D01*
X131860054Y-94170853D01*
X131378285Y-93848946D01*
X130810000Y-93735907D01*
X130241715Y-93848946D01*
X129759946Y-94170853D01*
X129540000Y-94500026D01*
X129320054Y-94170853D01*
X128838285Y-93848946D01*
X128270000Y-93735907D01*
X127701715Y-93848946D01*
X127219946Y-94170853D01*
X127000000Y-94500026D01*
X126780054Y-94170853D01*
X126298285Y-93848946D01*
X125730000Y-93735907D01*
X125161715Y-93848946D01*
X124679946Y-94170853D01*
X124460000Y-94500026D01*
X124240054Y-94170853D01*
X123758285Y-93848946D01*
X123190000Y-93735907D01*
X122621715Y-93848946D01*
X122282502Y-94075600D01*
X121744201Y-93537299D01*
X121497639Y-93372552D01*
X121206800Y-93314700D01*
X120134500Y-93314700D01*
X119843660Y-93372552D01*
X119597099Y-93537299D01*
X119042255Y-94092143D01*
X118678285Y-93848946D01*
X118110000Y-93735907D01*
X117541715Y-93848946D01*
X117059946Y-94170853D01*
X116840000Y-94500026D01*
X116620054Y-94170853D01*
X116138285Y-93848946D01*
X115570000Y-93735907D01*
X115001715Y-93848946D01*
X114519946Y-94170853D01*
X114446000Y-94281521D01*
X114446000Y-84748802D01*
X117850028Y-81344774D01*
X118374383Y-81345231D01*
X118865229Y-81142418D01*
X119241098Y-80767204D01*
X119417106Y-80343329D01*
X121897284Y-80343329D01*
X122040203Y-80688396D01*
X122387337Y-81076764D01*
X122856669Y-81302727D01*
X123063000Y-81180206D01*
X123063000Y-80137000D01*
X123317000Y-80137000D01*
X123317000Y-81180206D01*
X123523331Y-81302727D01*
X123992663Y-81076764D01*
X124339797Y-80688396D01*
X124482716Y-80343329D01*
X124359374Y-80137000D01*
X123317000Y-80137000D01*
X123063000Y-80137000D01*
X122020626Y-80137000D01*
X121897284Y-80343329D01*
X119417106Y-80343329D01*
X119444768Y-80276713D01*
X119445231Y-79745617D01*
X119416744Y-79676671D01*
X121897284Y-79676671D01*
X122020626Y-79883000D01*
X123063000Y-79883000D01*
X123063000Y-78839794D01*
X123317000Y-78839794D01*
X123317000Y-79883000D01*
X124359374Y-79883000D01*
X124482716Y-79676671D01*
X124339797Y-79331604D01*
X123992663Y-78943236D01*
X123523331Y-78717273D01*
X123317000Y-78839794D01*
X123063000Y-78839794D01*
X122856669Y-78717273D01*
X122387337Y-78943236D01*
X122040203Y-79331604D01*
X121897284Y-79676671D01*
X119416744Y-79676671D01*
X119242418Y-79254771D01*
X118867204Y-78878902D01*
X118376713Y-78675232D01*
X117845617Y-78674769D01*
X117354771Y-78877582D01*
X116978902Y-79252796D01*
X116775232Y-79743287D01*
X116774772Y-80270426D01*
X113148599Y-83896599D01*
X112983852Y-84143161D01*
X112926000Y-84434000D01*
X112926000Y-110306700D01*
X112983852Y-110597539D01*
X113148599Y-110844101D01*
X119975399Y-117670901D01*
X120221961Y-117835648D01*
X120512800Y-117893500D01*
X130250369Y-117893500D01*
X129933474Y-118367766D01*
X129819400Y-118941255D01*
X129819400Y-119310745D01*
X129933474Y-119884234D01*
X130258330Y-120370415D01*
X130744511Y-120695271D01*
X131318000Y-120809345D01*
X131891489Y-120695271D01*
X132377670Y-120370415D01*
X132588000Y-120055634D01*
X132798330Y-120370415D01*
X133284511Y-120695271D01*
X133858000Y-120809345D01*
X134431489Y-120695271D01*
X134917670Y-120370415D01*
X135128000Y-120055634D01*
X135338330Y-120370415D01*
X135824511Y-120695271D01*
X136398000Y-120809345D01*
X136971489Y-120695271D01*
X137457670Y-120370415D01*
X137668000Y-120055634D01*
X137878330Y-120370415D01*
X138364511Y-120695271D01*
X138938000Y-120809345D01*
X139511489Y-120695271D01*
X139997670Y-120370415D01*
X140208000Y-120055634D01*
X140418330Y-120370415D01*
X140904511Y-120695271D01*
X141478000Y-120809345D01*
X141838131Y-120737711D01*
X142056421Y-120956000D01*
X119289807Y-120956000D01*
X119607655Y-120638707D01*
X120014536Y-119658827D01*
X120015462Y-118597828D01*
X119610291Y-117617239D01*
X118860707Y-116866345D01*
X117880827Y-116459464D01*
X116819828Y-116458538D01*
X115839239Y-116863709D01*
X115088345Y-117613293D01*
X114681464Y-118593173D01*
X114680538Y-119654172D01*
X115085709Y-120634761D01*
X115406388Y-120956000D01*
X112470000Y-120956000D01*
X112470000Y-69036000D01*
X116676193Y-69036000D01*
X116358345Y-69353293D01*
X116358345Y-69353293D01*
G37*
X116358345Y-69353293D02*
X115951464Y-70333173D01*
X115950538Y-71394172D01*
X116355709Y-72374761D01*
X117105293Y-73125655D01*
X118085173Y-73532536D01*
X119146172Y-73533462D01*
X120126761Y-73128291D01*
X120877655Y-72378707D01*
X121037071Y-71994789D01*
X121114330Y-72110415D01*
X121600511Y-72435271D01*
X122174000Y-72549345D01*
X122747489Y-72435271D01*
X123233670Y-72110415D01*
X123444000Y-71795634D01*
X123654330Y-72110415D01*
X124140511Y-72435271D01*
X124714000Y-72549345D01*
X125287489Y-72435271D01*
X125773670Y-72110415D01*
X125984000Y-71795634D01*
X126194330Y-72110415D01*
X126680511Y-72435271D01*
X127254000Y-72549345D01*
X127827489Y-72435271D01*
X128313670Y-72110415D01*
X128520461Y-71800931D01*
X128891964Y-72216732D01*
X129419209Y-72470709D01*
X129434974Y-72473358D01*
X129667000Y-72352217D01*
X129667000Y-70993000D01*
X129647000Y-70993000D01*
X129647000Y-70739000D01*
X129667000Y-70739000D01*
X129667000Y-69379783D01*
X129434974Y-69258642D01*
X129419209Y-69261291D01*
X128891964Y-69515268D01*
X128520461Y-69931069D01*
X128313670Y-69621585D01*
X127827489Y-69296729D01*
X127254000Y-69182655D01*
X126680511Y-69296729D01*
X126194330Y-69621585D01*
X125984000Y-69936366D01*
X125773670Y-69621585D01*
X125287489Y-69296729D01*
X124714000Y-69182655D01*
X124140511Y-69296729D01*
X123654330Y-69621585D01*
X123444000Y-69936366D01*
X123233670Y-69621585D01*
X122747489Y-69296729D01*
X122174000Y-69182655D01*
X121600511Y-69296729D01*
X121114330Y-69621585D01*
X121037208Y-69737007D01*
X120880291Y-69357239D01*
X120559612Y-69036000D01*
X141377998Y-69036000D01*
X140881036Y-69532962D01*
X140527489Y-69296729D01*
X139954000Y-69182655D01*
X139380511Y-69296729D01*
X138894330Y-69621585D01*
X138684000Y-69936366D01*
X138473670Y-69621585D01*
X137987489Y-69296729D01*
X137414000Y-69182655D01*
X136840511Y-69296729D01*
X136354330Y-69621585D01*
X136144000Y-69936366D01*
X135933670Y-69621585D01*
X135447489Y-69296729D01*
X134874000Y-69182655D01*
X134300511Y-69296729D01*
X133814330Y-69621585D01*
X133604000Y-69936366D01*
X133393670Y-69621585D01*
X132907489Y-69296729D01*
X132334000Y-69182655D01*
X131760511Y-69296729D01*
X131274330Y-69621585D01*
X131067539Y-69931069D01*
X130696036Y-69515268D01*
X130168791Y-69261291D01*
X130153026Y-69258642D01*
X129921000Y-69379783D01*
X129921000Y-70739000D01*
X129941000Y-70739000D01*
X129941000Y-70993000D01*
X129921000Y-70993000D01*
X129921000Y-72352217D01*
X130153026Y-72473358D01*
X130168791Y-72470709D01*
X130696036Y-72216732D01*
X131067539Y-71800931D01*
X131274330Y-72110415D01*
X131760511Y-72435271D01*
X132334000Y-72549345D01*
X132907489Y-72435271D01*
X133393670Y-72110415D01*
X133604000Y-71795634D01*
X133814330Y-72110415D01*
X134300511Y-72435271D01*
X134874000Y-72549345D01*
X135447489Y-72435271D01*
X135933670Y-72110415D01*
X136144000Y-71795634D01*
X136354330Y-72110415D01*
X136840511Y-72435271D01*
X137414000Y-72549345D01*
X137987489Y-72435271D01*
X138473670Y-72110415D01*
X138684000Y-71795634D01*
X138894330Y-72110415D01*
X139380511Y-72435271D01*
X139954000Y-72549345D01*
X140527489Y-72435271D01*
X141013670Y-72110415D01*
X141224000Y-71795634D01*
X141434330Y-72110415D01*
X141734000Y-72310648D01*
X141734000Y-72456900D01*
X141791852Y-72747739D01*
X141956599Y-72994301D01*
X145363939Y-76401641D01*
X144999946Y-76644853D01*
X144780000Y-76974026D01*
X144560054Y-76644853D01*
X144078285Y-76322946D01*
X143510000Y-76209907D01*
X142941715Y-76322946D01*
X142459946Y-76644853D01*
X142138039Y-77126622D01*
X142025000Y-77694907D01*
X142025000Y-77753093D01*
X142138039Y-78321378D01*
X142459946Y-78803147D01*
X142941715Y-79125054D01*
X143510000Y-79238093D01*
X144078285Y-79125054D01*
X144560054Y-78803147D01*
X144780000Y-78473974D01*
X144999946Y-78803147D01*
X145481715Y-79125054D01*
X146050000Y-79238093D01*
X146618285Y-79125054D01*
X146999340Y-78870442D01*
X150376598Y-82247700D01*
X139147600Y-82247700D01*
X138856761Y-82305552D01*
X138610199Y-82470299D01*
X137238486Y-83842012D01*
X137204090Y-83788559D01*
X136991890Y-83643569D01*
X136740000Y-83592560D01*
X135040000Y-83592560D01*
X134804683Y-83636838D01*
X134588559Y-83775910D01*
X134443569Y-83988110D01*
X134429914Y-84055541D01*
X134400054Y-84010853D01*
X133918285Y-83688946D01*
X133350000Y-83575907D01*
X132781715Y-83688946D01*
X132299946Y-84010853D01*
X132080000Y-84340026D01*
X131860054Y-84010853D01*
X131378285Y-83688946D01*
X130810000Y-83575907D01*
X130241715Y-83688946D01*
X129759946Y-84010853D01*
X129540000Y-84340026D01*
X129320054Y-84010853D01*
X128838285Y-83688946D01*
X128270000Y-83575907D01*
X127701715Y-83688946D01*
X127219946Y-84010853D01*
X126898039Y-84492622D01*
X126785000Y-85060907D01*
X126785000Y-85119093D01*
X126898039Y-85687378D01*
X127219946Y-86169147D01*
X127701715Y-86491054D01*
X128270000Y-86604093D01*
X128838285Y-86491054D01*
X129177558Y-86264360D01*
X130742899Y-87829701D01*
X130989461Y-87994448D01*
X131280300Y-88052300D01*
X144227091Y-88052300D01*
X144227038Y-88112867D01*
X144310047Y-88313764D01*
X144000457Y-88441683D01*
X143737208Y-88704473D01*
X143594562Y-89048001D01*
X143594375Y-89263223D01*
X143032901Y-89824697D01*
X143033062Y-89639333D01*
X142891017Y-89295557D01*
X142628227Y-89032308D01*
X142284699Y-88889662D01*
X141912733Y-88889338D01*
X141568957Y-89031383D01*
X141305708Y-89294173D01*
X141163062Y-89637701D01*
X141163021Y-89684577D01*
X136782212Y-94065386D01*
X136563532Y-93919270D01*
X139071880Y-91410922D01*
X139117367Y-91410962D01*
X139461143Y-91268917D01*
X139724392Y-91006127D01*
X139867038Y-90662599D01*
X139867362Y-90290633D01*
X139725317Y-89946857D01*
X139462527Y-89683608D01*
X139118999Y-89540962D01*
X138747033Y-89540638D01*
X138403257Y-89682683D01*
X138140008Y-89945473D01*
X137997362Y-90289001D01*
X137997321Y-90335877D01*
X134257558Y-94075640D01*
X133918285Y-93848946D01*
X133350000Y-93735907D01*
X132781715Y-93848946D01*
X132299946Y-94170853D01*
X132080000Y-94500026D01*
X131860054Y-94170853D01*
X131378285Y-93848946D01*
X130810000Y-93735907D01*
X130241715Y-93848946D01*
X129759946Y-94170853D01*
X129540000Y-94500026D01*
X129320054Y-94170853D01*
X128838285Y-93848946D01*
X128270000Y-93735907D01*
X127701715Y-93848946D01*
X127219946Y-94170853D01*
X127000000Y-94500026D01*
X126780054Y-94170853D01*
X126298285Y-93848946D01*
X125730000Y-93735907D01*
X125161715Y-93848946D01*
X124679946Y-94170853D01*
X124460000Y-94500026D01*
X124240054Y-94170853D01*
X123758285Y-93848946D01*
X123190000Y-93735907D01*
X122621715Y-93848946D01*
X122282502Y-94075600D01*
X121744201Y-93537299D01*
X121497639Y-93372552D01*
X121206800Y-93314700D01*
X120134500Y-93314700D01*
X119843660Y-93372552D01*
X119597099Y-93537299D01*
X119042255Y-94092143D01*
X118678285Y-93848946D01*
X118110000Y-93735907D01*
X117541715Y-93848946D01*
X117059946Y-94170853D01*
X116840000Y-94500026D01*
X116620054Y-94170853D01*
X116138285Y-93848946D01*
X115570000Y-93735907D01*
X115001715Y-93848946D01*
X114519946Y-94170853D01*
X114446000Y-94281521D01*
X114446000Y-84748802D01*
X117850028Y-81344774D01*
X118374383Y-81345231D01*
X118865229Y-81142418D01*
X119241098Y-80767204D01*
X119417106Y-80343329D01*
X121897284Y-80343329D01*
X122040203Y-80688396D01*
X122387337Y-81076764D01*
X122856669Y-81302727D01*
X123063000Y-81180206D01*
X123063000Y-80137000D01*
X123317000Y-80137000D01*
X123317000Y-81180206D01*
X123523331Y-81302727D01*
X123992663Y-81076764D01*
X124339797Y-80688396D01*
X124482716Y-80343329D01*
X124359374Y-80137000D01*
X123317000Y-80137000D01*
X123063000Y-80137000D01*
X122020626Y-80137000D01*
X121897284Y-80343329D01*
X119417106Y-80343329D01*
X119444768Y-80276713D01*
X119445231Y-79745617D01*
X119416744Y-79676671D01*
X121897284Y-79676671D01*
X122020626Y-79883000D01*
X123063000Y-79883000D01*
X123063000Y-78839794D01*
X123317000Y-78839794D01*
X123317000Y-79883000D01*
X124359374Y-79883000D01*
X124482716Y-79676671D01*
X124339797Y-79331604D01*
X123992663Y-78943236D01*
X123523331Y-78717273D01*
X123317000Y-78839794D01*
X123063000Y-78839794D01*
X122856669Y-78717273D01*
X122387337Y-78943236D01*
X122040203Y-79331604D01*
X121897284Y-79676671D01*
X119416744Y-79676671D01*
X119242418Y-79254771D01*
X118867204Y-78878902D01*
X118376713Y-78675232D01*
X117845617Y-78674769D01*
X117354771Y-78877582D01*
X116978902Y-79252796D01*
X116775232Y-79743287D01*
X116774772Y-80270426D01*
X113148599Y-83896599D01*
X112983852Y-84143161D01*
X112926000Y-84434000D01*
X112926000Y-110306700D01*
X112983852Y-110597539D01*
X113148599Y-110844101D01*
X119975399Y-117670901D01*
X120221961Y-117835648D01*
X120512800Y-117893500D01*
X130250369Y-117893500D01*
X129933474Y-118367766D01*
X129819400Y-118941255D01*
X129819400Y-119310745D01*
X129933474Y-119884234D01*
X130258330Y-120370415D01*
X130744511Y-120695271D01*
X131318000Y-120809345D01*
X131891489Y-120695271D01*
X132377670Y-120370415D01*
X132588000Y-120055634D01*
X132798330Y-120370415D01*
X133284511Y-120695271D01*
X133858000Y-120809345D01*
X134431489Y-120695271D01*
X134917670Y-120370415D01*
X135128000Y-120055634D01*
X135338330Y-120370415D01*
X135824511Y-120695271D01*
X136398000Y-120809345D01*
X136971489Y-120695271D01*
X137457670Y-120370415D01*
X137668000Y-120055634D01*
X137878330Y-120370415D01*
X138364511Y-120695271D01*
X138938000Y-120809345D01*
X139511489Y-120695271D01*
X139997670Y-120370415D01*
X140208000Y-120055634D01*
X140418330Y-120370415D01*
X140904511Y-120695271D01*
X141478000Y-120809345D01*
X141838131Y-120737711D01*
X142056421Y-120956000D01*
X119289807Y-120956000D01*
X119607655Y-120638707D01*
X120014536Y-119658827D01*
X120015462Y-118597828D01*
X119610291Y-117617239D01*
X118860707Y-116866345D01*
X117880827Y-116459464D01*
X116819828Y-116458538D01*
X115839239Y-116863709D01*
X115088345Y-117613293D01*
X114681464Y-118593173D01*
X114680538Y-119654172D01*
X115085709Y-120634761D01*
X115406388Y-120956000D01*
X112470000Y-120956000D01*
X112470000Y-69036000D01*
X116676193Y-69036000D01*
X116358345Y-69353293D01*
G36*
X156337000Y-112903000D02*
X156357000Y-112903000D01*
X156357000Y-113157000D01*
X156337000Y-113157000D01*
X156337000Y-114350155D01*
X156566890Y-114471476D01*
X156976924Y-114301645D01*
X157405183Y-113911358D01*
X157471789Y-113769530D01*
X157473210Y-113769812D01*
X157699946Y-114109147D01*
X158181715Y-114431054D01*
X158750000Y-114544093D01*
X159318285Y-114431054D01*
X159800054Y-114109147D01*
X160020000Y-113779974D01*
X160239946Y-114109147D01*
X160721715Y-114431054D01*
X161290000Y-114544093D01*
X161858285Y-114431054D01*
X162216920Y-114191422D01*
X162795599Y-114770101D01*
X163042161Y-114934848D01*
X163333000Y-114992700D01*
X164359300Y-114992700D01*
X164650139Y-114934848D01*
X164896701Y-114770101D01*
X165462442Y-114204360D01*
X165801715Y-114431054D01*
X166370000Y-114544093D01*
X166938285Y-114431054D01*
X167289427Y-114196429D01*
X169347199Y-116254201D01*
X169593761Y-116418948D01*
X169884600Y-116476800D01*
X170910698Y-116476800D01*
X171890066Y-117456168D01*
X171384511Y-117556729D01*
X170898330Y-117881585D01*
X170688000Y-118196366D01*
X170477670Y-117881585D01*
X169991489Y-117556729D01*
X169418000Y-117442655D01*
X168844511Y-117556729D01*
X168358330Y-117881585D01*
X168148000Y-118196366D01*
X167937670Y-117881585D01*
X167451489Y-117556729D01*
X166878000Y-117442655D01*
X166304511Y-117556729D01*
X165818330Y-117881585D01*
X165608000Y-118196366D01*
X165397670Y-117881585D01*
X164911489Y-117556729D01*
X164338000Y-117442655D01*
X163764511Y-117556729D01*
X163278330Y-117881585D01*
X163068000Y-118196366D01*
X162857670Y-117881585D01*
X162371489Y-117556729D01*
X161798000Y-117442655D01*
X161224511Y-117556729D01*
X160738330Y-117881585D01*
X160528000Y-118196366D01*
X160317670Y-117881585D01*
X159831489Y-117556729D01*
X159258000Y-117442655D01*
X158684511Y-117556729D01*
X158198330Y-117881585D01*
X157988000Y-118196366D01*
X157777670Y-117881585D01*
X157454291Y-117665510D01*
X157420148Y-117493861D01*
X157255401Y-117247299D01*
X157008839Y-117082552D01*
X156718000Y-117024700D01*
X156648347Y-117024700D01*
X156648362Y-117007933D01*
X156506317Y-116664157D01*
X156243527Y-116400908D01*
X155899999Y-116258262D01*
X155528033Y-116257938D01*
X155184257Y-116399983D01*
X154921008Y-116662773D01*
X154778362Y-117006301D01*
X154778038Y-117378267D01*
X154890024Y-117649295D01*
X154751489Y-117556729D01*
X154178000Y-117442655D01*
X153604511Y-117556729D01*
X153118330Y-117881585D01*
X152793474Y-118367766D01*
X152679400Y-118941255D01*
X152679400Y-119310745D01*
X152764824Y-119740200D01*
X150511176Y-119740200D01*
X150596600Y-119310745D01*
X150596600Y-118941255D01*
X150482526Y-118367766D01*
X150157670Y-117881585D01*
X149671489Y-117556729D01*
X149098000Y-117442655D01*
X148524511Y-117556729D01*
X148038330Y-117881585D01*
X147831539Y-118191069D01*
X147460036Y-117775268D01*
X146932791Y-117521291D01*
X146917026Y-117518642D01*
X146685000Y-117639783D01*
X146685000Y-118999000D01*
X146705000Y-118999000D01*
X146705000Y-119253000D01*
X146685000Y-119253000D01*
X146685000Y-119273000D01*
X146431000Y-119273000D01*
X146431000Y-119253000D01*
X146411000Y-119253000D01*
X146411000Y-118999000D01*
X146431000Y-118999000D01*
X146431000Y-117639783D01*
X146198974Y-117518642D01*
X146183209Y-117521291D01*
X145655964Y-117775268D01*
X145638555Y-117794753D01*
X141979827Y-114136025D01*
X142020054Y-114109147D01*
X142240000Y-113779974D01*
X142459946Y-114109147D01*
X142941715Y-114431054D01*
X143510000Y-114544093D01*
X144078285Y-114431054D01*
X144560054Y-114109147D01*
X144780000Y-113779974D01*
X144999946Y-114109147D01*
X145481715Y-114431054D01*
X146050000Y-114544093D01*
X146618285Y-114431054D01*
X146982675Y-114187577D01*
X149356078Y-116560980D01*
X149356038Y-116606467D01*
X149498083Y-116950243D01*
X149760873Y-117213492D01*
X150104401Y-117356138D01*
X150476367Y-117356462D01*
X150820143Y-117214417D01*
X151083392Y-116951627D01*
X151226038Y-116608099D01*
X151226362Y-116236133D01*
X151084317Y-115892357D01*
X150821527Y-115629108D01*
X150477999Y-115486462D01*
X150431123Y-115486421D01*
X149288649Y-114343947D01*
X149640054Y-114109147D01*
X149860000Y-113779974D01*
X150079946Y-114109147D01*
X150561715Y-114431054D01*
X151130000Y-114544093D01*
X151698285Y-114431054D01*
X152180054Y-114109147D01*
X152400000Y-113779974D01*
X152619946Y-114109147D01*
X153101715Y-114431054D01*
X153670000Y-114544093D01*
X154238285Y-114431054D01*
X154720054Y-114109147D01*
X154947702Y-113768447D01*
X155014817Y-113911358D01*
X155443076Y-114301645D01*
X155853110Y-114471476D01*
X156083000Y-114350155D01*
X156083000Y-113157000D01*
X156063000Y-113157000D01*
X156063000Y-112903000D01*
X156083000Y-112903000D01*
X156083000Y-112883000D01*
X156337000Y-112883000D01*
X156337000Y-112903000D01*
X156337000Y-112903000D01*
G37*
X156337000Y-112903000D02*
X156357000Y-112903000D01*
X156357000Y-113157000D01*
X156337000Y-113157000D01*
X156337000Y-114350155D01*
X156566890Y-114471476D01*
X156976924Y-114301645D01*
X157405183Y-113911358D01*
X157471789Y-113769530D01*
X157473210Y-113769812D01*
X157699946Y-114109147D01*
X158181715Y-114431054D01*
X158750000Y-114544093D01*
X159318285Y-114431054D01*
X159800054Y-114109147D01*
X160020000Y-113779974D01*
X160239946Y-114109147D01*
X160721715Y-114431054D01*
X161290000Y-114544093D01*
X161858285Y-114431054D01*
X162216920Y-114191422D01*
X162795599Y-114770101D01*
X163042161Y-114934848D01*
X163333000Y-114992700D01*
X164359300Y-114992700D01*
X164650139Y-114934848D01*
X164896701Y-114770101D01*
X165462442Y-114204360D01*
X165801715Y-114431054D01*
X166370000Y-114544093D01*
X166938285Y-114431054D01*
X167289427Y-114196429D01*
X169347199Y-116254201D01*
X169593761Y-116418948D01*
X169884600Y-116476800D01*
X170910698Y-116476800D01*
X171890066Y-117456168D01*
X171384511Y-117556729D01*
X170898330Y-117881585D01*
X170688000Y-118196366D01*
X170477670Y-117881585D01*
X169991489Y-117556729D01*
X169418000Y-117442655D01*
X168844511Y-117556729D01*
X168358330Y-117881585D01*
X168148000Y-118196366D01*
X167937670Y-117881585D01*
X167451489Y-117556729D01*
X166878000Y-117442655D01*
X166304511Y-117556729D01*
X165818330Y-117881585D01*
X165608000Y-118196366D01*
X165397670Y-117881585D01*
X164911489Y-117556729D01*
X164338000Y-117442655D01*
X163764511Y-117556729D01*
X163278330Y-117881585D01*
X163068000Y-118196366D01*
X162857670Y-117881585D01*
X162371489Y-117556729D01*
X161798000Y-117442655D01*
X161224511Y-117556729D01*
X160738330Y-117881585D01*
X160528000Y-118196366D01*
X160317670Y-117881585D01*
X159831489Y-117556729D01*
X159258000Y-117442655D01*
X158684511Y-117556729D01*
X158198330Y-117881585D01*
X157988000Y-118196366D01*
X157777670Y-117881585D01*
X157454291Y-117665510D01*
X157420148Y-117493861D01*
X157255401Y-117247299D01*
X157008839Y-117082552D01*
X156718000Y-117024700D01*
X156648347Y-117024700D01*
X156648362Y-117007933D01*
X156506317Y-116664157D01*
X156243527Y-116400908D01*
X155899999Y-116258262D01*
X155528033Y-116257938D01*
X155184257Y-116399983D01*
X154921008Y-116662773D01*
X154778362Y-117006301D01*
X154778038Y-117378267D01*
X154890024Y-117649295D01*
X154751489Y-117556729D01*
X154178000Y-117442655D01*
X153604511Y-117556729D01*
X153118330Y-117881585D01*
X152793474Y-118367766D01*
X152679400Y-118941255D01*
X152679400Y-119310745D01*
X152764824Y-119740200D01*
X150511176Y-119740200D01*
X150596600Y-119310745D01*
X150596600Y-118941255D01*
X150482526Y-118367766D01*
X150157670Y-117881585D01*
X149671489Y-117556729D01*
X149098000Y-117442655D01*
X148524511Y-117556729D01*
X148038330Y-117881585D01*
X147831539Y-118191069D01*
X147460036Y-117775268D01*
X146932791Y-117521291D01*
X146917026Y-117518642D01*
X146685000Y-117639783D01*
X146685000Y-118999000D01*
X146705000Y-118999000D01*
X146705000Y-119253000D01*
X146685000Y-119253000D01*
X146685000Y-119273000D01*
X146431000Y-119273000D01*
X146431000Y-119253000D01*
X146411000Y-119253000D01*
X146411000Y-118999000D01*
X146431000Y-118999000D01*
X146431000Y-117639783D01*
X146198974Y-117518642D01*
X146183209Y-117521291D01*
X145655964Y-117775268D01*
X145638555Y-117794753D01*
X141979827Y-114136025D01*
X142020054Y-114109147D01*
X142240000Y-113779974D01*
X142459946Y-114109147D01*
X142941715Y-114431054D01*
X143510000Y-114544093D01*
X144078285Y-114431054D01*
X144560054Y-114109147D01*
X144780000Y-113779974D01*
X144999946Y-114109147D01*
X145481715Y-114431054D01*
X146050000Y-114544093D01*
X146618285Y-114431054D01*
X146982675Y-114187577D01*
X149356078Y-116560980D01*
X149356038Y-116606467D01*
X149498083Y-116950243D01*
X149760873Y-117213492D01*
X150104401Y-117356138D01*
X150476367Y-117356462D01*
X150820143Y-117214417D01*
X151083392Y-116951627D01*
X151226038Y-116608099D01*
X151226362Y-116236133D01*
X151084317Y-115892357D01*
X150821527Y-115629108D01*
X150477999Y-115486462D01*
X150431123Y-115486421D01*
X149288649Y-114343947D01*
X149640054Y-114109147D01*
X149860000Y-113779974D01*
X150079946Y-114109147D01*
X150561715Y-114431054D01*
X151130000Y-114544093D01*
X151698285Y-114431054D01*
X152180054Y-114109147D01*
X152400000Y-113779974D01*
X152619946Y-114109147D01*
X153101715Y-114431054D01*
X153670000Y-114544093D01*
X154238285Y-114431054D01*
X154720054Y-114109147D01*
X154947702Y-113768447D01*
X155014817Y-113911358D01*
X155443076Y-114301645D01*
X155853110Y-114471476D01*
X156083000Y-114350155D01*
X156083000Y-113157000D01*
X156063000Y-113157000D01*
X156063000Y-112903000D01*
X156083000Y-112903000D01*
X156083000Y-112883000D01*
X156337000Y-112883000D01*
X156337000Y-112903000D01*
G36*
X144145000Y-118999000D02*
X144165000Y-118999000D01*
X144165000Y-119253000D01*
X144145000Y-119253000D01*
X144145000Y-119273000D01*
X143891000Y-119273000D01*
X143891000Y-119253000D01*
X143871000Y-119253000D01*
X143871000Y-118999000D01*
X143891000Y-118999000D01*
X143891000Y-118979000D01*
X144145000Y-118979000D01*
X144145000Y-118999000D01*
X144145000Y-118999000D01*
G37*
X144145000Y-118999000D02*
X144165000Y-118999000D01*
X144165000Y-119253000D01*
X144145000Y-119253000D01*
X144145000Y-119273000D01*
X143891000Y-119273000D01*
X143891000Y-119253000D01*
X143871000Y-119253000D01*
X143871000Y-118999000D01*
X143891000Y-118999000D01*
X143891000Y-118979000D01*
X144145000Y-118979000D01*
X144145000Y-118999000D01*
G36*
X119599946Y-114109147D02*
X120081715Y-114431054D01*
X120650000Y-114544093D01*
X121218285Y-114431054D01*
X121700054Y-114109147D01*
X121920000Y-113779974D01*
X122139946Y-114109147D01*
X122621715Y-114431054D01*
X123190000Y-114544093D01*
X123758285Y-114431054D01*
X124240054Y-114109147D01*
X124460000Y-113779974D01*
X124679946Y-114109147D01*
X125161715Y-114431054D01*
X125730000Y-114544093D01*
X126298285Y-114431054D01*
X126780054Y-114109147D01*
X127000000Y-113779974D01*
X127219946Y-114109147D01*
X127701715Y-114431054D01*
X128270000Y-114544093D01*
X128838285Y-114431054D01*
X129320054Y-114109147D01*
X129540000Y-113779974D01*
X129759946Y-114109147D01*
X130241715Y-114431054D01*
X130810000Y-114544093D01*
X131378285Y-114431054D01*
X131860054Y-114109147D01*
X132080000Y-113779974D01*
X132299946Y-114109147D01*
X132781715Y-114431054D01*
X133350000Y-114544093D01*
X133918285Y-114431054D01*
X134287950Y-114184052D01*
X134846699Y-114742801D01*
X135093260Y-114907548D01*
X135141514Y-114917146D01*
X135384100Y-114965400D01*
X140659598Y-114965400D01*
X143354542Y-117660344D01*
X143115964Y-117775268D01*
X142744461Y-118191069D01*
X142537670Y-117881585D01*
X142051489Y-117556729D01*
X141478000Y-117442655D01*
X140904511Y-117556729D01*
X140418330Y-117881585D01*
X140208000Y-118196366D01*
X139997670Y-117881585D01*
X139511489Y-117556729D01*
X138938000Y-117442655D01*
X138364511Y-117556729D01*
X137878330Y-117881585D01*
X137668000Y-118196366D01*
X137457670Y-117881585D01*
X136971489Y-117556729D01*
X136398000Y-117442655D01*
X135824511Y-117556729D01*
X135470964Y-117792962D01*
X134274101Y-116596099D01*
X134027539Y-116431352D01*
X133736700Y-116373500D01*
X120827602Y-116373500D01*
X118791237Y-114337135D01*
X118876924Y-114301645D01*
X119305183Y-113911358D01*
X119372298Y-113768447D01*
X119599946Y-114109147D01*
X119599946Y-114109147D01*
G37*
X119599946Y-114109147D02*
X120081715Y-114431054D01*
X120650000Y-114544093D01*
X121218285Y-114431054D01*
X121700054Y-114109147D01*
X121920000Y-113779974D01*
X122139946Y-114109147D01*
X122621715Y-114431054D01*
X123190000Y-114544093D01*
X123758285Y-114431054D01*
X124240054Y-114109147D01*
X124460000Y-113779974D01*
X124679946Y-114109147D01*
X125161715Y-114431054D01*
X125730000Y-114544093D01*
X126298285Y-114431054D01*
X126780054Y-114109147D01*
X127000000Y-113779974D01*
X127219946Y-114109147D01*
X127701715Y-114431054D01*
X128270000Y-114544093D01*
X128838285Y-114431054D01*
X129320054Y-114109147D01*
X129540000Y-113779974D01*
X129759946Y-114109147D01*
X130241715Y-114431054D01*
X130810000Y-114544093D01*
X131378285Y-114431054D01*
X131860054Y-114109147D01*
X132080000Y-113779974D01*
X132299946Y-114109147D01*
X132781715Y-114431054D01*
X133350000Y-114544093D01*
X133918285Y-114431054D01*
X134287950Y-114184052D01*
X134846699Y-114742801D01*
X135093260Y-114907548D01*
X135141514Y-114917146D01*
X135384100Y-114965400D01*
X140659598Y-114965400D01*
X143354542Y-117660344D01*
X143115964Y-117775268D01*
X142744461Y-118191069D01*
X142537670Y-117881585D01*
X142051489Y-117556729D01*
X141478000Y-117442655D01*
X140904511Y-117556729D01*
X140418330Y-117881585D01*
X140208000Y-118196366D01*
X139997670Y-117881585D01*
X139511489Y-117556729D01*
X138938000Y-117442655D01*
X138364511Y-117556729D01*
X137878330Y-117881585D01*
X137668000Y-118196366D01*
X137457670Y-117881585D01*
X136971489Y-117556729D01*
X136398000Y-117442655D01*
X135824511Y-117556729D01*
X135470964Y-117792962D01*
X134274101Y-116596099D01*
X134027539Y-116431352D01*
X133736700Y-116373500D01*
X120827602Y-116373500D01*
X118791237Y-114337135D01*
X118876924Y-114301645D01*
X119305183Y-113911358D01*
X119372298Y-113768447D01*
X119599946Y-114109147D01*
G36*
X195409100Y-96090602D02*
X195409100Y-109499800D01*
X195466952Y-109790639D01*
X195631699Y-110037201D01*
X196183430Y-110588932D01*
X195973474Y-110903152D01*
X195859400Y-111476641D01*
X195859400Y-111535359D01*
X195973474Y-112108848D01*
X196298330Y-112595029D01*
X196556620Y-112767613D01*
X196483800Y-112992195D01*
X197358000Y-113866395D01*
X198232200Y-112992195D01*
X198159380Y-112767613D01*
X198417670Y-112595029D01*
X198628000Y-112280248D01*
X198838330Y-112595029D01*
X199109161Y-112775992D01*
X198691179Y-113157510D01*
X198648510Y-113248551D01*
X198411805Y-113171800D01*
X197537605Y-114046000D01*
X197551748Y-114060143D01*
X197372143Y-114239748D01*
X197358000Y-114225605D01*
X197343858Y-114239748D01*
X197164253Y-114060143D01*
X197178395Y-114046000D01*
X196304195Y-113171800D01*
X196051484Y-113253741D01*
X195847752Y-113814030D01*
X195873942Y-114409635D01*
X195903461Y-114480900D01*
X195772779Y-114480900D01*
X193696090Y-112404210D01*
X193641071Y-112367448D01*
X193408975Y-112212367D01*
X193352784Y-112201190D01*
X193070300Y-112144999D01*
X193070295Y-112145000D01*
X192949779Y-112145000D01*
X192820054Y-111950853D01*
X192818821Y-111950029D01*
X192855317Y-111943162D01*
X193071441Y-111804090D01*
X193216431Y-111591890D01*
X193267440Y-111340000D01*
X193267440Y-109640000D01*
X193223162Y-109404683D01*
X193084090Y-109188559D01*
X192871890Y-109043569D01*
X192620000Y-108992560D01*
X190920000Y-108992560D01*
X190684683Y-109036838D01*
X190623202Y-109076400D01*
X187774201Y-106227399D01*
X187527639Y-106062652D01*
X187236800Y-106004800D01*
X181844763Y-106004800D01*
X181812627Y-105972608D01*
X181714175Y-105931727D01*
X187091380Y-100554522D01*
X187136867Y-100554562D01*
X187480643Y-100412517D01*
X187743892Y-100149727D01*
X187886538Y-99806199D01*
X187886862Y-99434233D01*
X187744817Y-99090457D01*
X187707913Y-99053489D01*
X189576102Y-97185300D01*
X189786800Y-97185300D01*
X190077639Y-97127448D01*
X190324201Y-96962701D01*
X190621986Y-96664916D01*
X190668110Y-96696431D01*
X190920000Y-96747440D01*
X192444400Y-96747440D01*
X192444400Y-106997537D01*
X192412208Y-107029673D01*
X192269562Y-107373201D01*
X192269238Y-107745167D01*
X192411283Y-108088943D01*
X192674073Y-108352192D01*
X193017601Y-108494838D01*
X193389567Y-108495162D01*
X193733343Y-108353117D01*
X193996592Y-108090327D01*
X194139238Y-107746799D01*
X194139562Y-107374833D01*
X193997517Y-107031057D01*
X193964400Y-106997882D01*
X193964400Y-94645902D01*
X195409100Y-96090602D01*
X195409100Y-96090602D01*
G37*
X195409100Y-96090602D02*
X195409100Y-109499800D01*
X195466952Y-109790639D01*
X195631699Y-110037201D01*
X196183430Y-110588932D01*
X195973474Y-110903152D01*
X195859400Y-111476641D01*
X195859400Y-111535359D01*
X195973474Y-112108848D01*
X196298330Y-112595029D01*
X196556620Y-112767613D01*
X196483800Y-112992195D01*
X197358000Y-113866395D01*
X198232200Y-112992195D01*
X198159380Y-112767613D01*
X198417670Y-112595029D01*
X198628000Y-112280248D01*
X198838330Y-112595029D01*
X199109161Y-112775992D01*
X198691179Y-113157510D01*
X198648510Y-113248551D01*
X198411805Y-113171800D01*
X197537605Y-114046000D01*
X197551748Y-114060143D01*
X197372143Y-114239748D01*
X197358000Y-114225605D01*
X197343858Y-114239748D01*
X197164253Y-114060143D01*
X197178395Y-114046000D01*
X196304195Y-113171800D01*
X196051484Y-113253741D01*
X195847752Y-113814030D01*
X195873942Y-114409635D01*
X195903461Y-114480900D01*
X195772779Y-114480900D01*
X193696090Y-112404210D01*
X193641071Y-112367448D01*
X193408975Y-112212367D01*
X193352784Y-112201190D01*
X193070300Y-112144999D01*
X193070295Y-112145000D01*
X192949779Y-112145000D01*
X192820054Y-111950853D01*
X192818821Y-111950029D01*
X192855317Y-111943162D01*
X193071441Y-111804090D01*
X193216431Y-111591890D01*
X193267440Y-111340000D01*
X193267440Y-109640000D01*
X193223162Y-109404683D01*
X193084090Y-109188559D01*
X192871890Y-109043569D01*
X192620000Y-108992560D01*
X190920000Y-108992560D01*
X190684683Y-109036838D01*
X190623202Y-109076400D01*
X187774201Y-106227399D01*
X187527639Y-106062652D01*
X187236800Y-106004800D01*
X181844763Y-106004800D01*
X181812627Y-105972608D01*
X181714175Y-105931727D01*
X187091380Y-100554522D01*
X187136867Y-100554562D01*
X187480643Y-100412517D01*
X187743892Y-100149727D01*
X187886538Y-99806199D01*
X187886862Y-99434233D01*
X187744817Y-99090457D01*
X187707913Y-99053489D01*
X189576102Y-97185300D01*
X189786800Y-97185300D01*
X190077639Y-97127448D01*
X190324201Y-96962701D01*
X190621986Y-96664916D01*
X190668110Y-96696431D01*
X190920000Y-96747440D01*
X192444400Y-96747440D01*
X192444400Y-106997537D01*
X192412208Y-107029673D01*
X192269562Y-107373201D01*
X192269238Y-107745167D01*
X192411283Y-108088943D01*
X192674073Y-108352192D01*
X193017601Y-108494838D01*
X193389567Y-108495162D01*
X193733343Y-108353117D01*
X193996592Y-108090327D01*
X194139238Y-107746799D01*
X194139562Y-107374833D01*
X193997517Y-107031057D01*
X193964400Y-106997882D01*
X193964400Y-94645902D01*
X195409100Y-96090602D01*
G36*
X200025000Y-113919000D02*
X200045000Y-113919000D01*
X200045000Y-114173000D01*
X200025000Y-114173000D01*
X200025000Y-114193000D01*
X199771000Y-114193000D01*
X199771000Y-114173000D01*
X199751000Y-114173000D01*
X199751000Y-113919000D01*
X199771000Y-113919000D01*
X199771000Y-113899000D01*
X200025000Y-113899000D01*
X200025000Y-113919000D01*
X200025000Y-113919000D01*
G37*
X200025000Y-113919000D02*
X200045000Y-113919000D01*
X200045000Y-114173000D01*
X200025000Y-114173000D01*
X200025000Y-114193000D01*
X199771000Y-114193000D01*
X199771000Y-114173000D01*
X199751000Y-114173000D01*
X199751000Y-113919000D01*
X199771000Y-113919000D01*
X199771000Y-113899000D01*
X200025000Y-113899000D01*
X200025000Y-113919000D01*
G36*
X118237000Y-112903000D02*
X118257000Y-112903000D01*
X118257000Y-113157000D01*
X118237000Y-113157000D01*
X118237000Y-113177000D01*
X117983000Y-113177000D01*
X117983000Y-113157000D01*
X117963000Y-113157000D01*
X117963000Y-112903000D01*
X117983000Y-112903000D01*
X117983000Y-112883000D01*
X118237000Y-112883000D01*
X118237000Y-112903000D01*
X118237000Y-112903000D01*
G37*
X118237000Y-112903000D02*
X118257000Y-112903000D01*
X118257000Y-113157000D01*
X118237000Y-113157000D01*
X118237000Y-113177000D01*
X117983000Y-113177000D01*
X117983000Y-113157000D01*
X117963000Y-113157000D01*
X117963000Y-112903000D01*
X117983000Y-112903000D01*
X117983000Y-112883000D01*
X118237000Y-112883000D01*
X118237000Y-112903000D01*
G36*
X189357000Y-82423000D02*
X189377000Y-82423000D01*
X189377000Y-82677000D01*
X189357000Y-82677000D01*
X189357000Y-83870819D01*
X189586892Y-83991486D01*
X190111358Y-83745183D01*
X190501645Y-83316924D01*
X190530838Y-83246440D01*
X191847000Y-84562602D01*
X191847000Y-87807498D01*
X187691463Y-83651961D01*
X187769147Y-83600054D01*
X187958345Y-83316899D01*
X187958355Y-83316924D01*
X188348642Y-83745183D01*
X188873108Y-83991486D01*
X189103000Y-83870819D01*
X189103000Y-82677000D01*
X189083000Y-82677000D01*
X189083000Y-82423000D01*
X189103000Y-82423000D01*
X189103000Y-82403000D01*
X189357000Y-82403000D01*
X189357000Y-82423000D01*
X189357000Y-82423000D01*
G37*
X189357000Y-82423000D02*
X189377000Y-82423000D01*
X189377000Y-82677000D01*
X189357000Y-82677000D01*
X189357000Y-83870819D01*
X189586892Y-83991486D01*
X190111358Y-83745183D01*
X190501645Y-83316924D01*
X190530838Y-83246440D01*
X191847000Y-84562602D01*
X191847000Y-87807498D01*
X187691463Y-83651961D01*
X187769147Y-83600054D01*
X187958345Y-83316899D01*
X187958355Y-83316924D01*
X188348642Y-83745183D01*
X188873108Y-83991486D01*
X189103000Y-83870819D01*
X189103000Y-82677000D01*
X189083000Y-82677000D01*
X189083000Y-82423000D01*
X189103000Y-82423000D01*
X189103000Y-82403000D01*
X189357000Y-82403000D01*
X189357000Y-82423000D01*
M02*
