M48
;DRILL file {KiCad 4.0.5} date 03/05/17 22:01:13
;FORMAT={-:-/ absolute / inch / decimal}
FMAT,2
INCH,TZ
T1C0.016
T2C0.028
T3C0.039
T4C0.040
T5C0.120
%
G90
G05
M72
T1
X5.4698Y-3.562
X5.5944Y-3.5364
X5.6901Y-3.5132
X5.715Y-3.4617
X5.7638Y-3.4853
X5.8039Y-3.4379
X5.81Y-2.8385
X5.8243Y-4.2409
X5.917Y-4.5835
X6.1304Y-4.6139
X6.5143Y-4.1597
X6.5251Y-3.8653
X6.5511Y-3.8899
X6.5651Y-2.9174
X6.6102Y-2.8635
X6.6304Y-2.8882
X6.6383Y-3.5958
X6.6492Y-3.9138
X6.7117Y-3.9864
X6.8611Y-3.9369
X6.899Y-3.9597
X6.9164Y-4.2713
X7.0037Y-3.7006
X7.0508Y-3.6519
X7.1371Y-4.2033
X7.164Y-4.2302
X7.188Y-3.9782
X7.2116Y-4.2528
X7.3073Y-3.635
X7.3286Y-3.8732
X7.3603Y-3.922
X7.6065Y-4.2346
X7.6253Y-3.6129
X7.665Y-3.5706
T2
X4.65Y-3.15
X4.85Y-3.15
T3
X4.55Y-3.75
X4.65Y-3.75
X4.65Y-4.05
X4.65Y-4.35
X4.65Y-4.45
X4.75Y-3.75
X4.75Y-4.05
X4.75Y-4.35
X4.75Y-4.45
X4.85Y-3.75
X4.85Y-4.05
X4.85Y-4.35
X4.85Y-4.45
X4.95Y-3.75
X4.95Y-4.05
X4.95Y-4.35
X4.95Y-4.45
X5.05Y-3.35
X5.05Y-3.75
X5.05Y-4.05
X5.05Y-4.35
X5.05Y-4.45
X5.15Y-3.35
X5.15Y-3.75
X5.15Y-4.05
X5.15Y-4.35
X5.15Y-4.45
X5.25Y-3.35
X5.25Y-3.75
X5.25Y-4.05
X5.25Y-4.35
X5.25Y-4.45
X5.35Y-3.35
X5.35Y-3.75
X5.35Y-4.05
X5.35Y-4.35
X5.35Y-4.45
X5.45Y-3.75
X5.45Y-4.35
X5.45Y-4.45
X5.55Y-3.75
X5.55Y-4.35
X5.55Y-4.45
X5.65Y-3.06
X5.65Y-3.35
X5.65Y-3.75
X5.65Y-4.35
X5.65Y-4.45
X5.75Y-3.06
X5.75Y-3.35
X5.75Y-3.75
X5.75Y-4.35
X5.75Y-4.45
X5.85Y-3.06
X5.85Y-3.35
X5.85Y-3.75
X5.85Y-4.35
X5.85Y-4.45
X5.95Y-3.06
X5.95Y-3.35
X5.95Y-3.75
X5.95Y-4.35
X5.95Y-4.45
X6.05Y-3.06
X6.05Y-3.35
X6.05Y-4.35
X6.05Y-4.45
X6.15Y-3.06
X6.15Y-3.35
X6.15Y-4.35
X6.15Y-4.45
X6.25Y-3.06
X6.25Y-3.35
X6.25Y-3.75
X6.25Y-4.05
X6.25Y-4.35
X6.25Y-4.45
X6.35Y-3.06
X6.35Y-3.75
X6.35Y-4.05
X6.35Y-4.35
X6.35Y-4.45
X6.45Y-3.06
X6.45Y-3.75
X6.45Y-4.05
X6.45Y-4.35
X6.45Y-4.45
X6.55Y-3.06
X6.55Y-3.75
X6.55Y-4.05
X6.55Y-4.35
X6.55Y-4.45
X6.65Y-3.06
X6.65Y-3.75
X6.65Y-4.05
X6.65Y-4.35
X6.65Y-4.45
X6.75Y-3.06
X6.75Y-3.35
X6.75Y-3.75
X6.75Y-4.05
X6.75Y-4.35
X6.75Y-4.45
X6.85Y-3.06
X6.85Y-3.35
X6.85Y-3.75
X6.85Y-4.05
X6.85Y-4.35
X6.85Y-4.45
X6.95Y-3.06
X6.95Y-3.35
X6.95Y-3.75
X6.95Y-4.05
X6.95Y-4.35
X6.95Y-4.45
X7.05Y-3.06
X7.05Y-3.35
X7.05Y-3.75
X7.05Y-4.35
X7.05Y-4.45
X7.15Y-3.75
X7.15Y-4.35
X7.15Y-4.45
X7.25Y-3.75
X7.25Y-4.35
X7.25Y-4.45
X7.35Y-3.05
X7.35Y-3.15
X7.35Y-3.25
X7.35Y-3.75
X7.35Y-4.35
X7.35Y-4.45
X7.45Y-3.05
X7.45Y-3.15
X7.45Y-3.25
X7.45Y-3.75
X7.45Y-4.35
X7.45Y-4.45
X7.55Y-3.75
X7.55Y-4.35
X7.55Y-4.45
T4
X4.81Y-2.79
X4.91Y-2.79
X5.01Y-2.79
X5.11Y-2.79
X5.17Y-4.69
X5.21Y-2.79
X5.27Y-4.69
X5.31Y-2.79
X5.37Y-4.69
X5.41Y-2.79
X5.47Y-4.69
X5.51Y-2.79
X5.57Y-4.69
X5.61Y-2.79
X5.67Y-4.69
X5.71Y-2.79
X5.77Y-4.69
X5.87Y-2.79
X5.87Y-4.69
X5.97Y-2.79
X6.07Y-2.79
X6.07Y-4.69
X6.17Y-2.79
X6.17Y-4.69
X6.27Y-2.79
X6.27Y-4.69
X6.37Y-2.79
X6.37Y-4.69
X6.47Y-2.79
X6.47Y-4.69
X6.57Y-2.79
X6.57Y-4.69
X6.67Y-4.69
X6.77Y-2.79
X6.77Y-4.69
X6.87Y-2.79
X6.97Y-2.79
X6.97Y-4.69
X7.07Y-2.79
X7.07Y-4.69
X7.17Y-2.79
X7.17Y-4.69
X7.27Y-2.79
X7.27Y-4.69
X7.37Y-2.79
X7.37Y-4.69
X7.47Y-2.79
X7.47Y-4.69
X7.57Y-4.69
X7.67Y-4.69
X7.77Y-2.79
X7.77Y-2.89
X7.77Y-2.99
X7.77Y-3.09
X7.77Y-3.19
X7.77Y-3.29
X7.77Y-3.39
X7.77Y-3.49
X7.77Y-3.59
X7.77Y-3.69
X7.77Y-3.79
X7.77Y-3.89
X7.77Y-3.99
X7.77Y-4.09
X7.77Y-4.19
X7.77Y-4.29
X7.77Y-4.39
X7.77Y-4.49
X7.87Y-2.79
X7.87Y-2.89
X7.87Y-2.99
X7.87Y-3.09
X7.87Y-3.19
X7.87Y-3.29
X7.87Y-3.39
X7.87Y-3.49
X7.87Y-3.59
X7.87Y-3.69
X7.87Y-3.79
X7.87Y-3.89
X7.87Y-3.99
X7.87Y-4.09
X7.87Y-4.19
X7.87Y-4.29
X7.87Y-4.39
X7.87Y-4.49
T5
X4.62Y-4.69
X4.67Y-2.79
X7.62Y-2.79
X7.87Y-4.69
T0
M30
