G04 #@! TF.FileFunction,Legend,Bot*
%FSLAX46Y46*%
G04 Gerber Fmt 4.6, Leading zero omitted, Abs format (unit mm)*
G04 Created by KiCad (PCBNEW 4.0.5) date 03/05/17 22:01:09*
%MOMM*%
%LPD*%
G01*
G04 APERTURE LIST*
%ADD10C,0.100000*%
%ADD11C,0.300000*%
G04 APERTURE END LIST*
D10*
D11*
X176797429Y-89781143D02*
X176226000Y-91781143D01*
X175654571Y-90352571D01*
X175083143Y-91781143D01*
X174511714Y-89781143D01*
X173654572Y-89781143D02*
X173083143Y-91781143D01*
X172511714Y-90352571D01*
X171940286Y-91781143D01*
X171368857Y-89781143D01*
X170511715Y-89781143D02*
X169940286Y-91781143D01*
X169368857Y-90352571D01*
X168797429Y-91781143D01*
X168226000Y-89781143D01*
X167083143Y-91495429D02*
X166940286Y-91638286D01*
X167083143Y-91781143D01*
X167226000Y-91638286D01*
X167083143Y-91495429D01*
X167083143Y-91781143D01*
X165654572Y-89781143D02*
X165654572Y-91781143D01*
X165654572Y-90066857D02*
X165511715Y-89924000D01*
X165226001Y-89781143D01*
X164797429Y-89781143D01*
X164511715Y-89924000D01*
X164368858Y-90209714D01*
X164368858Y-91781143D01*
X161797429Y-91638286D02*
X162083143Y-91781143D01*
X162654572Y-91781143D01*
X162940286Y-91638286D01*
X163083143Y-91352571D01*
X163083143Y-90209714D01*
X162940286Y-89924000D01*
X162654572Y-89781143D01*
X162083143Y-89781143D01*
X161797429Y-89924000D01*
X161654572Y-90209714D01*
X161654572Y-90495429D01*
X163083143Y-90781143D01*
X160797429Y-89781143D02*
X159654572Y-89781143D01*
X160368857Y-91781143D02*
X160368857Y-89209714D01*
X160226000Y-88924000D01*
X159940286Y-88781143D01*
X159654572Y-88781143D01*
X158654571Y-91781143D02*
X158654571Y-89781143D01*
X158654571Y-90352571D02*
X158511714Y-90066857D01*
X158368857Y-89924000D01*
X158083143Y-89781143D01*
X157797428Y-89781143D01*
X156368857Y-91781143D02*
X156654571Y-91638286D01*
X156797428Y-91495429D01*
X156940285Y-91209714D01*
X156940285Y-90352571D01*
X156797428Y-90066857D01*
X156654571Y-89924000D01*
X156368857Y-89781143D01*
X155940285Y-89781143D01*
X155654571Y-89924000D01*
X155511714Y-90066857D01*
X155368857Y-90352571D01*
X155368857Y-91209714D01*
X155511714Y-91495429D01*
X155654571Y-91638286D01*
X155940285Y-91781143D01*
X156368857Y-91781143D01*
X152797428Y-91638286D02*
X153083142Y-91781143D01*
X153654571Y-91781143D01*
X153940285Y-91638286D01*
X154083142Y-91495429D01*
X154225999Y-91209714D01*
X154225999Y-90352571D01*
X154083142Y-90066857D01*
X153940285Y-89924000D01*
X153654571Y-89781143D01*
X153083142Y-89781143D01*
X152797428Y-89924000D01*
X151511713Y-91781143D02*
X151511713Y-88781143D01*
X151225999Y-90638286D02*
X150368856Y-91781143D01*
X150368856Y-89781143D02*
X151511713Y-90924000D01*
X148654571Y-91781143D02*
X148940285Y-91638286D01*
X149083142Y-91352571D01*
X149083142Y-88781143D01*
X146225999Y-91781143D02*
X146225999Y-90209714D01*
X146368856Y-89924000D01*
X146654570Y-89781143D01*
X147225999Y-89781143D01*
X147511713Y-89924000D01*
X146225999Y-91638286D02*
X146511713Y-91781143D01*
X147225999Y-91781143D01*
X147511713Y-91638286D01*
X147654570Y-91352571D01*
X147654570Y-91066857D01*
X147511713Y-90781143D01*
X147225999Y-90638286D01*
X146511713Y-90638286D01*
X146225999Y-90495429D01*
X144797427Y-91781143D02*
X144797427Y-88781143D01*
X144797427Y-89924000D02*
X144511713Y-89781143D01*
X143940284Y-89781143D01*
X143654570Y-89924000D01*
X143511713Y-90066857D01*
X143368856Y-90352571D01*
X143368856Y-91209714D01*
X143511713Y-91495429D01*
X143654570Y-91638286D01*
X143940284Y-91781143D01*
X144511713Y-91781143D01*
X144797427Y-91638286D01*
X142083141Y-91495429D02*
X141940284Y-91638286D01*
X142083141Y-91781143D01*
X142225998Y-91638286D01*
X142083141Y-91495429D01*
X142083141Y-91781143D01*
X140654570Y-91781143D02*
X140654570Y-89781143D01*
X140654570Y-88781143D02*
X140797427Y-88924000D01*
X140654570Y-89066857D01*
X140511713Y-88924000D01*
X140654570Y-88781143D01*
X140654570Y-89066857D01*
X138797428Y-91781143D02*
X139083142Y-91638286D01*
X139225999Y-91495429D01*
X139368856Y-91209714D01*
X139368856Y-90352571D01*
X139225999Y-90066857D01*
X139083142Y-89924000D01*
X138797428Y-89781143D01*
X138368856Y-89781143D01*
X138083142Y-89924000D01*
X137940285Y-90066857D01*
X137797428Y-90352571D01*
X137797428Y-91209714D01*
X137940285Y-91495429D01*
X138083142Y-91638286D01*
X138368856Y-91781143D01*
X138797428Y-91781143D01*
M02*
